<?xml version="1.0" encoding="UTF-8"?>
<svg height="100%" width="100%" xmlns="http://www.w3.org/2000/svg">
	<defs>
		<font horiz-adv-x="494" id="web">
			<font-face alphabetic="0" ascent="1041" descent="-237" font-family="" panose-1="2 0 3 3 4 0 0 2 0 3"/>
			<missing-glyph d="M87 712H452V0H87ZM125 674V38H414V674Z" horiz-adv-x="539"/>
			<glyph d="" horiz-adv-x="235" unicode=" "/>
			<glyph d="M129 712H185L179 192H135ZM157 77Q174 77 185 65T197 37Q197 21 185 9T157 -3Q141 -3 129 9T117 37Q117 54 129 65T157 77Z" horiz-adv-x="284" unicode="!"/>
			<glyph d="M85 712H148V556H85ZM240 712H303V556H240Z" horiz-adv-x="388" unicode="&quot;"/>
			<glyph d="M242 712H290L253 482H436L472 712H518L482 482H576V441H477L450 280H547V240H444L406 0H359L398 240H214L177 0H130L168 240H72V280H174L201 441H101V482H206ZM247 441L220 280H403L430 441Z" horiz-adv-x="648" unicode="#"/>
			<glyph d="M255 806H300V717Q355 714 397 696T482 641L447 606Q415 635 381 651T300 671V381Q372 369 403 358T456 329Q486 305 502 269T518 191Q518 105 460 52T300 -5V-114H255V-6Q187 -3 137 19T41 88L79 126Q122 83 161 65T255 43V338Q209 342 172 357T112 392Q56 440 56 523Q56 608 109 659T255 717ZM255 671Q186 666 147 627T109 525Q109 463 146 432Q188 397 255 388ZM300 330V43Q377 48 420 86T464 189Q464 256 425 289Q404 307 384 313T320 327Z" horiz-adv-x="567" unicode="$"/>
			<glyph d="M190 718Q247 718 284 681T321 584V478Q321 417 284 380T190 344Q133 344 96 380T59 478V584Q59 645 96 681T190 718ZM548 712H593L261 0H216ZM190 678Q149 678 126 651T103 577V485Q103 437 126 410T190 384Q231 384 254 410T277 485V577Q277 625 254 651T190 678ZM618 368Q675 368 712 331T749 234V128Q749 67 712 30T618 -6Q561 -6 524 30T487 128V234Q487 295 524 331T618 368ZM618 328Q577 328 554 301T531 227V135Q531 87 554 60T618 34Q659 34 682 60T705 135V227Q705 275 682 301T618 328Z" horiz-adv-x="808" unicode="%"/>
			<glyph d="M303 718Q342 718 375 699T428 647T448 575Q448 534 426 504T366 447L313 411L517 164Q541 200 550 237T559 341H613Q613 202 550 124L652 0H583L514 84Q481 51 426 22T295 -6Q230 -6 180 19T102 91T74 197Q74 248 95 286T148 352T237 418Q199 465 178 500T158 576Q158 615 177 647T230 699T303 718ZM303 670Q264 670 238 644T212 578Q212 550 226 523T282 447L299 458Q349 490 372 515T395 575Q395 616 368 643T303 670ZM268 382Q220 350 192 327T146 272T128 200Q128 130 174 86T294 42Q342 42 388 59T484 121Z" horiz-adv-x="682" unicode="&amp;"/>
			<glyph d="M85 712H148V556H85Z" horiz-adv-x="233" unicode="'"/>
			<glyph d="M187 805L229 780Q172 674 143 575T115 356Q115 235 143 136T229 -68L187 -93Q123 16 92 124T62 356Q62 479 92 587T187 805Z" horiz-adv-x="264" unicode="("/>
			<glyph d="M77 805Q141 696 171 587T202 356Q202 232 171 124T77 -93L35 -68Q92 38 120 136T149 356Q149 476 120 575T35 780Z" horiz-adv-x="264" unicode=")"/>
			<glyph d="M211 712H256L253 571L373 644L395 606L272 538L395 470L373 432L253 505L256 364H211L214 505L94 432L72 470L195 538L72 606L94 644L214 571Z" horiz-adv-x="467" unicode="*"/>
			<glyph d="M224 467H271V287H451V240H271V59H224V240H43V287H224Z" unicode="+"/>
			<glyph d="M122 89Q141 89 154 75T168 41Q168 29 163 10T149 -36L121 -125H80L120 -3Q101 -1 88 12T76 43Q76 62 89 75T122 89Z" horiz-adv-x="244" unicode=","/>
			<glyph d="M72 287H334V240H72Z" horiz-adv-x="406" unicode="-"/>
			<glyph d="M122 89Q141 89 154 75T168 43Q168 24 154 10T122 -3Q103 -3 89 10T76 43Q76 62 89 75T122 89Z" horiz-adv-x="244" unicode="."/>
			<glyph d="M275 786H328L43 -74H-10Z" horiz-adv-x="318" unicode="/"/>
			<glyph d="M247 718Q301 718 343 693T410 626T434 528V184Q434 129 410 86T343 18T247 -6Q193 -6 150 18T84 86T60 184V528Q60 583 84 626T150 693T247 718ZM247 673Q182 673 146 631T111 523V189Q111 123 146 81T247 39Q312 39 347 81T383 189V523Q383 589 347 631T247 673Z" unicode="0"/>
			<glyph d="M252 712H303V0H252V654L123 540V601Z" unicode="1"/>
			<glyph d="M251 718Q336 718 387 666T439 531Q439 491 428 460T390 394L123 45H439V0H62V45L348 420Q369 447 378 473T388 531Q388 596 351 634T251 673Q191 673 152 637T114 531H63Q63 584 86 626T151 693T251 718Z" unicode="2"/>
			<glyph d="M234 718Q319 718 371 666T423 529Q423 470 399 430T322 368Q381 348 409 304T437 191Q437 98 380 46T235 -6Q148 -6 93 39T32 174H83Q89 106 131 72T235 39Q300 39 343 80T386 191Q386 342 231 342H219V387H231Q372 387 372 529Q372 597 333 635T234 673Q172 673 135 638T92 543H41Q49 625 101 671T234 718Z" unicode="3"/>
			<glyph d="M295 712H349L87 162H315V388H366V162H461V117H366V0H315V117H33V162Z" unicode="4"/>
			<glyph d="M83 712H425V667H128V416Q175 469 263 469Q340 469 383 426Q418 391 429 343T441 234Q441 170 430 124T386 45Q335 -6 249 -6Q159 -6 112 42Q70 84 64 158H115Q124 99 156 69T249 39Q278 39 304 48T347 75Q375 103 382 141T390 234Q390 318 362 371T257 424Q208 424 173 404T128 349H83Z" unicode="5"/>
			<glyph d="M284 712H335L167 376Q203 400 254 400Q310 400 352 374T416 302T438 201Q438 143 415 96T350 21T250 -6Q162 -6 111 49T61 194Q61 230 70 264T101 343ZM249 355Q186 355 149 312T112 197Q112 125 149 82T249 39Q312 39 349 82T387 197Q387 264 350 309T249 355Z" unicode="6"/>
			<glyph d="M76 712H449V667L197 0H146L398 667H127V555H76Z" unicode="7"/>
			<glyph d="M247 718Q301 718 344 693T411 626T435 532Q435 422 338 370Q391 342 420 297T450 192Q450 136 423 90T350 19T247 -6Q190 -6 143 19T70 90T44 192Q44 252 74 297T157 370Q59 424 59 532Q59 584 83 626T150 693T247 718ZM247 673Q186 673 148 633T110 532Q110 470 148 430T247 391Q308 391 346 430T384 532Q384 594 346 633T247 673ZM247 346Q205 346 170 325T115 270T95 192Q95 149 115 114T170 59T247 39Q289 39 324 59T379 114T399 192Q399 235 379 270T324 325T247 346Z" unicode="8"/>
			<glyph d="M244 718Q332 718 382 662T433 518Q433 482 424 447T393 369L210 0H159L327 336Q291 312 240 312Q184 312 142 338T78 409T56 511Q56 569 78 616T143 690T244 718ZM245 673Q182 673 144 630T107 515Q107 448 143 402T245 357Q308 357 345 400T382 515Q382 587 345 630T245 673Z" unicode="9"/>
			<glyph d="M150 389Q169 389 182 375T196 343Q196 324 182 310T150 297Q131 297 117 310T104 343Q104 362 117 375T150 389ZM150 89Q169 89 182 75T196 43Q196 24 182 10T150 -3Q131 -3 117 10T104 43Q104 62 117 75T150 89Z" horiz-adv-x="272" unicode=":"/>
			<glyph d="M150 389Q169 389 182 375T196 343Q196 324 182 310T150 297Q131 297 117 310T104 343Q104 362 117 375T150 389ZM150 89Q169 89 182 75T196 41Q196 29 191 10T177 -36L149 -125H108L148 -3Q129 -1 116 12T104 43Q104 62 117 75T150 89Z" horiz-adv-x="272" unicode=";"/>
			<glyph d="M399 448V393L145 263L399 133V78L95 239V287Z" unicode="&lt;"/>
			<glyph d="M43 363H451V316H43ZM43 210H451V163H43Z" unicode="="/>
			<glyph d="M95 448L399 287V239L95 78V133L349 263L95 393Z" unicode="&gt;"/>
			<glyph d="M249 718Q299 718 340 695T404 631T428 542Q428 510 417 482T384 423L299 298Q290 285 285 268T281 238V191H230V236Q230 264 236 283T259 326L343 450Q361 477 369 496T377 542Q377 598 340 635T249 673Q192 673 156 634T121 542H70Q70 589 93 629T156 694T249 718ZM255 77Q272 77 283 65T295 37Q295 21 283 9T255 -3Q239 -3 227 9T215 37Q215 54 227 65T255 77Z" horiz-adv-x="468" unicode="?"/>
			<glyph d="M499 668Q606 668 689 624T818 500T865 316Q865 234 832 167T745 62T626 24Q553 24 542 83Q488 16 416 16Q353 16 313 52T274 162Q274 197 283 242Q302 346 353 406T488 466Q534 466 563 444T602 391L616 459H661L596 133Q592 111 592 104Q592 69 629 69Q671 69 714 99T785 186T814 316Q814 405 773 475T660 584T499 623Q397 623 310 571T173 430T123 237Q123 128 170 39T305 -99T506 -150H547L538 -195H498Q376 -195 279 -138T127 16T72 237Q72 355 129 454T285 610T499 668ZM486 421Q368 421 334 241Q325 191 325 162Q325 114 349 87T416 61Q440 61 463 71T506 100Q528 122 543 154T569 242Q578 292 578 321Q578 373 551 397T486 421Z" horiz-adv-x="937" unicode="@"/>
			<glyph d="M267 712H315L577 0H519L457 173H125L63 0H5ZM291 640L142 221H440Z" horiz-adv-x="582" unicode="A"/>
			<glyph d="M100 712H362Q453 712 510 662T568 526Q568 469 538 426T457 366Q515 346 547 301T579 194Q579 101 522 50T370 0H100ZM154 664V388H356Q426 388 470 422T514 526Q514 596 470 630T356 664ZM154 340V48H364Q438 48 481 87T525 194Q525 262 481 301T364 340Z" horiz-adv-x="651" unicode="B"/>
			<glyph d="M316 718Q411 718 475 662T558 510H503Q487 584 437 627T316 670Q236 670 181 615Q156 590 144 559T129 484T126 356Q126 272 129 228T144 153T181 97Q236 42 316 42Q388 42 437 85T503 202H558Q540 105 475 49T316 -6Q264 -6 219 12T143 62Q110 95 95 129T76 211T72 356Q72 452 76 500T95 583T143 650Q175 682 219 700T316 718Z" horiz-adv-x="624" unicode="C"/>
			<glyph d="M100 712H339Q452 712 517 647Q549 615 564 569T582 474T586 356Q586 286 582 237T564 143T517 65Q452 0 339 0H100ZM154 664V48H326Q427 48 479 103Q514 140 523 200T532 356Q532 452 523 512T479 609Q427 664 326 664Z" horiz-adv-x="658" unicode="D"/>
			<glyph d="M100 712H532V664H154V383H476V335H154V48H532V0H100Z" horiz-adv-x="578" unicode="E"/>
			<glyph d="M100 712H532V664H154V371H476V323H154V0H100Z" horiz-adv-x="556" unicode="F"/>
			<glyph d="M316 718Q377 718 429 692T515 619T559 510H505Q489 584 438 627T316 670Q236 670 181 615Q156 590 144 559T129 484T126 356Q126 272 129 228T144 153T181 97Q236 42 316 42Q359 42 398 60T464 111Q487 140 497 173T507 252V316H316V364H561V248Q561 191 547 151T503 76Q468 38 419 16T316 -6Q264 -6 219 12T143 62Q110 95 95 129T76 211T72 356Q72 452 76 500T95 583T143 650Q175 682 219 700T316 718Z" horiz-adv-x="631" unicode="G"/>
			<glyph d="M100 712H154V383H526V712H580V0H526V335H154V0H100Z" horiz-adv-x="680" unicode="H"/>
			<glyph d="M100 712H154V0H100Z" horiz-adv-x="254" unicode="I"/>
			<glyph d="M334 712H388V210Q388 112 330 53T176 -6Q81 -6 20 55L57 92Q82 67 107 54T176 42Q253 42 293 88T334 221Z" horiz-adv-x="478" unicode="J"/>
			<glyph d="M100 712H154V267L515 712H580L360 440L617 0H553L324 399L154 193V0H100Z" horiz-adv-x="625" unicode="K"/>
			<glyph d="M100 712H154V48H532V0H100Z" horiz-adv-x="552" unicode="L"/>
			<glyph d="M100 712H154L402 214L644 712H698V0H644V587L428 151H374L154 587V0H100Z" horiz-adv-x="798" unicode="M"/>
			<glyph d="M100 712H154L565 94V712H619V0H565L154 618V0H100Z" horiz-adv-x="719" unicode="N"/>
			<glyph d="M316 718Q368 718 412 700T489 650Q522 617 536 583T555 500T560 356Q560 260 555 211T536 129T489 62Q457 30 412 12T316 -6Q264 -6 219 12T143 62Q110 95 95 129T76 211T72 356Q72 452 76 500T95 583T143 650Q175 682 219 700T316 718ZM316 670Q236 670 181 615Q156 590 144 559T129 484T126 356Q126 272 129 228T144 153T181 97Q236 42 316 42Q396 42 451 97Q476 122 487 153T502 228T506 356Q506 440 502 484T487 559T451 615Q396 670 316 670Z" horiz-adv-x="632" unicode="O"/>
			<glyph d="M100 712H361Q423 712 471 687T548 616T576 507Q576 444 548 397T471 326T361 302H154V0H100ZM154 664V350H355Q432 350 477 389T522 507Q522 585 477 624T355 664Z" horiz-adv-x="611" unicode="P"/>
			<glyph d="M316 718Q368 718 412 700T489 650Q522 617 536 583T555 500T560 356Q560 270 557 224T543 145T509 84L593 0L557 -36L473 48Q409 -6 316 -6Q264 -6 219 12T143 62Q110 95 95 129T76 211T72 356Q72 452 76 500T95 583T143 650Q175 682 219 700T316 718ZM316 670Q236 670 181 615Q156 590 144 559T129 484T126 356Q126 272 129 228T144 153T181 97Q236 42 316 42Q386 42 437 84L337 184L373 220L471 122Q494 154 500 202T506 356Q506 440 502 484T487 559T451 615Q396 670 316 670Z" horiz-adv-x="632" unicode="Q"/>
			<glyph d="M100 712H371Q461 712 518 661T575 521Q575 442 531 392T411 329L583 0H520L350 328H154V0H100ZM154 664V376H364Q436 376 478 412T521 520Q521 592 478 628T364 664Z" horiz-adv-x="637" unicode="R"/>
			<glyph d="M277 718Q341 718 388 700T482 641L447 606Q413 639 373 655T274 672Q196 672 152 633T109 525Q109 461 145 431Q182 400 247 390L330 377Q379 370 405 359T457 328Q518 275 518 191Q518 101 453 47T278 -6Q200 -6 145 16T41 88L79 126Q126 79 171 60T281 42Q366 42 415 81T464 189Q464 256 425 289Q407 305 386 312T322 327L239 340Q157 352 112 391Q56 438 56 523Q56 613 115 665T277 718Z" horiz-adv-x="567" unicode="S"/>
			<glyph d="M20 712H499V664H286V0H232V664H20Z" horiz-adv-x="519" unicode="T"/>
			<glyph d="M90 712H144V238Q144 149 196 95T334 42Q420 42 472 95T524 238V712H578V231Q578 162 547 108T460 24T334 -6Q263 -6 207 24T121 108T90 231Z" horiz-adv-x="668" unicode="U"/>
			<glyph d="M0 712H57L257 95L457 712H514L280 0H234Z" horiz-adv-x="514" unicode="V"/>
			<glyph d="M10 712H67L217 93L383 712H439L605 93L755 712H812L634 0H579L411 620L243 0H188Z" horiz-adv-x="822" unicode="W"/>
			<glyph d="M22 712H85L255 413L426 712H488L284 365L504 0H441L255 317L69 0H8L226 365Z" horiz-adv-x="512" unicode="X"/>
			<glyph d="M0 712H58L239 352L416 712H474L264 295V0H210V295Z" horiz-adv-x="474" unicode="Y"/>
			<glyph d="M68 712H486V664L111 48H486V0H53V48L428 664H68Z" horiz-adv-x="539" unicode="Z"/>
			<glyph d="M87 786H235V741H138V-29H235V-74H87Z" horiz-adv-x="270" unicode="["/>
			<glyph d="M-10 786H43L328 -74H275Z" horiz-adv-x="318" unicode="\"/>
			<glyph d="M35 786H183V-74H35V-29H132V741H35Z" horiz-adv-x="270" unicode="]"/>
			<glyph d="M224 718H270L428 422H377L247 664L117 422H66Z" unicode="^"/>
			<glyph d="M-10 -124H504V-160H-10Z" unicode="_"/>
			<glyph d="M116 737H183L280 590H222Z" horiz-adv-x="506" unicode="`"/>
			<glyph d="M234 488Q328 488 374 447T421 330V0H370V48Q340 18 307 6T223 -6Q169 -6 136 4T81 38Q64 55 55 79T46 132Q46 198 90 234T214 271H370V325Q370 384 338 413T234 443Q184 443 154 429T101 382L64 414Q94 455 133 471T234 488ZM220 230Q97 230 97 133Q97 85 127 62T223 39Q262 39 290 46T343 76Q370 102 370 168V230Z" horiz-adv-x="504" unicode="a"/>
			<glyph d="M87 712H138V420Q168 459 202 473T281 488Q318 488 349 476T399 446Q461 384 461 241Q461 98 399 36Q380 17 349 5T281 -6Q236 -6 202 8T138 62V0H87ZM274 443Q194 443 166 388T138 241Q138 149 166 94T274 39Q354 39 382 94T410 241Q410 333 382 388T274 443Z" horiz-adv-x="520" unicode="b"/>
			<glyph d="M271 488Q322 488 357 472T430 414L395 382Q364 416 337 429T271 443Q186 443 143 379Q125 353 117 321T110 241Q110 192 117 160T143 103Q186 39 271 39Q309 39 336 52T395 100L430 68Q393 26 357 10T271 -6Q172 -6 115 60T59 241Q59 356 115 422T271 488Z" horiz-adv-x="473" unicode="c"/>
			<glyph d="M382 712H433V0H382V62Q352 23 318 8T239 -6Q202 -6 171 5T121 36Q59 98 59 241Q59 384 121 446Q140 465 171 476T239 488Q284 488 318 473T382 420ZM246 443Q166 443 138 388T110 241Q110 149 138 94T246 39Q326 39 354 94T382 241Q382 333 354 388T246 443Z" horiz-adv-x="520" unicode="d"/>
			<glyph d="M252 488Q343 488 394 426T445 253V230H110Q110 137 150 88T267 40Q309 40 339 53T400 98L438 68Q399 29 360 11T264 -6Q164 -6 111 57T59 241Q59 358 110 423T252 488ZM252 443Q210 443 177 421T127 362Q118 342 115 326T110 271H394Q391 310 388 326T377 362Q361 400 327 421T252 443Z" horiz-adv-x="504" unicode="e"/>
			<glyph d="M218 712H262V667H227Q153 667 153 587V482H262V444H153V0H102V444H36V482H102V586Q102 643 132 677T218 712Z" horiz-adv-x="284" unicode="f"/>
			<glyph d="M239 488Q284 488 318 473T382 420V482H433V-27Q433 -120 380 -178T236 -236Q184 -236 150 -221T77 -172L111 -138Q143 -167 168 -179T236 -191Q309 -191 345 -145T382 -24V62Q352 23 318 8T239 -6Q202 -6 171 5T121 36Q59 98 59 241Q59 384 121 446Q140 465 171 476T239 488ZM246 443Q166 443 138 388T110 241Q110 149 138 94T246 39Q326 39 354 94T382 241Q382 333 354 388T246 443Z" horiz-adv-x="520" unicode="g"/>
			<glyph d="M87 712H138V425Q192 488 280 488Q370 488 417 433Q458 386 458 308V0H407V299Q407 369 373 406T274 443Q209 443 173 406T138 299V0H87Z" horiz-adv-x="539" unicode="h"/>
			<glyph d="M113 718Q129 718 140 707T151 680Q151 664 140 653T113 642Q97 642 86 653T75 680Q75 696 86 707T113 718ZM87 482H138V0H87Z" horiz-adv-x="225" unicode="i"/>
			<glyph d="M112 718Q128 718 139 707T150 681Q150 665 139 654T113 643Q97 643 86 654T75 680Q75 696 86 707T112 718ZM87 482H138V-105Q138 -163 108 -196T22 -230H-22V-185H13Q54 -185 70 -165T87 -104Z" horiz-adv-x="225" unicode="j"/>
			<glyph d="M87 712H138V210L377 482H442L283 302L477 0H414L248 265L138 138V0H87Z" horiz-adv-x="507" unicode="k"/>
			<glyph d="M85 712H136V126Q136 83 152 64T210 45H245V0H201Q143 0 114 33T85 125Z" horiz-adv-x="267" unicode="l"/>
			<glyph d="M281 488Q335 488 374 465T436 400Q463 443 504 465T600 488Q678 488 727 442Q778 393 778 308V0H727V299Q727 369 693 406T594 443Q531 443 494 406T458 308V0H407V299Q407 369 373 406T274 443Q209 443 173 405T138 299V0H87V482H138V425Q192 488 281 488Z" horiz-adv-x="859" unicode="m"/>
			<glyph d="M280 488Q361 488 408 442Q458 394 458 308V0H407V299Q407 369 373 406T274 443Q209 443 173 405T138 299V0H87V482H138V425Q192 488 280 488Z" horiz-adv-x="539" unicode="n"/>
			<glyph d="M253 488Q334 488 387 435Q422 400 434 351T447 241Q447 179 434 130T387 47Q334 -6 253 -6Q172 -6 119 47Q84 82 71 130T59 241Q59 303 71 351T119 435Q172 488 253 488ZM253 443Q194 443 153 402Q126 375 118 335T110 241Q110 186 118 146T153 80Q194 39 253 39Q312 39 353 80Q380 107 388 146T396 241Q396 296 388 335T353 402Q312 443 253 443Z" horiz-adv-x="506" unicode="o"/>
			<glyph d="M281 488Q318 488 349 476T399 446Q461 384 461 241Q461 98 399 36Q380 17 349 5T281 -6Q236 -6 202 8T138 62V-230H87V482H138V420Q168 459 202 473T281 488ZM274 443Q194 443 166 388T138 241Q138 149 166 94T274 39Q354 39 382 94T410 241Q410 333 382 388T274 443Z" horiz-adv-x="520" unicode="p"/>
			<glyph d="M239 488Q284 488 318 473T382 420V482H433V-230H382V62Q352 23 318 8T239 -6Q202 -6 171 5T121 36Q59 98 59 241Q59 384 121 446Q140 465 171 476T239 488ZM246 443Q166 443 138 388T110 241Q110 149 138 94T246 39Q326 39 354 94T382 241Q382 333 354 388T246 443Z" horiz-adv-x="520" unicode="q"/>
			<glyph d="M279 488Q316 488 343 477T395 442L358 405Q336 427 316 435T267 443Q207 443 172 400T138 297V0H87V482H138V418Q159 451 197 469T279 488Z" horiz-adv-x="389" unicode="r"/>
			<glyph d="M234 488Q284 488 327 474T403 437L369 403Q313 444 234 444Q174 444 142 420T111 351Q111 313 134 294T209 270L287 263Q355 256 391 229T428 137Q428 71 376 32T235 -6Q172 -6 124 11T40 63L75 98Q131 39 233 39Q304 39 341 63T378 137Q378 175 356 194T286 218L206 225Q61 237 61 351Q61 414 108 451T234 488Z" horiz-adv-x="474" unicode="s"/>
			<glyph d="M99 636H150V482H259V444H150V125Q150 45 224 45H259V0H215Q160 0 129 34T99 126V444H33V482H99Z" horiz-adv-x="305" unicode="t"/>
			<glyph d="M81 482H132V183Q132 113 166 76T265 39Q330 39 365 76T401 183V482H452V0H401V57Q347 -6 259 -6Q178 -6 131 40Q81 88 81 174Z" horiz-adv-x="539" unicode="u"/>
			<glyph d="M4 482H60L205 60L350 482H406L230 0H180Z" horiz-adv-x="410" unicode="v"/>
			<glyph d="M4 482H60L185 60L320 482H372L507 60L632 482H688L533 0H481L346 425L211 0H159Z" horiz-adv-x="692" unicode="w"/>
			<glyph d="M37 482H99L221 288L341 482H403L247 246L410 0H348L221 203L92 0H30L193 246Z" horiz-adv-x="440" unicode="x"/>
			<glyph d="M4 482H60L205 60L350 482H406L178 -143Q164 -183 145 -199Q113 -230 54 -230H30V-185H49Q89 -185 106 -171T137 -119L180 0Z" horiz-adv-x="410" unicode="y"/>
			<glyph d="M60 482H388V437L100 45H388V0H44V45L332 437H60Z" horiz-adv-x="432" unicode="z"/>
			<glyph d="M247 786H261V741H248Q220 741 208 738T189 728T178 705T175 663V456Q175 417 161 394T114 356Q147 340 161 317T175 256V49Q175 21 178 6T189 -16T208 -26T248 -29H261V-74H247Q210 -74 187 -68T150 -47T129 -12T124 48V255Q124 297 106 315Q87 334 63 334H45V378H63Q87 378 106 397Q124 415 124 457V664Q124 704 129 724T150 759T187 780T247 786Z" horiz-adv-x="306" unicode="{"/>
			<glyph d="M123 786H170V-74H123Z" horiz-adv-x="293" unicode="|"/>
			<glyph d="M45 786H59Q96 786 118 780T156 759T176 724T182 664V457Q182 415 200 397Q219 378 243 378H261V334H243Q219 334 200 315Q182 297 182 255V48Q182 8 176 -12T156 -47T118 -68T59 -74H45V-29H58Q86 -29 97 -26T117 -16T128 6T131 49V256Q131 295 145 317T192 356Q159 372 145 394T131 456V663Q131 691 128 705T117 728T97 738T58 741H45Z" horiz-adv-x="306" unicode="}"/>
			<glyph d="M159 317Q178 317 197 311T235 297T261 286Q266 284 282 277T311 266T337 263Q360 263 375 271T420 308L451 277Q412 238 389 226T335 215Q316 215 296 221T258 235T233 246Q228 248 212 255T183 265T157 269Q135 269 119 261T74 224L43 255Q82 294 105 305T159 317Z" unicode="~"/>
			<glyph d="" horiz-adv-x="235" unicode=" "/>
			<glyph d="M127 485Q144 485 155 473T167 445Q167 429 155 417T127 405Q111 405 99 417T87 445Q87 462 99 473T127 485ZM105 290H149L155 -230H99Z" horiz-adv-x="284" unicode="¡"/>
			<glyph d="M239 712H282V613Q328 611 361 595T430 539L395 507Q367 539 341 552T282 568V164Q316 166 341 180T395 225L430 193Q395 153 361 137T282 119V0H239V121Q154 132 106 196T59 366Q59 471 106 535T239 611ZM239 565Q178 556 143 504Q125 478 117 446T110 366Q110 317 117 285T143 228Q178 176 239 167Z" horiz-adv-x="473" unicode="¢"/>
			<glyph d="M316 718Q411 718 472 657L435 620Q410 645 384 657T316 670Q239 670 198 624T158 491V380H316V342H158V48H472V0H104V342H40V380H104V502Q104 600 162 659T316 718Z" horiz-adv-x="517" unicode="£"/>
			<glyph d="M107 507L181 434Q242 482 318 482Q394 482 455 434L529 507L561 475L487 402Q535 341 535 265Q535 187 486 127L561 53L529 21L454 95Q392 48 318 48Q244 48 182 95L107 21L75 53L150 127Q101 187 101 265Q101 341 149 402L75 475ZM318 437Q273 437 235 414T174 352T152 265Q152 217 174 178T235 116T318 93Q363 93 401 116T461 178T484 265Q484 313 461 352T401 414T318 437Z" horiz-adv-x="637" unicode="¤"/>
			<glyph d="M0 712H58L239 352L416 712H474L309 386H419V348H290L264 295V242H419V204H264V0H210V204H55V242H210V295L183 348H55V386H164Z" horiz-adv-x="474" unicode="¥"/>
			<glyph d="M123 786H170V437H123ZM123 275H170V-74H123Z" horiz-adv-x="293" unicode="¦"/>
			<glyph d="M273 718Q346 718 396 677T451 567H398Q393 622 361 646T273 671Q215 671 183 642T151 558Q151 477 242 451L325 428Q387 410 423 361T459 247Q459 187 428 143T349 77Q397 61 424 22T452 -69Q452 -117 429 -155T365 -214T273 -236Q196 -236 145 -195T89 -81H143Q148 -134 181 -161T273 -188Q331 -188 364 -157T398 -69Q398 -29 372 1T304 43L221 66Q158 84 122 132T87 247Q87 307 118 351T197 417Q148 438 123 471T98 558Q98 607 121 643T185 698T273 718ZM273 389Q214 389 176 348Q156 327 148 303T141 247Q141 183 176 146Q214 105 273 105Q332 105 370 146Q388 165 396 189T405 247Q405 280 397 304T370 348Q329 389 273 389Z" horiz-adv-x="546" unicode="§"/>
			<glyph d="M150 676Q166 676 177 665T188 638Q188 622 177 611T150 600Q134 600 123 611T112 638Q112 654 123 665T150 676ZM356 676Q372 676 383 665T394 638Q394 622 383 611T356 600Q340 600 329 611T318 638Q318 654 329 665T356 676Z" horiz-adv-x="506" unicode="¨"/>
			<glyph d="M433 718Q531 718 614 669T745 538T794 357Q794 259 745 176T614 44T433 -4Q335 -4 252 44T120 176T72 357Q72 455 120 538T252 669T433 718ZM433 682Q345 682 271 638T154 520T111 357Q111 268 154 193T271 75T433 32Q521 32 595 75T712 193T755 357Q755 446 711 520T594 638T433 682ZM436 559Q478 559 508 544T565 498L537 473Q515 500 492 512T436 524Q371 524 339 478T307 355Q307 276 340 231T436 186Q468 186 491 198T537 237L565 213Q540 181 509 166T436 152Q355 152 312 207T269 355Q269 448 312 503T436 559Z" horiz-adv-x="866" unicode="©"/>
			<glyph d="M198 715Q272 715 309 682T346 589V327H303V363Q279 340 253 331T189 322Q146 322 120 329T77 357Q49 385 49 432Q49 485 84 514T182 543H303V585Q303 631 278 653T198 676Q158 676 135 665T94 628L62 655Q87 689 118 702T198 715ZM187 508Q92 508 92 433Q92 396 115 378T189 361Q220 361 242 366T283 389Q303 409 303 461V508Z" horiz-adv-x="427" unicode="ª"/>
			<glyph d="M228 460V394L98 264L228 134V68L32 264ZM435 460V394L305 264L435 134V68L239 264Z" horiz-adv-x="507" unicode="«"/>
			<glyph d="M43 287H451V107H404V240H43Z" unicode="¬"/>
			<glyph d="M433 718Q531 718 614 669T745 538T794 357Q794 259 745 176T614 44T433 -4Q335 -4 252 44T120 176T72 357Q72 455 120 538T252 669T433 718ZM433 682Q345 682 271 638T154 520T111 357Q111 268 154 193T271 75T433 32Q521 32 595 75T712 193T755 357Q755 446 711 520T594 638T433 682ZM302 556H476Q532 556 562 526T592 444Q592 351 499 339L595 154H552L460 334H341V154H302ZM341 522V366H469Q554 366 554 444Q554 522 469 522Z" horiz-adv-x="866" unicode="®"/>
			<glyph d="M105 656H401V610H105Z" horiz-adv-x="506" unicode="¯"/>
			<glyph d="M189 483Q223 483 252 465T299 418T317 355Q317 320 299 290T252 243T189 226Q154 226 124 243T77 290T60 355Q60 389 77 418T124 465T189 483Z" horiz-adv-x="377" unicode="°"/>
			<glyph d="M224 498H271V317H451V270H271V88H224V270H43V317H224ZM43 47H451V0H43Z" unicode="±"/>
			<glyph d="M100 719Q135 719 157 697T179 644Q179 627 172 612T151 579L56 464H171V434H19V464L128 596Q146 618 146 644Q146 663 134 676T100 689Q79 689 66 677T53 642H20Q22 677 44 698T100 719Z" horiz-adv-x="195" unicode="²"/>
			<glyph d="M91 719Q126 719 148 698T171 643Q171 597 131 581Q152 573 164 554T177 512Q177 476 152 453T91 431Q58 431 34 451T7 506H40Q42 487 56 474T91 462Q114 462 129 476T144 515Q144 539 128 552T90 565H81V595H90Q110 595 124 607T138 641Q138 664 125 676T91 688Q73 688 60 676T45 646H12Q17 680 37 699T91 719Z" horiz-adv-x="194" unicode="³"/>
			<glyph d="M325 737H392L286 590H228Z" horiz-adv-x="506" unicode="´"/>
			<glyph d="M87 482H138V183Q138 113 172 76T271 39Q336 39 371 76T407 183V482H458V0H407V57Q353 -6 265 -6Q181 -6 138 44V-230H87Z" horiz-adv-x="545" unicode="µ"/>
			<glyph d="M246 712H459V-230H408V664H285V-230H234V332Q173 332 127 359T58 430T35 522Q35 572 60 615T132 685T246 712Z" horiz-adv-x="559" unicode="¶"/>
			<glyph d="M122 310Q141 310 154 296T168 264Q168 245 154 231T122 218Q103 218 89 231T76 264Q76 283 89 296T122 310Z" horiz-adv-x="244" unicode="·"/>
			<glyph d="M214 13H256L237 -47Q317 -63 317 -122Q317 -158 291 -177T226 -197Q181 -197 140 -178L154 -139Q192 -156 224 -156Q244 -156 257 -147T270 -122Q270 -82 186 -74Z" horiz-adv-x="506" unicode="¸"/>
			<glyph d="M102 716H135V434H102V677L43 627V666Z" horiz-adv-x="205" unicode="¹"/>
			<glyph d="M216 715Q280 715 322 673Q350 645 360 607T370 519Q370 469 360 431T322 365Q280 323 216 323Q152 323 110 365Q82 393 72 431T62 519Q62 569 72 607T110 673Q152 715 216 715ZM216 676Q170 676 138 644Q117 623 111 592T105 519Q105 477 111 446T138 394Q170 362 216 362Q262 362 294 394Q315 415 321 446T327 519Q327 561 321 592T294 644Q262 676 216 676Z" horiz-adv-x="432" unicode="º"/>
			<glyph d="M72 460L268 264L72 68V134L202 264L72 394ZM279 460L475 264L279 68V134L409 264L279 394Z" horiz-adv-x="507" unicode="»"/>
			<glyph d="M150 712H194V285H150V663L70 592V643ZM547 712H592L260 0H215ZM672 427H717L564 107H696V227H740V107H792V67H740V0H696V67H518V107Z" horiz-adv-x="808" unicode="¼"/>
			<glyph d="M150 712H194V285H150V663L70 592V643ZM547 712H592L260 0H215ZM660 431Q717 431 751 401T785 321Q785 291 777 272T747 228L585 40H786V0H535V40L716 253Q730 270 736 285T742 321Q742 352 720 371T660 391Q624 391 602 373T580 315H536Q536 367 569 399T660 431Z" horiz-adv-x="815" unicode="½"/>
			<glyph d="M149 716Q206 716 241 684T276 600Q276 532 212 506Q284 482 284 403Q284 346 246 313T150 281Q93 281 55 310T15 395H59Q61 358 87 339T150 321Q189 321 214 343T240 403Q240 441 216 462T147 484H137V524H147Q188 524 210 543T232 599Q232 635 208 655T149 676Q113 676 91 657T65 606H21Q25 657 60 686T149 716ZM556 712H601L269 0H224ZM681 427H726L573 107H705V227H749V107H801V67H749V0H705V67H527V107Z" horiz-adv-x="817" unicode="¾"/>
			<glyph d="M213 485Q230 485 241 473T253 445Q253 429 241 417T213 405Q197 405 185 417T173 445Q173 462 185 473T213 485ZM187 291H238V246Q238 218 231 198T209 156L125 32Q107 5 99 -14T91 -60Q91 -116 127 -153T219 -191Q276 -191 311 -152T347 -60H398Q398 -107 375 -147T311 -212T219 -236Q169 -236 128 -213T63 -149T40 -60Q40 -28 51 0T84 59L169 184Q178 197 182 213T187 244Z" horiz-adv-x="468" unicode="¿"/>
			<glyph d="M247 712H295L557 0H499L437 173H105L43 0H-15ZM271 640L122 221H420ZM141 927H208L305 780H247Z" horiz-adv-x="582" unicode="À"/>
			<glyph d="M247 712H295L557 0H499L437 173H105L43 0H-15ZM271 640L122 221H420ZM334 927H401L295 780H237Z" horiz-adv-x="582" unicode="Á"/>
			<glyph d="M247 712H295L557 0H499L437 173H105L43 0H-15ZM271 640L122 221H420ZM244 927H298L421 780H364L271 889L178 780H121Z" horiz-adv-x="582" unicode="Â"/>
			<glyph d="M247 712H295L557 0H499L437 173H105L43 0H-15ZM271 640L122 221H420ZM208 884Q228 884 242 878T277 860Q295 849 307 844T333 839Q346 839 358 845T392 872L422 843Q391 812 371 803T333 795Q316 795 302 800T264 819Q245 830 233 835T208 840Q194 840 182 834T149 807L119 836Q150 867 169 875T208 884Z" horiz-adv-x="582" unicode="Ã"/>
			<glyph d="M247 712H295L557 0H499L437 173H105L43 0H-15ZM271 640L122 221H420ZM168 866Q184 866 195 855T206 828Q206 812 195 801T168 790Q152 790 141 801T130 828Q130 844 141 855T168 866ZM374 866Q390 866 401 855T412 828Q412 812 401 801T374 790Q358 790 347 801T336 828Q336 844 347 855T374 866Z" horiz-adv-x="582" unicode="Ä"/>
			<glyph d="M247 712H295L557 0H499L437 173H105L43 0H-15ZM271 640L122 221H420ZM271 975Q318 975 351 941T385 861Q385 814 351 780T271 747Q224 747 190 780T157 861Q157 908 190 941T271 975ZM271 934Q241 934 219 912T198 861Q198 831 219 809T271 788Q301 788 322 809T344 861Q344 891 322 912T271 934Z" horiz-adv-x="582" unicode="Å"/>
			<glyph d="M382 712H840V664H463V383H784V335H463V48H840V0H409V173H154L64 0H5ZM409 664L177 221H409Z" horiz-adv-x="886" unicode="Æ"/>
			<glyph d="M296 718Q391 718 455 662T538 510H483Q467 584 417 627T296 670Q216 670 161 615Q136 590 124 559T109 484T106 356Q106 272 109 228T124 153T161 97Q216 42 296 42Q368 42 417 85T483 202H538Q520 105 455 49T296 -6Q244 -6 199 12T123 62Q90 95 75 129T56 211T52 356Q52 452 56 500T75 583T123 650Q155 682 199 700T296 718ZM273 13H315L296 -47Q376 -63 376 -122Q376 -158 350 -177T285 -197Q240 -197 199 -178L213 -139Q251 -156 283 -156Q303 -156 316 -147T329 -122Q329 -82 245 -74Z" horiz-adv-x="624" unicode="Ç"/>
			<glyph d="M80 712H512V664H134V383H456V335H134V48H512V0H80ZM154 927H221L318 780H260Z" horiz-adv-x="578" unicode="È"/>
			<glyph d="M80 712H512V664H134V383H456V335H134V48H512V0H80ZM347 927H414L308 780H250Z" horiz-adv-x="578" unicode="É"/>
			<glyph d="M80 712H512V664H134V383H456V335H134V48H512V0H80ZM257 927H311L434 780H377L284 889L191 780H134Z" horiz-adv-x="578" unicode="Ê"/>
			<glyph d="M80 712H512V664H134V383H456V335H134V48H512V0H80ZM180 865Q196 865 207 854T218 827Q218 811 207 800T180 789Q164 789 153 800T142 827Q142 843 153 854T180 865ZM386 865Q402 865 413 854T424 827Q424 811 413 800T386 789Q370 789 359 800T348 827Q348 843 359 854T386 865Z" horiz-adv-x="578" unicode="Ë"/>
			<glyph d="M80 712H134V0H80ZM-23 927H44L141 780H83Z" horiz-adv-x="254" unicode="Ì"/>
			<glyph d="M80 712H134V0H80ZM170 927H237L131 780H73Z" horiz-adv-x="254" unicode="Í"/>
			<glyph d="M80 712H134V0H80ZM80 927H134L257 780H200L107 889L14 780H-43Z" horiz-adv-x="254" unicode="Î"/>
			<glyph d="M80 712H134V0H80ZM4 866Q20 866 31 855T42 828Q42 812 31 801T4 790Q-12 790 -23 801T-34 828Q-34 844 -23 855T4 866ZM210 866Q226 866 237 855T248 828Q248 812 237 801T210 790Q194 790 183 801T172 828Q172 844 183 855T210 866Z" horiz-adv-x="254" unicode="Ï"/>
			<glyph d="M111 712H350Q463 712 528 647Q560 615 575 569T593 474T597 356Q597 286 593 237T575 143T528 65Q463 0 350 0H111V338H30V380H111ZM165 664V380H343V338H165V48H337Q438 48 490 103Q525 140 534 200T543 356Q543 452 534 512T490 609Q438 664 337 664Z" horiz-adv-x="669" unicode="Ð"/>
			<glyph d="M80 712H134L545 94V712H599V0H545L134 618V0H80ZM277 884Q297 884 311 878T346 860Q364 849 376 844T402 839Q415 839 427 845T461 872L491 843Q460 812 440 803T402 795Q385 795 371 800T333 819Q314 830 302 835T277 840Q263 840 251 834T218 807L188 836Q219 867 238 875T277 884Z" horiz-adv-x="719" unicode="Ñ"/>
			<glyph d="M296 718Q348 718 392 700T469 650Q502 617 516 583T535 500T540 356Q540 260 535 211T516 129T469 62Q437 30 392 12T296 -6Q244 -6 199 12T123 62Q90 95 75 129T56 211T52 356Q52 452 56 500T75 583T123 650Q155 682 199 700T296 718ZM296 670Q216 670 161 615Q136 590 124 559T109 484T106 356Q106 272 109 228T124 153T161 97Q216 42 296 42Q376 42 431 97Q456 122 467 153T482 228T486 356Q486 440 482 484T467 559T431 615Q376 670 296 670ZM166 927H233L330 780H272Z" horiz-adv-x="632" unicode="Ò"/>
			<glyph d="M296 718Q348 718 392 700T469 650Q502 617 516 583T535 500T540 356Q540 260 535 211T516 129T469 62Q437 30 392 12T296 -6Q244 -6 199 12T123 62Q90 95 75 129T56 211T52 356Q52 452 56 500T75 583T123 650Q155 682 199 700T296 718ZM296 670Q216 670 161 615Q136 590 124 559T109 484T106 356Q106 272 109 228T124 153T161 97Q216 42 296 42Q376 42 431 97Q456 122 467 153T482 228T486 356Q486 440 482 484T467 559T431 615Q376 670 296 670ZM359 927H426L320 780H262Z" horiz-adv-x="632" unicode="Ó"/>
			<glyph d="M296 718Q348 718 392 700T469 650Q502 617 516 583T535 500T540 356Q540 260 535 211T516 129T469 62Q437 30 392 12T296 -6Q244 -6 199 12T123 62Q90 95 75 129T56 211T52 356Q52 452 56 500T75 583T123 650Q155 682 199 700T296 718ZM296 670Q216 670 161 615Q136 590 124 559T109 484T106 356Q106 272 109 228T124 153T161 97Q216 42 296 42Q376 42 431 97Q456 122 467 153T482 228T486 356Q486 440 482 484T467 559T431 615Q376 670 296 670ZM269 927H323L446 780H389L296 889L203 780H146Z" horiz-adv-x="632" unicode="Ô"/>
			<glyph d="M296 718Q348 718 392 700T469 650Q502 617 516 583T535 500T540 356Q540 260 535 211T516 129T469 62Q437 30 392 12T296 -6Q244 -6 199 12T123 62Q90 95 75 129T56 211T52 356Q52 452 56 500T75 583T123 650Q155 682 199 700T296 718ZM296 670Q216 670 161 615Q136 590 124 559T109 484T106 356Q106 272 109 228T124 153T161 97Q216 42 296 42Q376 42 431 97Q456 122 467 153T482 228T486 356Q486 440 482 484T467 559T431 615Q376 670 296 670ZM233 884Q253 884 267 878T302 860Q320 849 332 844T358 839Q371 839 383 845T417 872L447 843Q416 812 396 803T358 795Q341 795 327 800T289 819Q270 830 258 835T233 840Q219 840 207 834T174 807L144 836Q175 867 194 875T233 884Z" horiz-adv-x="632" unicode="Õ"/>
			<glyph d="M296 718Q348 718 392 700T469 650Q502 617 516 583T535 500T540 356Q540 260 535 211T516 129T469 62Q437 30 392 12T296 -6Q244 -6 199 12T123 62Q90 95 75 129T56 211T52 356Q52 452 56 500T75 583T123 650Q155 682 199 700T296 718ZM296 670Q216 670 161 615Q136 590 124 559T109 484T106 356Q106 272 109 228T124 153T161 97Q216 42 296 42Q376 42 431 97Q456 122 467 153T482 228T486 356Q486 440 482 484T467 559T431 615Q376 670 296 670ZM193 866Q209 866 220 855T231 828Q231 812 220 801T193 790Q177 790 166 801T155 828Q155 844 166 855T193 866ZM399 866Q415 866 426 855T437 828Q437 812 426 801T399 790Q383 790 372 801T361 828Q361 844 372 855T399 866Z" horiz-adv-x="632" unicode="Ö"/>
			<glyph d="M92 450L247 295L402 450L433 419L278 264L433 109L402 78L247 233L92 78L61 109L216 264L61 419Z" unicode="×"/>
			<glyph d="M481 756H534L485 654L489 650Q522 617 536 583T555 500T560 356Q560 260 555 211T536 129T489 62Q457 30 412 12T316 -6Q243 -6 186 29L151 -44H98L147 58L143 62Q110 95 95 129T76 211T72 356Q72 452 76 500T95 583T143 650Q175 682 219 700T316 718Q389 718 446 683ZM316 670Q236 670 181 615Q156 590 144 559T129 484T126 356Q126 242 133 192T171 108L424 637Q378 670 316 670ZM461 604L208 75Q255 42 316 42Q396 42 451 97Q476 122 487 153T502 228T506 356Q506 470 498 520T461 604Z" horiz-adv-x="632" unicode="Ø"/>
			<glyph d="M70 712H124V238Q124 149 176 95T314 42Q400 42 452 95T504 238V712H558V231Q558 162 527 108T440 24T314 -6Q243 -6 187 24T101 108T70 231ZM184 927H251L348 780H290Z" horiz-adv-x="668" unicode="Ù"/>
			<glyph d="M70 712H124V238Q124 149 176 95T314 42Q400 42 452 95T504 238V712H558V231Q558 162 527 108T440 24T314 -6Q243 -6 187 24T101 108T70 231ZM377 927H444L338 780H280Z" horiz-adv-x="668" unicode="Ú"/>
			<glyph d="M70 712H124V238Q124 149 176 95T314 42Q400 42 452 95T504 238V712H558V231Q558 162 527 108T440 24T314 -6Q243 -6 187 24T101 108T70 231ZM287 927H341L464 780H407L314 889L221 780H164Z" horiz-adv-x="668" unicode="Û"/>
			<glyph d="M70 712H124V238Q124 149 176 95T314 42Q400 42 452 95T504 238V712H558V231Q558 162 527 108T440 24T314 -6Q243 -6 187 24T101 108T70 231ZM211 866Q227 866 238 855T249 828Q249 812 238 801T211 790Q195 790 184 801T173 828Q173 844 184 855T211 866ZM417 866Q433 866 444 855T455 828Q455 812 444 801T417 790Q401 790 390 801T379 828Q379 844 390 855T417 866Z" horiz-adv-x="668" unicode="Ü"/>
			<glyph d="M-20 712H38L219 352L396 712H454L244 295V0H190V295ZM280 927H347L241 780H183Z" horiz-adv-x="474" unicode="Ý"/>
			<glyph d="M100 712H154V564H361Q423 564 472 540T548 469T576 359Q576 296 548 249T471 178T361 154H154V0H100ZM154 516V202H355Q432 202 477 241T522 359Q522 437 477 476T355 516Z" horiz-adv-x="626" unicode="Þ"/>
			<glyph d="M279 718Q359 718 410 677T462 556Q462 476 399 434Q436 415 449 387T463 310V134Q463 71 424 34Q403 16 382 8T329 0H275V45H319Q342 45 355 50T384 67Q412 89 412 140V318Q412 342 407 358T389 386Q366 409 324 409H275V454H314Q359 454 385 482T412 556Q412 609 377 641T273 673Q204 673 171 633T138 524V0H87V524Q87 615 137 666T279 718Z" horiz-adv-x="530" unicode="ß"/>
			<glyph d="M214 488Q308 488 354 447T401 330V0H350V48Q320 18 287 6T203 -6Q149 -6 116 4T61 38Q44 55 35 79T26 132Q26 198 70 234T194 271H350V325Q350 384 318 413T214 443Q164 443 134 429T81 382L44 414Q74 455 113 471T214 488ZM200 230Q77 230 77 133Q77 85 107 62T203 39Q242 39 270 46T323 76Q350 102 350 168V230ZM82 737H149L246 590H188Z" horiz-adv-x="504" unicode="à"/>
			<glyph d="M214 488Q308 488 354 447T401 330V0H350V48Q320 18 287 6T203 -6Q149 -6 116 4T61 38Q44 55 35 79T26 132Q26 198 70 234T194 271H350V325Q350 384 318 413T214 443Q164 443 134 429T81 382L44 414Q74 455 113 471T214 488ZM200 230Q77 230 77 133Q77 85 107 62T203 39Q242 39 270 46T323 76Q350 102 350 168V230ZM291 737H358L252 590H194Z" horiz-adv-x="504" unicode="á"/>
			<glyph d="M214 488Q308 488 354 447T401 330V0H350V48Q320 18 287 6T203 -6Q149 -6 116 4T61 38Q44 55 35 79T26 132Q26 198 70 234T194 271H350V325Q350 384 318 413T214 443Q164 443 134 429T81 382L44 414Q74 455 113 471T214 488ZM200 230Q77 230 77 133Q77 85 107 62T203 39Q242 39 270 46T323 76Q350 102 350 168V230ZM192 737H246L369 590H312L219 699L126 590H69Z" horiz-adv-x="504" unicode="â"/>
			<glyph d="M214 488Q308 488 354 447T401 330V0H350V48Q320 18 287 6T203 -6Q149 -6 116 4T61 38Q44 55 35 79T26 132Q26 198 70 234T194 271H350V325Q350 384 318 413T214 443Q164 443 134 429T81 382L44 414Q74 455 113 471T214 488ZM200 230Q77 230 77 133Q77 85 107 62T203 39Q242 39 270 46T323 76Q350 102 350 168V230ZM157 694Q177 694 191 688T226 670Q244 659 256 654T282 649Q295 649 307 655T341 682L371 653Q340 622 320 613T282 605Q265 605 251 610T213 629Q194 640 182 645T157 650Q143 650 131 644T98 617L68 646Q99 677 118 685T157 694Z" horiz-adv-x="504" unicode="ã"/>
			<glyph d="M214 488Q308 488 354 447T401 330V0H350V48Q320 18 287 6T203 -6Q149 -6 116 4T61 38Q44 55 35 79T26 132Q26 198 70 234T194 271H350V325Q350 384 318 413T214 443Q164 443 134 429T81 382L44 414Q74 455 113 471T214 488ZM200 230Q77 230 77 133Q77 85 107 62T203 39Q242 39 270 46T323 76Q350 102 350 168V230ZM116 676Q132 676 143 665T154 638Q154 622 143 611T116 600Q100 600 89 611T78 638Q78 654 89 665T116 676ZM322 676Q338 676 349 665T360 638Q360 622 349 611T322 600Q306 600 295 611T284 638Q284 654 295 665T322 676Z" horiz-adv-x="504" unicode="ä"/>
			<glyph d="M214 488Q308 488 354 447T401 330V0H350V48Q320 18 287 6T203 -6Q149 -6 116 4T61 38Q44 55 35 79T26 132Q26 198 70 234T194 271H350V325Q350 384 318 413T214 443Q164 443 134 429T81 382L44 414Q74 455 113 471T214 488ZM200 230Q77 230 77 133Q77 85 107 62T203 39Q242 39 270 46T323 76Q350 102 350 168V230ZM219 790Q266 790 299 756T333 676Q333 629 299 595T219 562Q172 562 138 595T105 676Q105 723 138 756T219 790ZM219 749Q189 749 167 727T146 676Q146 646 167 624T219 603Q249 603 270 624T292 676Q292 706 270 727T219 749Z" horiz-adv-x="504" unicode="å"/>
			<glyph d="M234 488Q370 488 407 403Q432 445 471 466T563 488Q654 488 705 426T756 253V230H421Q421 137 461 88T578 40Q620 40 650 53T711 98L749 68Q710 29 671 11T574 -6Q452 -6 402 84Q372 35 331 14T223 -6Q169 -6 136 4T81 38Q64 55 55 79T46 132Q46 198 90 234T214 271H370V325Q370 384 338 413T234 443Q184 443 154 429T101 382L64 414Q94 455 133 471T234 488ZM563 443Q520 443 486 421T438 362Q429 339 426 323T421 271H705Q702 310 699 326T688 362Q672 400 638 421T563 443ZM220 230Q97 230 97 133Q97 85 127 62T223 39Q262 39 290 46T343 76Q370 102 370 168V230Z" horiz-adv-x="815" unicode="æ"/>
			<glyph d="M251 488Q302 488 337 472T410 414L375 382Q344 416 317 429T251 443Q166 443 123 379Q105 353 97 321T90 241Q90 192 97 160T123 103Q166 39 251 39Q289 39 316 52T375 100L410 68Q373 26 337 10T251 -6Q152 -6 95 60T39 241Q39 356 95 422T251 488ZM219 13H261L242 -47Q322 -63 322 -122Q322 -158 296 -177T231 -197Q186 -197 145 -178L159 -139Q197 -156 229 -156Q249 -156 262 -147T275 -122Q275 -82 191 -74Z" horiz-adv-x="473" unicode="ç"/>
			<glyph d="M232 488Q323 488 374 426T425 253V230H90Q90 137 130 88T247 40Q289 40 319 53T380 98L418 68Q379 29 340 11T244 -6Q144 -6 91 57T39 241Q39 358 90 423T232 488ZM232 443Q190 443 157 421T107 362Q98 342 95 326T90 271H374Q371 310 368 326T357 362Q341 400 307 421T232 443ZM96 737H163L260 590H202Z" horiz-adv-x="504" unicode="è"/>
			<glyph d="M232 488Q323 488 374 426T425 253V230H90Q90 137 130 88T247 40Q289 40 319 53T380 98L418 68Q379 29 340 11T244 -6Q144 -6 91 57T39 241Q39 358 90 423T232 488ZM232 443Q190 443 157 421T107 362Q98 342 95 326T90 271H374Q371 310 368 326T357 362Q341 400 307 421T232 443ZM305 737H372L266 590H208Z" horiz-adv-x="504" unicode="é"/>
			<glyph d="M232 488Q323 488 374 426T425 253V230H90Q90 137 130 88T247 40Q289 40 319 53T380 98L418 68Q379 29 340 11T244 -6Q144 -6 91 57T39 241Q39 358 90 423T232 488ZM232 443Q190 443 157 421T107 362Q98 342 95 326T90 271H374Q371 310 368 326T357 362Q341 400 307 421T232 443ZM206 737H260L383 590H326L233 699L140 590H83Z" horiz-adv-x="504" unicode="ê"/>
			<glyph d="M232 488Q323 488 374 426T425 253V230H90Q90 137 130 88T247 40Q289 40 319 53T380 98L418 68Q379 29 340 11T244 -6Q144 -6 91 57T39 241Q39 358 90 423T232 488ZM232 443Q190 443 157 421T107 362Q98 342 95 326T90 271H374Q371 310 368 326T357 362Q341 400 307 421T232 443ZM130 676Q146 676 157 665T168 638Q168 622 157 611T130 600Q114 600 103 611T92 638Q92 654 103 665T130 676ZM336 676Q352 676 363 665T374 638Q374 622 363 611T336 600Q320 600 309 611T298 638Q298 654 309 665T336 676Z" horiz-adv-x="504" unicode="ë"/>
			<glyph d="M67 482H118V0H67ZM-45 737H22L119 590H61Z" horiz-adv-x="225" unicode="ì"/>
			<glyph d="M67 482H118V0H67ZM164 737H231L125 590H67Z" horiz-adv-x="225" unicode="í"/>
			<glyph d="M67 482H118V0H67ZM65 737H119L242 590H185L92 699L-1 590H-58Z" horiz-adv-x="225" unicode="î"/>
			<glyph d="M67 482H118V0H67ZM-11 676Q5 676 16 665T27 638Q27 622 16 611T-11 600Q-27 600 -38 611T-49 638Q-49 654 -38 665T-11 676ZM195 676Q211 676 222 665T233 638Q233 622 222 611T195 600Q179 600 168 611T157 638Q157 654 168 665T195 676Z" horiz-adv-x="225" unicode="ï"/>
			<glyph d="M186 712H239L291 622H370V584H313L385 461Q424 393 435 350T447 241Q447 179 434 130T387 47Q334 -6 253 -6Q172 -6 119 47Q84 82 71 130T59 241Q59 303 71 351T119 435Q172 488 253 488Q300 488 328 471L261 584H144V622H239ZM253 443Q194 443 153 402Q126 375 118 335T110 241Q110 186 118 146T153 80Q194 39 253 39Q312 39 353 80Q380 107 388 146T396 241Q396 296 388 335T353 402Q312 443 253 443Z" horiz-adv-x="506" unicode="ð"/>
			<glyph d="M260 488Q341 488 388 442Q438 394 438 308V0H387V299Q387 369 353 406T254 443Q189 443 153 405T118 299V0H67V482H118V425Q172 488 260 488ZM191 694Q211 694 225 688T260 670Q278 659 290 654T316 649Q329 649 341 655T375 682L405 653Q374 622 354 613T316 605Q299 605 285 610T247 629Q228 640 216 645T191 650Q177 650 165 644T132 617L102 646Q133 677 152 685T191 694Z" horiz-adv-x="539" unicode="ñ"/>
			<glyph d="M233 488Q314 488 367 435Q402 400 414 351T427 241Q427 179 414 130T367 47Q314 -6 233 -6Q152 -6 99 47Q64 82 51 130T39 241Q39 303 51 351T99 435Q152 488 233 488ZM233 443Q174 443 133 402Q106 375 98 335T90 241Q90 186 98 146T133 80Q174 39 233 39Q292 39 333 80Q360 107 368 146T376 241Q376 296 368 335T333 402Q292 443 233 443ZM96 737H163L260 590H202Z" horiz-adv-x="506" unicode="ò"/>
			<glyph d="M233 488Q314 488 367 435Q402 400 414 351T427 241Q427 179 414 130T367 47Q314 -6 233 -6Q152 -6 99 47Q64 82 51 130T39 241Q39 303 51 351T99 435Q152 488 233 488ZM233 443Q174 443 133 402Q106 375 98 335T90 241Q90 186 98 146T133 80Q174 39 233 39Q292 39 333 80Q360 107 368 146T376 241Q376 296 368 335T333 402Q292 443 233 443ZM305 737H372L266 590H208Z" horiz-adv-x="506" unicode="ó"/>
			<glyph d="M233 488Q314 488 367 435Q402 400 414 351T427 241Q427 179 414 130T367 47Q314 -6 233 -6Q152 -6 99 47Q64 82 51 130T39 241Q39 303 51 351T99 435Q152 488 233 488ZM233 443Q174 443 133 402Q106 375 98 335T90 241Q90 186 98 146T133 80Q174 39 233 39Q292 39 333 80Q360 107 368 146T376 241Q376 296 368 335T333 402Q292 443 233 443ZM206 737H260L383 590H326L233 699L140 590H83Z" horiz-adv-x="506" unicode="ô"/>
			<glyph d="M233 488Q314 488 367 435Q402 400 414 351T427 241Q427 179 414 130T367 47Q314 -6 233 -6Q152 -6 99 47Q64 82 51 130T39 241Q39 303 51 351T99 435Q152 488 233 488ZM233 443Q174 443 133 402Q106 375 98 335T90 241Q90 186 98 146T133 80Q174 39 233 39Q292 39 333 80Q360 107 368 146T376 241Q376 296 368 335T333 402Q292 443 233 443ZM171 694Q191 694 205 688T240 670Q258 659 270 654T296 649Q309 649 321 655T355 682L385 653Q354 622 334 613T296 605Q279 605 265 610T227 629Q208 640 196 645T171 650Q157 650 145 644T112 617L82 646Q113 677 132 685T171 694Z" horiz-adv-x="506" unicode="õ"/>
			<glyph d="M233 488Q314 488 367 435Q402 400 414 351T427 241Q427 179 414 130T367 47Q314 -6 233 -6Q152 -6 99 47Q64 82 51 130T39 241Q39 303 51 351T99 435Q152 488 233 488ZM233 443Q174 443 133 402Q106 375 98 335T90 241Q90 186 98 146T133 80Q174 39 233 39Q292 39 333 80Q360 107 368 146T376 241Q376 296 368 335T333 402Q292 443 233 443ZM130 676Q146 676 157 665T168 638Q168 622 157 611T130 600Q114 600 103 611T92 638Q92 654 103 665T130 676ZM336 676Q352 676 363 665T374 638Q374 622 363 611T336 600Q320 600 309 611T298 638Q298 654 309 665T336 676Z" horiz-adv-x="506" unicode="ö"/>
			<glyph d="M248 474Q265 474 277 462T289 433Q289 416 277 403T248 391Q231 391 218 403T206 433Q206 450 218 462T248 474ZM43 287H451V240H43ZM248 137Q265 137 277 125T289 96Q289 79 277 66T248 54Q231 54 218 66T206 96Q206 113 218 125T248 137Z" unicode="÷"/>
			<glyph d="M398 526H446L390 432Q423 397 435 349T447 241Q447 179 434 130T387 47Q334 -6 253 -6Q193 -6 148 24L108 -44H60L116 50Q83 85 71 133T59 241Q59 303 71 351T119 435Q172 488 253 488Q313 488 358 458ZM253 443Q194 443 153 402Q126 375 118 335T110 241Q110 192 116 156T142 93L334 418Q300 443 253 443ZM364 389L172 64Q206 39 253 39Q312 39 353 80Q380 107 388 146T396 241Q396 289 390 325T364 389Z" horiz-adv-x="506" unicode="ø"/>
			<glyph d="M61 482H112V183Q112 113 146 76T245 39Q310 39 345 76T381 183V482H432V0H381V57Q327 -6 239 -6Q158 -6 111 40Q61 88 61 174ZM109 737H176L273 590H215Z" horiz-adv-x="539" unicode="ù"/>
			<glyph d="M61 482H112V183Q112 113 146 76T245 39Q310 39 345 76T381 183V482H432V0H381V57Q327 -6 239 -6Q158 -6 111 40Q61 88 61 174ZM318 737H385L279 590H221Z" horiz-adv-x="539" unicode="ú"/>
			<glyph d="M61 482H112V183Q112 113 146 76T245 39Q310 39 345 76T381 183V482H432V0H381V57Q327 -6 239 -6Q158 -6 111 40Q61 88 61 174ZM219 737H273L396 590H339L246 699L153 590H96Z" horiz-adv-x="539" unicode="û"/>
			<glyph d="M61 482H112V183Q112 113 146 76T245 39Q310 39 345 76T381 183V482H432V0H381V57Q327 -6 239 -6Q158 -6 111 40Q61 88 61 174ZM143 676Q159 676 170 665T181 638Q181 622 170 611T143 600Q127 600 116 611T105 638Q105 654 116 665T143 676ZM349 676Q365 676 376 665T387 638Q387 622 376 611T349 600Q333 600 322 611T311 638Q311 654 322 665T349 676Z" horiz-adv-x="539" unicode="ü"/>
			<glyph d="M-16 482H40L185 60L330 482H386L158 -143Q144 -183 125 -199Q93 -230 34 -230H10V-185H29Q69 -185 86 -171T117 -119L160 0ZM257 737H324L218 590H160Z" horiz-adv-x="410" unicode="ý"/>
			<glyph d="M87 712H138V420Q168 459 202 473T281 488Q318 488 349 476T399 446Q461 384 461 241Q461 98 399 36Q380 17 349 5T281 -6Q236 -6 202 8T138 62V-230H87ZM274 443Q194 443 166 388T138 241Q138 149 166 94T274 39Q354 39 382 94T410 241Q410 333 382 388T274 443Z" horiz-adv-x="520" unicode="þ"/>
			<glyph d="M-16 482H40L185 60L330 482H386L158 -143Q144 -183 125 -199Q93 -230 34 -230H10V-185H29Q69 -185 86 -171T117 -119L160 0ZM82 676Q98 676 109 665T120 638Q120 622 109 611T82 600Q66 600 55 611T44 638Q44 654 55 665T82 676ZM288 676Q304 676 315 665T326 638Q326 622 315 611T288 600Q272 600 261 611T250 638Q250 654 261 665T288 676Z" horiz-adv-x="410" unicode="ÿ"/>
			<glyph d="M247 712H295L557 0H499L437 173H105L43 0H-15ZM271 640L122 221H420ZM505 0H552Q464 -63 464 -118Q464 -136 474 -146T503 -156Q526 -156 550 -128L580 -152Q564 -174 542 -186T497 -198Q461 -198 439 -177T417 -125Q417 -92 439 -60T505 0Z" horiz-adv-x="582" unicode="Ą"/>
			<glyph d="M214 488Q308 488 354 447T401 330V0H350V48Q320 18 287 6T203 -6Q149 -6 116 4T61 38Q44 55 35 79T26 132Q26 198 70 234T194 271H350V325Q350 384 318 413T214 443Q164 443 134 429T81 382L44 414Q74 455 113 471T214 488ZM200 230Q77 230 77 133Q77 85 107 62T203 39Q242 39 270 46T323 76Q350 102 350 168V230ZM354 0H401Q313 -63 313 -118Q313 -136 323 -146T352 -156Q375 -156 399 -128L429 -152Q413 -174 391 -186T346 -198Q310 -198 288 -177T266 -125Q266 -92 288 -60T354 0Z" horiz-adv-x="504" unicode="ą"/>
			<glyph d="M296 718Q391 718 455 662T538 510H483Q467 584 417 627T296 670Q216 670 161 615Q136 590 124 559T109 484T106 356Q106 272 109 228T124 153T161 97Q216 42 296 42Q368 42 417 85T483 202H538Q520 105 455 49T296 -6Q244 -6 199 12T123 62Q90 95 75 129T56 211T52 356Q52 452 56 500T75 583T123 650Q155 682 199 700T296 718ZM359 927H426L320 780H262Z" horiz-adv-x="624" unicode="Ć"/>
			<glyph d="M251 488Q302 488 337 472T410 414L375 382Q344 416 317 429T251 443Q166 443 123 379Q105 353 97 321T90 241Q90 192 97 160T123 103Q166 39 251 39Q289 39 316 52T375 100L410 68Q373 26 337 10T251 -6Q152 -6 95 60T39 241Q39 356 95 422T251 488ZM305 737H372L266 590H208Z" horiz-adv-x="473" unicode="ć"/>
			<glyph d="M80 712H512V664H134V383H456V335H134V48H512V0H80ZM446 0H493Q405 -63 405 -118Q405 -136 415 -146T444 -156Q467 -156 491 -128L521 -152Q505 -174 483 -186T438 -198Q402 -198 380 -177T358 -125Q358 -92 380 -60T446 0Z" horiz-adv-x="578" unicode="Ę"/>
			<glyph d="M252 488Q343 488 394 426T445 253V230H110Q110 137 150 88T267 40Q309 40 339 53T400 98L438 68L422 53L406 38Q347 -17 321 -49T296 -118Q296 -136 306 -146T335 -156Q358 -156 382 -128L412 -152Q379 -198 328 -198Q292 -198 270 -177T249 -125Q249 -94 265 -64T313 -2Q293 -6 264 -6Q164 -6 111 57T59 241Q59 358 110 423T252 488ZM252 443Q210 443 177 421T127 362Q118 342 115 326T110 271H394Q391 310 388 326T377 362Q361 400 327 421T252 443Z" horiz-adv-x="504" unicode="ę"/>
			<glyph d="M87 482H138V0H87Z" horiz-adv-x="225" unicode="ı"/>
			<glyph d="M106 712H160V388L324 492V444L160 340V48H538V0H106V306L30 258V306L106 354Z" horiz-adv-x="558" unicode="Ł"/>
			<glyph d="M96 712H147V433L235 488V443L147 388V126Q147 83 163 64T221 45H256V0H212Q154 0 125 33T96 125V356L30 315V360L96 401Z" horiz-adv-x="278" unicode="ł"/>
			<glyph d="M80 712H134L545 94V712H599V0H545L134 618V0H80ZM403 927H470L364 780H306Z" horiz-adv-x="719" unicode="Ń"/>
			<glyph d="M260 488Q341 488 388 442Q438 394 438 308V0H387V299Q387 369 353 406T254 443Q189 443 153 405T118 299V0H67V482H118V425Q172 488 260 488ZM325 737H392L286 590H228Z" horiz-adv-x="539" unicode="ń"/>
			<glyph d="M316 718Q433 718 506 627V712H938V664H560V383H882V335H560V48H938V0H506V85Q470 41 421 17T316 -6Q264 -6 219 12T143 62Q110 95 95 129T76 211T72 356Q72 452 76 500T95 583T143 650Q175 682 219 700T316 718ZM316 670Q236 670 181 615Q156 590 144 559T129 484T126 356Q126 272 129 228T144 153T181 97Q236 42 316 42Q396 42 451 97Q476 122 487 153T502 228T506 356Q506 440 502 484T487 559T451 615Q396 670 316 670Z" horiz-adv-x="984" unicode="Œ"/>
			<glyph d="M253 488Q334 488 387 435Q409 413 423 383Q446 434 488 461T589 488Q680 488 731 426T782 253V230H447Q447 137 487 88T604 40Q646 40 676 53T737 98L775 68Q736 29 697 11T601 -6Q472 -6 423 99Q409 69 387 47Q334 -6 253 -6Q172 -6 119 47Q84 82 71 130T59 241Q59 303 71 351T119 435Q172 488 253 488ZM253 443Q194 443 153 402Q126 375 118 335T110 241Q110 186 118 146T153 80Q194 39 253 39Q312 39 353 80Q380 107 388 146T396 241Q396 296 388 335T353 402Q312 443 253 443ZM589 443Q547 443 514 421T464 362Q455 342 452 326T447 271H731Q728 310 725 326T714 362Q698 400 664 421T589 443Z" horiz-adv-x="841" unicode="œ"/>
			<glyph d="M257 718Q321 718 368 700T462 641L427 606Q393 639 353 655T254 672Q176 672 132 633T89 525Q89 461 125 431Q162 400 227 390L310 377Q359 370 385 359T437 328Q498 275 498 191Q498 101 433 47T258 -6Q180 -6 125 16T21 88L59 126Q106 79 151 60T261 42Q346 42 395 81T444 189Q444 256 405 289Q387 305 366 312T302 327L219 340Q137 352 92 391Q36 438 36 523Q36 613 95 665T257 718ZM324 927H391L285 780H227Z" horiz-adv-x="567" unicode="Ś"/>
			<glyph d="M214 488Q264 488 307 474T383 437L349 403Q293 444 214 444Q154 444 122 420T91 351Q91 313 114 294T189 270L267 263Q335 256 371 229T408 137Q408 71 356 32T215 -6Q152 -6 104 11T20 63L55 98Q111 39 213 39Q284 39 321 63T358 137Q358 175 336 194T266 218L186 225Q41 237 41 351Q41 414 88 451T214 488ZM286 737H353L247 590H189Z" horiz-adv-x="474" unicode="ś"/>
			<glyph d="M257 718Q321 718 368 700T462 641L427 606Q393 639 353 655T254 672Q176 672 132 633T89 525Q89 461 125 431Q162 400 227 390L310 377Q359 370 385 359T437 328Q498 275 498 191Q498 101 433 47T258 -6Q180 -6 125 16T21 88L59 126Q106 79 151 60T261 42Q346 42 395 81T444 189Q444 256 405 289Q387 305 366 312T302 327L219 340Q137 352 92 391Q36 438 36 523Q36 613 95 665T257 718ZM111 927H168L261 818L354 927H411L288 780H234Z" horiz-adv-x="567" unicode="Š"/>
			<glyph d="M214 488Q264 488 307 474T383 437L349 403Q293 444 214 444Q154 444 122 420T91 351Q91 313 114 294T189 270L267 263Q335 256 371 229T408 137Q408 71 356 32T215 -6Q152 -6 104 11T20 63L55 98Q111 39 213 39Q284 39 321 63T358 137Q358 175 336 194T266 218L186 225Q41 237 41 351Q41 414 88 451T214 488ZM64 737H121L214 628L307 737H364L241 590H187Z" horiz-adv-x="474" unicode="š"/>
			<glyph d="M-20 712H38L219 352L396 712H454L244 295V0H190V295ZM114 866Q130 866 141 855T152 828Q152 812 141 801T114 790Q98 790 87 801T76 828Q76 844 87 855T114 866ZM320 866Q336 866 347 855T358 828Q358 812 347 801T320 790Q304 790 293 801T282 828Q282 844 293 855T320 866Z" horiz-adv-x="474" unicode="Ÿ"/>
			<glyph d="M48 712H466V664L91 48H466V0H33V48L408 664H48ZM312 927H379L273 780H215Z" horiz-adv-x="539" unicode="Ź"/>
			<glyph d="M40 482H368V437L80 45H368V0H24V45L312 437H40ZM268 737H335L229 590H171Z" horiz-adv-x="432" unicode="ź"/>
			<glyph d="M48 712H466V664L91 48H466V0H33V48L408 664H48ZM250 867Q266 867 277 856T288 829Q288 813 277 802T250 791Q234 791 223 802T212 829Q212 845 223 856T250 867Z" horiz-adv-x="539" unicode="Ż"/>
			<glyph d="M40 482H368V437L80 45H368V0H24V45L312 437H40ZM196 687Q212 687 223 676T234 649Q234 633 223 622T196 611Q180 611 169 622T158 649Q158 665 169 676T196 687Z" horiz-adv-x="432" unicode="ż"/>
			<glyph d="M48 712H466V664L91 48H466V0H33V48L408 664H48ZM99 927H156L249 818L342 927H399L276 780H222Z" horiz-adv-x="539" unicode="Ž"/>
			<glyph d="M40 482H368V437L80 45H368V0H24V45L312 437H40ZM46 737H103L196 628L289 737H346L223 590H169Z" horiz-adv-x="432" unicode="ž"/>
			<glyph d="M310 712H354V667H311Q237 667 223 587L187 380H296V342H180L79 -230H28L129 342H63V380H136L172 586Q182 643 218 677T310 712Z" horiz-adv-x="374" unicode="ƒ"/>
			<glyph d="M226 737H280L403 590H346L253 699L160 590H103Z" horiz-adv-x="506" unicode="ˆ"/>
			<glyph d="M103 737H160L253 628L346 737H403L280 590H226Z" horiz-adv-x="506" unicode="ˇ"/>
			<glyph d="M88 722H133Q139 680 170 656T253 632Q304 632 335 656T373 722H418Q411 656 371 621T253 587Q174 587 134 621T88 722Z" horiz-adv-x="506" unicode="˘"/>
			<glyph d="M253 687Q269 687 280 676T291 649Q291 633 280 622T253 611Q237 611 226 622T215 649Q215 665 226 676T253 687Z" horiz-adv-x="506" unicode="˙"/>
			<glyph d="M253 790Q300 790 333 756T367 676Q367 629 333 595T253 562Q206 562 172 595T139 676Q139 723 172 756T253 790ZM253 749Q223 749 201 727T180 676Q180 646 201 624T253 603Q283 603 304 624T326 676Q326 706 304 727T253 749Z" horiz-adv-x="506" unicode="˚"/>
			<glyph d="M275 0H322Q234 -63 234 -118Q234 -136 244 -146T273 -156Q296 -156 320 -128L350 -152Q334 -174 312 -186T267 -198Q231 -198 209 -177T187 -125Q187 -92 209 -60T275 0Z" horiz-adv-x="506" unicode="˛"/>
			<glyph d="M191 694Q211 694 225 688T260 670Q278 659 290 654T316 649Q329 649 341 655T375 682L405 653Q374 622 354 613T316 605Q299 605 285 610T247 629Q228 640 216 645T191 650Q177 650 165 644T132 617L102 646Q133 677 152 685T191 694Z" horiz-adv-x="506" unicode="˜"/>
			<glyph d="M230 737H297L191 590H133ZM403 737H470L363 590H306Z" horiz-adv-x="506" unicode="˝"/>
			<glyph d="M-91 737H-24L73 590H15Z" horiz-adv-x="0" unicode="̀"/>
			<glyph d="M6 737H73L-33 590H-91Z" horiz-adv-x="0" unicode="́"/>
			<glyph d="M-72 694Q-52 694 -38 688T-3 670Q15 659 27 654T53 649Q66 649 78 655T112 682L142 653Q111 622 91 613T53 605Q36 605 22 610T-16 629Q-35 640 -47 645T-72 650Q-86 650 -98 644T-131 617L-161 646Q-130 677 -110 685T-72 694Z" horiz-adv-x="0" unicode="̃"/>
			<glyph d="M72 287H480V240H72Z" horiz-adv-x="552" unicode="–"/>
			<glyph d="M72 287H781V240H72Z" horiz-adv-x="853" unicode="—"/>
			<glyph d="M115 712H156L122 610Q141 608 153 595T166 564Q166 545 152 531T120 518Q101 518 87 531T74 566Q74 579 79 597T93 643Z" horiz-adv-x="240" unicode="‘"/>
			<glyph d="M120 718Q139 718 152 704T166 670Q166 657 161 639T147 593L125 524H84L118 626Q99 628 86 641T74 672Q74 691 87 704T120 718Z" horiz-adv-x="240" unicode="’"/>
			<glyph d="M102 89Q121 89 134 75T148 41Q148 28 143 10T129 -36L107 -105H66L100 -3Q81 -1 68 12T56 43Q56 62 69 75T102 89Z" horiz-adv-x="238" unicode="‚"/>
			<glyph d="M95 712H136L102 610Q121 608 133 595T146 564Q146 545 132 531T100 518Q81 518 67 531T54 566Q54 579 59 597T73 643ZM245 712H286L252 610Q271 608 283 595T296 564Q296 545 282 531T250 518Q231 518 217 531T204 566Q204 579 209 597T223 643Z" horiz-adv-x="390" unicode="“"/>
			<glyph d="M100 718Q119 718 132 704T146 670Q146 657 141 639T127 593L105 524H64L98 626Q79 628 66 641T54 672Q54 691 67 704T100 718ZM250 718Q269 718 282 704T296 670Q296 657 291 639T277 593L255 524H214L248 626Q229 628 216 641T204 672Q204 691 217 704T250 718Z" horiz-adv-x="390" unicode="”"/>
			<glyph d="M102 89Q121 89 134 75T148 41Q148 28 143 10T129 -36L107 -105H66L100 -3Q81 -1 68 12T56 43Q56 62 69 75T102 89ZM252 89Q271 89 284 75T298 41Q298 28 293 10T279 -36L257 -105H216L250 -3Q231 -1 218 12T206 43Q206 62 219 75T252 89Z" horiz-adv-x="388" unicode="„"/>
			<glyph d="M270 712H321V502H524V457H321V0H270V457H67V502H270Z" horiz-adv-x="591" unicode="†"/>
			<glyph d="M270 712H321V502H524V457H321V25H524V-20H321V-230H270V-20H67V25H270V457H67V502H270Z" horiz-adv-x="591" unicode="‡"/>
			<glyph d="M263 428Q307 428 344 406T404 346T426 265Q426 221 404 183T344 124T263 102Q219 102 181 124T122 183T100 265Q100 309 122 346T181 406T263 428Z" horiz-adv-x="526" unicode="•"/>
			<glyph d="M131 89Q150 89 163 75T177 43Q177 24 163 10T131 -3Q112 -3 98 10T85 43Q85 62 98 75T131 89ZM361 89Q380 89 393 75T407 43Q407 24 393 10T361 -3Q342 -3 328 10T315 43Q315 62 328 75T361 89ZM591 89Q610 89 623 75T637 43Q637 24 623 10T591 -3Q572 -3 558 10T545 43Q545 62 558 75T591 89Z" horiz-adv-x="722" unicode="…"/>
			<glyph d="M190 718Q247 718 284 681T321 584V478Q321 417 284 380T190 344Q133 344 96 380T59 478V584Q59 645 96 681T190 718ZM548 712H593L261 0H216ZM190 678Q149 678 126 651T103 577V485Q103 437 126 410T190 384Q231 384 254 410T277 485V577Q277 625 254 651T190 678ZM618 368Q675 368 712 331T749 234V128Q749 67 712 30T618 -6Q561 -6 524 30T487 128V234Q487 295 524 331T618 368ZM958 368Q1017 368 1053 331T1089 234V127Q1089 67 1053 30T958 -6Q899 -6 862 30T826 127V234Q826 294 862 331T958 368ZM958 330Q870 330 870 232V129Q870 32 958 32Q1045 32 1045 129V232Q1045 330 958 330ZM618 328Q577 328 554 301T531 227V135Q531 87 554 60T618 34Q659 34 682 60T705 135V227Q705 275 682 301T618 328Z" horiz-adv-x="1148" unicode="‰"/>
			<glyph d="M228 460V394L98 264L228 134V68L32 264Z" horiz-adv-x="300" unicode="‹"/>
			<glyph d="M72 460L268 264L72 68V134L202 264L72 394Z" horiz-adv-x="300" unicode="›"/>
			<glyph d="M222 712H267L-65 0H-110Z" horiz-adv-x="157" unicode="⁄"/>
			<glyph d="M348 718Q443 718 507 662T590 510H535Q519 584 469 627T348 670Q268 670 213 615Q185 587 173 551T159 450H403V412H159V306H403V268H159Q161 200 172 162T213 97Q268 42 348 42Q420 42 469 85T535 202H590Q572 105 507 49T348 -6Q296 -6 251 12T175 62Q136 101 121 144T105 268H40V306H104V412H40V450H105Q107 527 121 569T175 650Q207 682 251 700T348 718Z" horiz-adv-x="656" unicode="€"/>
			<glyph d="M22 712H308V678H184V286H146V678H22ZM405 712H443L591 383L736 712H774V286H736V632L610 346H572L443 632V286H405Z" horiz-adv-x="820" unicode="™"/>
			<glyph d="M219 719Q262 719 298 698T355 641T376 562Q376 519 355 483T298 426T219 405Q176 405 140 426T83 483T62 562Q62 605 83 641T140 698T219 719ZM218 677Q170 677 138 644T107 562Q107 512 139 479T219 447Q267 447 299 479T331 562Q331 610 298 643T218 677Z" horiz-adv-x="438" unicode="∂"/>
			<glyph d="M171 718Q210 718 239 707T298 670L273 644Q251 665 227 675T169 685Q123 685 98 662T73 599Q73 566 92 548T153 524L204 516Q319 498 319 404Q319 348 279 315T171 282Q125 282 91 295T24 341L52 369Q80 340 107 328T173 317Q223 317 251 340T280 403Q280 441 260 457T198 480L148 488Q92 497 63 522T35 598Q35 654 71 686T171 718ZM405 712H443L591 383L736 712H774V286H736V632L610 346H572L443 632V286H405Z" horiz-adv-x="820" unicode="∑"/>
			<glyph d="M43 287H451V240H43Z" unicode="−"/>
			<glyph d="M40 712H752V0H40ZM235 548V455L471 354L235 251V157L575 315V391Z" horiz-adv-x="792" unicode="∞"/>
			<glyph d="M80 962H1055Q1078 962 1086 953T1095 922V-92Q1095 -115 1086 -123T1055 -132H80Q58 -132 49 -123T40 -92V922Q40 945 49 953T80 962ZM73 929V-99H1062V929ZM566 894Q778 894 904 835Q964 807 988 771T1013 675Q1013 623 997 591T951 560Q940 560 924 568L721 655Q712 660 712 670Q712 679 723 699Q735 723 735 732Q735 757 692 766T566 775Q487 775 444 766T401 732Q401 722 414 694Q423 674 423 670Q423 661 412 655L209 568Q191 560 181 560Q151 560 137 591T123 675Q123 734 151 772T238 835Q375 894 566 894ZM153 511H230Q251 511 251 490V414Q251 394 230 394H153Q133 394 133 414V490Q133 511 153 511ZM341 511H418Q439 511 439 490V414Q439 394 418 394H341Q321 394 321 414V490Q321 511 341 511ZM529 511H606Q627 511 627 490V414Q627 394 606 394H529Q509 394 509 414V490Q509 511 529 511ZM717 511H794Q815 511 815 490V414Q815 394 794 394H717Q697 394 697 414V490Q697 511 717 511ZM905 511H982Q1003 511 1003 490V414Q1003 394 982 394H905Q885 394 885 414V490Q885 511 905 511ZM247 361H324Q345 361 345 340V264Q345 244 324 244H247Q227 244 227 264V340Q227 361 247 361ZM435 361H512Q533 361 533 340V264Q533 244 512 244H435Q415 244 415 264V340Q415 361 435 361ZM623 361H700Q721 361 721 340V264Q721 244 700 244H623Q603 244 603 264V340Q603 361 623 361ZM811 361H888Q909 361 909 340V264Q909 244 888 244H811Q791 244 791 264V340Q791 361 811 361ZM153 201H230Q251 201 251 180V104Q251 84 230 84H153Q133 84 133 104V180Q133 201 153 201ZM341 201H418Q439 201 439 180V104Q439 84 418 84H341Q321 84 321 104V180Q321 201 341 201ZM529 201H606Q627 201 627 180V104Q627 84 606 84H529Q509 84 509 104V180Q509 201 529 201ZM717 201H794Q815 201 815 180V104Q815 84 794 84H717Q697 84 697 104V180Q697 201 717 201ZM905 201H982Q1003 201 1003 180V104Q1003 84 982 84H905Q885 84 885 104V180Q885 201 905 201ZM229 27H906Q927 27 927 6V-29Q927 -49 906 -49H229Q209 -49 209 -29V6Q209 27 229 27Z" horiz-adv-x="1135" unicode="≈"/>
			<glyph d="M399 489V434L145 304L399 174V119L95 280V328ZM95 210L399 49V-6L95 155Z" unicode="≤"/>
			<glyph d="M95 489L399 328V280L95 119V174L349 304L95 434ZM399 210V155L95 -6V49Z" unicode="≥"/>
			<glyph d="M577 971L1046 692V602H971V254H183V602H108V692ZM577 858L277 682V342H877V682ZM401 644H753V557H401ZM401 519H753V432H401ZM212 206Q231 206 237 194T244 160Q244 149 243 141T238 128L247 119L240 112L231 120Q223 115 212 115Q194 115 187 126T180 160Q180 182 186 194T212 206ZM645 206Q664 206 670 194T677 160Q677 139 670 127T645 115Q626 115 619 126T613 160Q613 181 619 193T645 206ZM807 206Q824 206 835 196L826 187Q818 194 806 194Q799 194 794 190T790 180Q790 170 803 168L815 166Q838 162 838 141Q838 129 829 122T806 115Q786 115 774 127L783 136Q791 127 806 127Q824 127 824 141Q824 147 821 149T811 154L800 156Q777 160 777 180Q777 192 785 199T807 206ZM1013 206Q1027 206 1035 198T1045 178H1031Q1028 194 1013 194Q1001 194 997 185T994 160Q994 144 997 135T1013 127Q1031 127 1031 147V152H1012V164H1045V150Q1045 133 1037 124T1013 115Q995 115 987 127T980 160Q980 182 986 194T1013 206ZM108 205H165V193H121V167H158V155H121V128H165V116H108ZM263 205H276V146Q276 137 281 132T295 127Q303 127 308 132T313 146V205H327V146Q327 132 318 123T295 115Q281 115 272 123T263 146ZM371 205H382L415 116H400L394 134H359L353 116H338ZM427 205H441V128H484V116H427ZM529 205H543V167H579V205H593V116H579V155H543V116H529ZM696 205H709V146Q709 137 714 132T728 127Q736 127 741 132T746 146V205H760V146Q760 132 751 123T728 115Q714 115 705 123T696 145ZM856 205H869V116H856ZM893 205H905L946 142V205H960V116H948L906 178V116H893ZM212 194Q201 194 197 185T193 160Q193 145 196 136T212 127Q218 127 222 130L212 139L219 147L229 138Q231 146 231 160Q231 176 227 185T212 194ZM645 194Q634 194 630 185T626 160Q626 145 629 136T645 127Q656 127 660 135T664 160Q664 176 660 185T645 194ZM376 185L363 145H390ZM108 63H143V-86H225V-117H108ZM255 63H374V32H290V-11H362V-42H290V-86H374V-117H255ZM408 63H440L511 -47V63H547V-117H515L444 -7V-117H408ZM589 63H654Q693 63 706 41T720 -27Q720 -74 707 -95T654 -117H589ZM756 63H875V32H791V-11H863V-42H791V-86H875V-117H756ZM910 63H981Q1008 63 1023 47T1039 8Q1039 -10 1029 -22T1006 -39L1047 -117H1006L970 -45H945V-117H910ZM624 32V-86H651Q673 -86 679 -73T685 -27Q685 4 679 18T651 32ZM945 32V-16H979Q990 -16 997 -9T1004 8Q1004 19 997 25T979 32Z" horiz-adv-x="1155" unicode="◊"/>
			<glyph d="M417 718Q433 718 444 707T455 680Q455 664 444 653T417 642Q401 642 390 653T379 680Q379 696 390 707T417 718ZM218 712H262V667H227Q153 667 153 587V482H262V444H153V0H102V444H36V482H102V586Q102 643 132 677T218 712ZM391 482H442V0H391Z" horiz-adv-x="529" unicode="ﬁ"/>
			<glyph d="M218 712H262V667H227Q153 667 153 587V482H262V444H153V0H102V444H36V482H102V586Q102 643 132 677T218 712ZM384 712H435V126Q435 83 451 64T509 45H544V0H500Q442 0 413 33T384 125Z" horiz-adv-x="566" unicode="ﬂ"/>
		</font>
</defs>
</svg>
