<?xml version="1.0" encoding="UTF-8"?>
<svg height="100%" width="100%" xmlns="http://www.w3.org/2000/svg">
	<defs>
		<font horiz-adv-x="488" id="web">
			<font-face alphabetic="0" ascent="1041" descent="-237" font-family="" panose-1="2 0 6 6 4 0 0 2 0 3"/>
			<missing-glyph d="M76 712H472V0H76ZM142 651V61H406V651Z" horiz-adv-x="507"/>
			<glyph d="" horiz-adv-x="208" unicode=" "/>
			<glyph d="M197 712H314L194 209H118ZM128 120Q154 120 172 102T190 58Q190 32 172 14T128 -3Q102 -3 84 14T67 58Q67 84 84 102T128 120Z" horiz-adv-x="295" unicode="!"/>
			<glyph d="M157 712H252L214 521H118ZM335 712H430L392 521H296Z" horiz-adv-x="402" unicode="&quot;"/>
			<glyph d="M300 716H397L327 520H472L542 716H638L568 520H642L626 436H540L488 292H569L553 208H459L385 0H289L363 208H217L144 0H47L121 208H46L62 292H150L202 436H119L135 520H230ZM298 436L246 292H392L443 436Z" horiz-adv-x="626" unicode="#"/>
			<glyph d="M347 806H424L407 716Q513 705 574 633L501 570Q478 597 449 611T382 627L339 402L365 396Q448 376 485 334T522 221Q522 148 486 98T394 23T271 -6L250 -114H173L194 -4Q128 0 82 22T-4 93L71 159Q100 123 135 105T219 86L263 317L235 324Q159 343 125 385T91 485Q91 543 118 594T199 679T330 718ZM322 628Q266 622 229 583T193 496Q193 460 216 441T281 413ZM321 306L280 85Q342 93 380 126T419 210Q419 257 395 276T321 306Z" horiz-adv-x="560" unicode="$"/>
			<glyph d="M265 718Q313 718 347 691T381 611Q381 592 377 575L358 480Q331 345 205 345Q157 345 123 371T89 452Q89 471 93 488L112 583Q139 718 265 718ZM605 712H685L224 0H145ZM257 654Q198 654 184 583L165 488Q162 473 162 460Q162 409 213 409Q272 409 286 480L305 575Q308 590 308 603Q308 654 257 654ZM624 367Q672 367 706 340T740 260Q740 241 736 224L717 129Q690 -6 564 -6Q516 -6 482 20T448 101Q448 122 452 137L471 232Q498 367 624 367ZM616 303Q557 303 543 232L524 137Q521 122 521 109Q521 58 572 58Q631 58 645 129L664 224Q667 239 667 252Q667 303 616 303Z" horiz-adv-x="788" unicode="%"/>
			<glyph d="M358 718Q436 718 469 676T503 579Q503 491 401 429L344 393L451 214Q476 241 491 275T516 356H610Q598 288 572 235T500 137L588 0H469L426 70Q390 39 337 16T223 -6Q142 -6 88 37T34 167Q34 225 56 268T117 344T215 414Q194 447 182 477T170 542Q170 584 189 624T250 691T358 718ZM352 635Q313 635 291 608T269 542Q269 510 301 459L338 482Q373 504 391 525T409 576Q409 604 393 619T352 635ZM257 343Q193 304 163 268T133 179Q133 136 160 108T232 81Q268 81 306 97T379 144Z" horiz-adv-x="644" unicode="&amp;"/>
			<glyph d="M157 712H252L214 521H118Z" horiz-adv-x="224" unicode="'"/>
			<glyph d="M273 794L341 729Q245 619 197 490T149 221Q149 77 207 -54L116 -90Q48 59 48 223Q48 385 105 533T273 794Z" horiz-adv-x="276" unicode="("/>
			<glyph d="M192 790Q261 642 261 476Q261 316 203 167T37 -94L-34 -29Q63 79 111 208T160 480Q160 623 102 756Z" horiz-adv-x="275" unicode=")"/>
			<glyph d="M276 712L345 698L317 576L434 620L457 554L337 517L433 438L387 385L296 471L275 347L206 361L235 483L118 439L95 505L215 541L118 621L165 674L256 588Z" horiz-adv-x="441" unicode="*"/>
			<glyph d="M246 493H337L303 322H462L444 232H285L251 62H160L194 232H35L53 322H212Z" horiz-adv-x="486" unicode="+"/>
			<glyph d="M87 135Q116 135 136 116T156 70Q156 53 151 35T126 -28T76 -144H4L73 -1Q49 4 34 22T19 67Q19 96 39 115T87 135Z" horiz-adv-x="250" unicode=","/>
			<glyph d="M68 323H346L328 232H51Z" horiz-adv-x="386" unicode="-"/>
			<glyph d="M88 135Q117 135 137 115T157 66Q157 37 137 17T88 -3Q59 -3 39 17T19 66Q19 95 39 115T88 135Z" horiz-adv-x="250" unicode="."/>
			<glyph d="M367 786H462L20 -74H-76Z" horiz-adv-x="345" unicode="/"/>
			<glyph d="M328 718Q401 718 448 674T495 555Q495 532 490 507L429 201Q407 90 342 42T201 -6Q128 -6 81 37T34 157Q34 180 39 205L100 511Q122 622 186 670T328 718ZM322 632Q279 632 243 604T196 513L135 202Q130 180 130 162Q130 120 152 100T207 80Q250 80 285 108T333 199L394 510Q399 532 399 550Q399 592 376 612T322 632Z" unicode="0"/>
			<glyph d="M323 712H420L277 0H181L301 600L144 484L166 598Z" unicode="1"/>
			<glyph d="M326 718Q406 718 451 673T497 548Q497 492 474 452T403 361L140 86H416L399 0H-1L17 86L337 421Q371 455 385 482T399 544Q399 587 377 609T317 632Q274 632 240 605T194 521H97Q115 618 174 668T326 718Z" unicode="2"/>
			<glyph d="M320 718Q395 718 440 673T486 556Q486 491 456 440T369 365Q405 348 422 317T439 236Q439 172 409 116T326 27T205 -6Q115 -6 66 38T17 157Q17 181 19 189H114Q113 185 113 168Q113 129 136 105T205 81Q243 81 274 102T324 157T342 233Q342 276 318 299T247 322H230L246 406H264Q300 406 328 425T373 477T389 547Q389 586 367 608T307 631Q264 631 231 603T186 529H88Q111 623 171 670T320 718Z" unicode="3"/>
			<glyph d="M350 712H458L121 200H289L322 364H415L382 200H458L439 110H365L343 0H250L272 110H-5L13 200Z" unicode="4"/>
			<glyph d="M156 712H519L502 626H226L187 434Q213 455 239 464T302 473Q378 473 415 429T453 318Q453 280 445 237Q432 174 414 130T364 54Q306 -6 208 -6Q125 -6 82 38T39 152Q39 170 41 183H134Q133 177 133 162Q133 125 152 103T211 81Q271 81 302 122T347 237Q354 272 354 305Q354 346 337 368T279 391Q204 391 165 325H79Z" unicode="5"/>
			<glyph d="M333 712H439L231 401Q258 410 279 410Q353 410 396 360T439 229Q439 162 410 108T332 24T221 -6Q156 -6 114 20T52 89T33 178Q33 227 50 270T111 377ZM250 331Q210 331 183 309T142 253T129 185Q129 137 153 108T220 80Q257 80 285 101T327 155T342 226Q342 274 317 302T250 331Z" unicode="6"/>
			<glyph d="M138 712H547L530 626L185 0H78L424 626H214L193 518H100Z" unicode="7"/>
			<glyph d="M321 718Q398 718 447 671T497 545Q497 485 465 435T381 361Q412 339 429 306T446 224Q446 163 418 110T336 25T208 -6Q128 -6 75 39T23 172Q23 240 55 292T153 374Q97 419 97 496Q97 557 125 608T205 688T321 718ZM315 632Q279 632 251 612T209 562T194 496Q194 456 215 432T278 408Q314 408 342 427T385 478T400 544Q400 584 378 608T315 632ZM254 324Q195 324 157 282T120 179Q120 134 145 107T214 80Q274 80 311 121T348 225Q348 270 323 297T254 324Z" unicode="8"/>
			<glyph d="M309 718Q374 718 416 691T477 623T497 534Q497 485 479 442T419 335L197 0H91L299 311Q272 302 251 302Q177 302 134 351T91 483Q91 550 119 603T198 687T309 718ZM310 632Q273 632 245 611T202 556T188 486Q188 438 213 409T280 381Q320 381 347 403T387 459T401 527Q401 575 376 603T310 632Z" unicode="9"/>
			<glyph d="M170 418Q199 418 219 398T239 349Q239 320 219 300T170 280Q141 280 121 300T102 349Q102 378 121 398T170 418ZM113 135Q142 135 162 115T182 66Q182 37 162 17T113 -3Q84 -3 64 17T45 66Q45 95 64 115T113 135Z" horiz-adv-x="274" unicode=":"/>
			<glyph d="M168 418Q197 418 217 398T237 349Q237 320 217 300T168 280Q139 280 119 300T99 349Q99 378 119 398T168 418ZM111 135Q140 135 160 116T180 70Q180 53 175 35T150 -28T100 -144H28L97 -1Q73 4 58 22T43 67Q43 96 63 115T111 135Z" horiz-adv-x="274" unicode=";"/>
			<glyph d="M454 501L433 394L171 277L388 155L368 57L51 242L69 326Z" horiz-adv-x="486" unicode="&lt;"/>
			<glyph d="M72 416H481L463 326H54ZM36 229H445L427 139H18Z" horiz-adv-x="486" unicode="="/>
			<glyph d="M129 496L446 311L428 227L43 52L64 159L326 276L109 398Z" horiz-adv-x="486" unicode="&gt;"/>
			<glyph d="M337 718Q379 718 415 699T472 646T494 565Q494 519 476 481T422 403L327 295Q304 268 298 240L292 209H195L203 247Q209 277 220 299T254 347L348 452Q372 479 384 503T396 557Q396 589 376 610T322 631Q277 631 247 604T208 532H111Q128 623 188 670T337 718ZM218 120Q244 120 261 102T279 58Q279 32 261 14T218 -3Q192 -3 174 14T156 58Q156 84 174 102T218 120Z" horiz-adv-x="466" unicode="?"/>
			<glyph d="M500 691Q613 691 701 646T837 520T886 336Q886 251 854 182T767 73T644 33Q557 33 537 93Q478 25 398 25Q333 25 294 62T256 164Q256 195 267 254Q288 365 334 423T470 482Q547 482 579 421L589 475H681L622 179Q617 154 617 142Q617 105 647 105Q687 105 723 135T783 218T806 336Q806 419 767 483T659 582T500 617Q399 617 315 568T182 434T133 248Q133 138 178 55T308 -72T506 -118H569L555 -188H492Q362 -188 261 -132T105 23T50 248Q50 371 109 472T272 632T500 691ZM482 398Q388 398 363 254Q355 208 355 186Q355 149 373 129T424 109Q465 109 493 137Q511 155 523 182T544 254Q552 300 552 321Q552 360 532 379T482 398Z" horiz-adv-x="918" unicode="@"/>
			<glyph d="M338 712H421L527 0H422L404 146H136L59 0H-52ZM352 558L179 231H395Z" horiz-adv-x="574" unicode="A"/>
			<glyph d="M171 712H420Q516 712 559 664T602 549Q602 492 574 441T478 362Q516 340 534 310T553 232Q553 163 523 110T439 29T318 0H28ZM256 621L213 408H365Q427 408 462 446T498 536Q498 572 477 596T404 621ZM195 317L150 91H315Q375 91 412 129T449 228Q449 270 425 293T356 317Z" horiz-adv-x="610" unicode="B"/>
			<glyph d="M374 718Q476 718 530 658T585 503H482Q481 560 452 594T369 628Q302 628 254 577Q229 551 213 505T177 356Q154 239 154 197Q154 145 187 114T270 84Q329 84 370 120T429 209H532Q499 105 428 49T263 -6Q201 -6 153 18T78 88T51 191Q51 247 73 356Q91 444 103 490T133 571T180 638Q216 677 267 697T374 718Z" horiz-adv-x="579" unicode="C"/>
			<glyph d="M171 712H398Q487 712 545 664T603 516Q603 492 599 462T582 362Q565 273 550 220T516 131T464 67Q428 34 379 17T273 0H28ZM256 622L150 90H272Q347 90 396 135Q423 160 441 209T479 362Q491 424 495 455T500 508Q500 563 469 592T380 622Z" horiz-adv-x="613" unicode="D"/>
			<glyph d="M171 712H603L585 622H256L213 404H495L477 314H195L150 90H485L467 0H28Z" horiz-adv-x="555" unicode="E"/>
			<glyph d="M171 712H603L585 622H256L211 396H493L475 305H192L131 0H28Z" horiz-adv-x="536" unicode="F"/>
			<glyph d="M375 718Q477 718 532 658T588 502H485Q483 561 453 594T371 628Q303 628 255 577Q228 550 212 504T176 356Q154 245 154 197Q154 145 187 114T270 84Q327 84 376 126T442 252L450 297H305L321 383H569L549 276Q536 208 514 159T455 73Q419 36 370 15T263 -6Q199 -6 151 19T77 89T51 191Q51 252 73 356Q92 448 104 495T134 575T180 638Q216 676 268 697T375 718Z" horiz-adv-x="598" unicode="G"/>
			<glyph d="M171 712H274L213 405H487L548 712H651L508 0H405L468 315H195L131 0H28Z" horiz-adv-x="638" unicode="H"/>
			<glyph d="M171 712H274L131 0H28Z" horiz-adv-x="261" unicode="I"/>
			<glyph d="M381 712H484L386 219Q362 102 292 48T135 -6Q77 -6 37 12T-31 65L43 129Q62 106 84 95T138 84Q189 84 229 120T285 229Z" horiz-adv-x="461" unicode="J"/>
			<glyph d="M171 712H274L203 355L547 712H675L400 424L564 0H451L318 355L173 210L131 0H28Z" horiz-adv-x="609" unicode="K"/>
			<glyph d="M171 712H274L150 90H478L460 0H28Z" horiz-adv-x="528" unicode="L"/>
			<glyph d="M171 712H269L379 276L667 712H768L625 0H522L619 480L396 144H320L229 484L132 0H28Z" horiz-adv-x="755" unicode="M"/>
			<glyph d="M171 712H262L476 202L578 712H681L538 0H448L234 510L131 0H28Z" horiz-adv-x="668" unicode="N"/>
			<glyph d="M375 718Q437 718 484 692T556 622T582 521Q582 465 560 356Q535 231 515 174T454 74Q416 34 365 14T257 -6Q195 -6 148 19T76 89T51 191Q51 247 73 356Q98 481 118 538T179 638Q217 678 267 698T375 718ZM369 628Q301 628 253 577Q229 552 213 505T176 356Q154 245 154 199Q154 145 186 114T264 84Q332 84 380 135Q404 160 420 206T457 356Q479 467 479 513Q479 567 447 597T369 628Z" horiz-adv-x="594" unicode="O"/>
			<glyph d="M171 712H418Q508 712 556 661T605 532Q605 465 574 409T485 320T347 287H189L131 0H28ZM256 621L207 377H351Q397 377 431 397T484 451T502 524Q502 567 478 594T403 621Z" horiz-adv-x="578" unicode="P"/>
			<glyph d="M375 718Q437 718 484 692T556 622T582 521Q582 465 560 356Q536 239 518 183T466 87L520 17L456 -39L401 32Q340 -6 257 -6Q195 -6 148 19T76 89T51 191Q51 247 73 356Q98 481 118 538T179 638Q217 678 267 698T375 718ZM369 628Q301 628 253 577Q229 552 213 505T176 356Q154 245 154 199Q154 145 186 114T264 84Q310 84 345 106L282 188L346 245L404 169Q417 194 429 237T457 356Q479 467 479 513Q479 567 447 597T369 628Z" horiz-adv-x="594" unicode="Q"/>
			<glyph d="M171 712H419Q516 712 560 661T605 534Q605 459 558 397T428 314L529 0H416L325 304H193L131 0H28ZM256 621L209 390H358Q405 390 437 410T485 463T501 529Q501 573 476 597T404 621Z" horiz-adv-x="606" unicode="R"/>
			<glyph d="M359 718Q487 718 554 634L482 571Q457 601 425 615T347 629Q301 629 266 610T212 560T194 496Q194 461 217 441T283 412L345 397Q430 377 466 335T503 218Q503 146 466 95T366 19T227 -6Q148 -6 94 17T-4 92L72 158Q102 120 141 102T236 85Q282 85 319 101T378 146T400 211Q400 254 378 274T312 305L249 320Q175 338 133 379T91 485Q91 546 122 599T213 685T359 718Z" horiz-adv-x="541" unicode="S"/>
			<glyph d="M111 712H585L567 621H383L258 0H155L280 621H92Z" horiz-adv-x="511" unicode="T"/>
			<glyph d="M160 712H263L170 246Q165 226 165 198Q165 151 192 118T277 85Q342 85 388 127T451 251L543 712H646L551 239Q527 119 451 56T270 -6Q214 -6 166 17T90 84T62 192Q62 219 69 254Z" horiz-adv-x="623" unicode="U"/>
			<glyph d="M87 712H189L245 186L503 712H613L251 0H169Z" horiz-adv-x="516" unicode="V"/>
			<glyph d="M92 712H198L215 197L455 712H537L573 197L790 712H900L586 0H497L459 504L218 0H129Z" horiz-adv-x="808" unicode="W"/>
			<glyph d="M99 712H214L303 454L487 712H607L345 361L487 0H372L272 277L70 0H-50L230 371Z" horiz-adv-x="533" unicode="X"/>
			<glyph d="M84 712H193L278 393L482 712H595L311 289L253 0H150L209 294Z" horiz-adv-x="495" unicode="Y"/>
			<glyph d="M136 712H560L543 630L127 91H442L424 0H-13L3 82L417 621H118Z" horiz-adv-x="512" unicode="Z"/>
			<glyph d="M174 786H377L360 700H254L116 12H231L214 -74H3Z" horiz-adv-x="305" unicode="["/>
			<glyph d="M95 778H184L282 -74H194Z" horiz-adv-x="336" unicode="\"/>
			<glyph d="M132 786H343L172 -74H-31L-14 10H94L232 702H115Z" horiz-adv-x="305" unicode="]"/>
			<glyph d="M310 718H404L504 400H408L341 615L188 400H84Z" horiz-adv-x="528" unicode="^"/>
			<glyph d="M-80 -102H426L413 -168H-93Z" horiz-adv-x="486" unicode="_"/>
			<glyph d="M210 754H307L358 595H281Z" unicode="`"/>
			<glyph d="M271 513Q341 513 393 481T446 376Q446 359 441 334L374 0H280L290 47Q264 21 232 7T157 -6Q92 -6 50 28T8 123Q8 196 54 242Q107 295 202 295H336L345 336Q348 350 348 366Q348 397 325 414T261 431Q220 431 191 417T138 377L85 442Q119 478 162 495T271 513ZM211 227Q162 227 133 201T104 131Q104 74 185 74Q244 74 279 109Q293 123 300 140T314 182L323 227Z" horiz-adv-x="485" unicode="a"/>
			<glyph d="M159 712H256L206 456Q253 513 333 513Q398 513 436 474T475 359Q475 322 462 254Q448 177 429 127T378 44Q353 19 318 6T246 -6Q157 -6 123 58L112 0H17ZM301 427Q241 427 211 382T165 254Q154 192 154 168Q154 80 230 80Q290 80 320 125T365 254Q376 316 376 339Q376 427 301 427Z" horiz-adv-x="505" unicode="b"/>
			<glyph d="M301 513Q396 513 449 440L376 377Q358 403 338 415T291 427Q240 427 200 386Q156 341 140 254Q133 222 133 183Q133 133 157 106T223 80Q254 80 279 92T329 131L384 61Q312 -6 215 -6Q134 -6 85 43T36 176Q36 216 43 254Q68 388 137 450T301 513Z" horiz-adv-x="444" unicode="c"/>
			<glyph d="M434 712H531L389 0H294L306 54Q278 21 245 7T173 -6Q98 -6 65 36T32 143Q32 188 45 253Q60 331 79 381T129 461Q181 513 261 513Q345 513 381 451ZM278 427Q218 427 187 382T142 253Q131 191 131 167Q131 80 207 80Q267 80 296 124T342 253Q353 315 353 340Q353 427 278 427Z" horiz-adv-x="506" unicode="d"/>
			<glyph d="M290 513Q370 513 416 464T463 336Q463 291 448 226H134Q129 199 129 177Q129 130 153 103T226 76Q265 76 295 89T357 132L411 68Q332 -6 217 -6Q140 -6 88 38T36 171Q36 256 64 334T149 463T290 513ZM285 433Q185 433 146 293H366Q370 313 370 336Q370 383 346 408T285 433Z" horiz-adv-x="497" unicode="e"/>
			<glyph d="M304 712H367L350 630H310Q255 630 243 569L230 507H325L311 433H216L129 0H32L119 433H64L78 507H133L148 578Q162 647 202 679T304 712Z" horiz-adv-x="292" unicode="f"/>
			<glyph d="M258 513Q344 513 378 449L390 507H484L384 4Q362 -110 295 -160T143 -211Q89 -211 50 -194T-19 -142L49 -83Q67 -104 88 -116T144 -129Q198 -129 236 -95T288 5L301 69Q278 41 248 26T175 12Q110 12 71 51T33 161Q33 199 45 263Q59 338 76 384T125 461Q177 513 258 513ZM273 427Q216 427 187 385T142 262Q132 216 132 183Q132 143 149 120T207 98Q264 98 293 140T339 263Q349 309 349 342Q349 427 273 427Z" horiz-adv-x="501" unicode="g"/>
			<glyph d="M159 712H256L205 460Q258 513 341 513Q397 513 437 476T477 371Q477 345 472 318L408 0H311L373 311Q378 336 378 351Q378 388 356 407T302 427Q264 427 226 401T176 309L114 0H17Z" horiz-adv-x="520" unicode="h"/>
			<glyph d="M198 735Q224 735 243 716T262 672Q262 646 243 627T198 608Q172 608 153 626T135 671Q135 697 153 716T198 735ZM120 507H217L115 0H18Z" horiz-adv-x="230" unicode="i"/>
			<glyph d="M197 735Q223 735 242 716T261 672Q261 646 242 627T197 608Q171 608 152 626T134 671Q134 697 152 716T197 735ZM119 507H216L100 -70Q86 -137 47 -172T-55 -208H-119L-103 -125H-64Q-7 -125 5 -61Z" horiz-adv-x="230" unicode="j"/>
			<glyph d="M159 712H256L170 275L402 507H520L312 303L447 0H336L238 242L145 154L114 0H17Z" horiz-adv-x="503" unicode="k"/>
			<glyph d="M156 712H253L141 154Q137 132 137 121Q137 103 149 92T187 82H226L210 0H162Q98 0 66 32Q38 60 38 103Q38 121 45 156Z" horiz-adv-x="278" unicode="l"/>
			<glyph d="M343 513Q380 513 411 495T461 439Q493 476 531 494T629 513Q688 513 729 475T771 371Q771 348 765 318L701 0H604L667 311Q672 339 672 351Q672 388 650 407T595 427Q558 427 520 401T470 309L408 0H311L373 311Q378 339 378 351Q378 388 356 407T302 427Q265 427 227 401T176 309L114 0H17L118 507H212L202 455Q255 513 343 513Z" horiz-adv-x="813" unicode="m"/>
			<glyph d="M343 513Q398 513 437 476T477 371Q477 345 472 318L408 0H311L373 311Q378 336 378 351Q378 388 356 407T302 427Q265 427 227 401T176 309L114 0H17L118 507H212L202 455Q255 513 343 513Z" horiz-adv-x="520" unicode="n"/>
			<glyph d="M287 513Q356 513 405 471T454 346Q454 306 445 254Q429 174 407 128T352 51Q291 -6 201 -6Q132 -6 83 36T34 161Q34 202 43 254Q58 333 80 378T136 456Q198 513 287 513ZM278 427Q232 427 200 395Q180 375 165 341T140 254Q130 203 130 171Q130 125 152 102T210 80Q256 80 288 112Q309 133 323 165T348 254Q358 305 358 337Q358 383 336 405T278 427Z" unicode="o"/>
			<glyph d="M334 513Q409 513 442 471T475 364Q475 319 462 254Q447 176 427 126T378 46Q326 -6 246 -6Q162 -6 126 56L73 -205H-24L118 507H213L201 453Q229 486 262 499T334 513ZM300 427Q240 427 210 383T165 254Q154 192 154 167Q154 80 229 80Q289 80 319 125T365 254Q376 316 376 340Q376 427 300 427Z" horiz-adv-x="505" unicode="p"/>
			<glyph d="M259 513Q348 513 382 449L393 507H488L346 -205H249L299 51Q252 -6 172 -6Q107 -6 68 33T30 148Q30 185 43 253Q57 330 75 380T127 463Q152 488 186 500T259 513ZM275 427Q215 427 185 382T140 253Q129 191 129 168Q129 80 204 80Q264 80 294 124T340 253Q351 315 351 339Q351 427 275 427Z" horiz-adv-x="505" unicode="q"/>
			<glyph d="M337 513Q372 513 398 501T445 465L364 393Q340 426 300 426Q255 426 221 393T176 308L114 0H17L118 507H213L201 451Q224 480 259 496T337 513Z" horiz-adv-x="395" unicode="r"/>
			<glyph d="M272 513Q325 513 364 499T436 454L369 394Q328 433 262 433Q211 433 183 409T155 352Q155 313 215 304L282 294Q348 284 376 253T405 166Q405 101 353 50Q324 22 277 8T177 -6Q112 -6 66 12T-14 68L56 130Q78 103 108 90T185 77Q225 77 252 89T294 120T308 159Q308 184 293 196T249 212L182 222Q114 233 86 263T58 334Q58 367 70 399T107 456Q164 513 272 513Z" horiz-adv-x="453" unicode="s"/>
			<glyph d="M159 652H256L228 507H320L305 433H213L157 154Q152 127 152 121Q152 103 165 92T202 82H242L226 0H177Q113 0 81 32Q54 61 54 103Q54 126 60 156L116 433H59L74 507H131Z" horiz-adv-x="309" unicode="t"/>
			<glyph d="M112 507H209L147 196Q142 171 142 156Q142 119 163 99T218 80Q255 80 293 106T344 198L406 507H503L402 0H308L318 52Q265 -6 177 -6Q122 -6 82 30T43 136Q43 162 48 189Z" horiz-adv-x="520" unicode="u"/>
			<glyph d="M48 507H145L189 140L375 507H480L204 0H124Z" horiz-adv-x="435" unicode="v"/>
			<glyph d="M49 507H147L171 147L353 507H427L469 147L632 507H735L490 0H410L365 356L181 0H99Z" horiz-adv-x="682" unicode="w"/>
			<glyph d="M63 507H175L244 337L371 507H489L286 255L404 0H292L218 179L82 0H-38L176 262Z" horiz-adv-x="467" unicode="x"/>
			<glyph d="M48 507H145L187 136L375 507H479L150 -105Q129 -143 107 -165Q85 -186 58 -195T-5 -205H-45L-27 -118H-2Q27 -118 43 -105T77 -58L119 20Z" horiz-adv-x="424" unicode="y"/>
			<glyph d="M92 507H444L429 430L124 86H367L350 0H-17L-1 77L302 421H74Z" horiz-adv-x="430" unicode="z"/>
			<glyph d="M364 786H434L417 700H381Q352 700 337 693T314 671T301 625L267 456Q258 411 237 388T183 356Q229 333 229 282Q229 268 226 251L194 90Q189 65 189 51Q189 28 201 20T244 12H288L271 -74H204Q143 -74 116 -43T89 30Q89 49 93 71L127 238Q130 253 130 268Q130 318 76 318H45L63 403H97Q124 403 148 422Q166 438 176 483L208 647Q216 688 227 713T260 757Q295 786 364 786Z" horiz-adv-x="369" unicode="{"/>
			<glyph d="M209 786H306L134 -74H38Z" horiz-adv-x="301" unicode="|"/>
			<glyph d="M139 786H206Q268 786 294 755T321 682Q321 663 317 641L283 474Q280 459 280 444Q280 394 334 394H365L347 309H313Q286 309 262 290Q244 274 234 229L202 65Q194 24 183 -1T150 -45Q115 -74 46 -74H-24L-7 12H29Q58 12 73 19T95 41T109 87L143 256Q152 301 173 324T227 356Q181 379 181 430Q181 445 184 461L216 622Q221 647 221 661Q221 684 208 692T166 700H122Z" horiz-adv-x="369" unicode="}"/>
			<glyph d="M183 353Q211 353 233 346T287 321Q310 308 326 303T360 298Q382 298 402 306T452 341L502 276Q453 233 419 219T352 205Q324 205 302 212T249 237Q226 250 209 255T176 260Q154 260 133 251T83 217L33 283Q81 326 115 339T183 353Z" horiz-adv-x="524" unicode="~"/>
			<glyph d="" horiz-adv-x="208" unicode=" "/>
			<glyph d="M169 510Q195 510 212 492T230 449Q230 423 212 405T169 387Q143 387 125 405T107 449Q107 475 125 492T169 510ZM103 298H179L100 -205H-17Z" horiz-adv-x="295" unicode="¡"/>
			<glyph d="M307 712H383L365 621Q406 613 434 594T484 544L412 486Q398 506 381 517T340 534L275 196Q326 202 366 245L421 180Q385 146 349 129T266 107L245 0H169L191 111Q131 124 94 174T57 297Q57 372 83 443T161 563T289 621ZM281 535Q239 524 210 483Q182 446 168 398T154 302Q154 264 169 236T216 199Z" horiz-adv-x="460" unicode="¢"/>
			<glyph d="M390 718Q447 718 487 700T555 647L481 583Q463 606 440 617T386 628Q334 628 294 592T239 483L220 386H344L330 312H205L161 91H452L434 0H40L102 312H44L58 386H117L138 493Q161 610 231 664T390 718Z" horiz-adv-x="517" unicode="£"/>
			<glyph d="M122 534L192 464Q214 481 249 490T320 500Q356 500 390 490T447 464L517 534L576 475L506 406Q550 349 550 277Q550 206 506 149L576 80L517 21L447 90Q425 74 390 64T320 54Q285 54 249 64T192 90L122 21L63 80L133 149Q89 206 89 277Q89 349 133 406L63 475ZM320 419Q282 419 249 400T197 348T178 277Q178 239 197 206T249 155T320 136Q358 136 390 155T442 206T461 277Q461 315 442 348T390 400T320 419Z" horiz-adv-x="639" unicode="¤"/>
			<glyph d="M84 712H193L278 393L481 712H595L384 397H478L465 335H341L311 289L303 248H448L436 185H290L253 0H150L187 185H44L55 248H200L209 294L197 335H73L85 397H178Z" horiz-adv-x="495" unicode="¥"/>
			<glyph d="M209 786H306L236 436H139ZM107 276H204L134 -74H38Z" horiz-adv-x="307" unicode="¦"/>
			<glyph d="M325 718Q400 718 440 678T480 580Q480 563 479 558H390Q394 595 373 614T318 634Q273 634 246 607T219 539Q219 512 233 495T276 469L336 448Q377 433 406 396T436 303Q436 237 405 183T310 99Q372 62 372 -18Q372 -71 348 -115T276 -185T161 -211Q93 -211 49 -173T5 -71Q5 -55 6 -46H98Q94 -83 113 -104T173 -125Q216 -125 246 -98T276 -23Q276 3 261 22T217 53L158 75Q115 90 86 126T58 219Q58 285 90 340T185 424Q127 463 127 538Q127 588 151 629T221 694T325 718ZM269 373Q228 373 197 345Q164 315 153 261Q150 243 150 229Q150 188 173 169T225 150Q267 150 297 177Q330 207 341 261Q344 279 344 294Q344 333 322 353T269 373Z" horiz-adv-x="496" unicode="§"/>
			<glyph d="M220 706Q243 706 259 690T275 651Q275 628 259 612T220 596Q197 596 181 612T165 651Q165 674 181 690T220 706ZM428 706Q451 706 467 690T483 651Q483 628 467 612T428 596Q405 596 389 612T373 651Q373 674 389 690T428 706Z" unicode="¨"/>
			<glyph d="M436 716Q534 716 616 667T747 536T795 356Q795 258 747 175T616 44T436 -4Q338 -4 255 44T123 175T75 356Q75 454 123 536T255 667T436 716ZM435 655Q353 655 285 615T179 507T140 356Q140 273 179 204T285 96T435 57Q517 57 584 96T691 204T730 356Q730 439 691 507T584 615T435 655ZM442 552Q479 552 508 540T567 504L527 462Q505 481 486 488T442 496Q387 496 358 460T330 356Q330 288 358 252T442 216Q467 216 486 223T527 250L567 208Q538 184 508 172T442 160Q364 160 315 211T267 356Q267 450 315 501T442 552Z" horiz-adv-x="830" unicode="©"/>
			<glyph d="M280 716Q337 716 378 690T419 607Q419 595 415 573L362 307H286L294 344Q258 303 187 303Q135 303 102 330T70 407Q70 468 107 502Q150 542 224 542H331L337 575Q340 595 340 600Q340 649 271 649Q237 649 214 639T173 608L130 661Q158 689 193 702T280 716ZM232 487Q193 487 169 466T146 412Q146 367 212 367Q258 367 286 395Q303 412 312 452L320 487Z" horiz-adv-x="409" unicode="ª"/>
			<glyph d="M294 500L268 372L143 264L226 155L204 42L29 272ZM534 500L508 372L383 264L466 155L444 42L269 272Z" horiz-adv-x="542" unicode="«"/>
			<glyph d="M53 333H467L420 99H330L359 244H35Z" horiz-adv-x="486" unicode="¬"/>
			<glyph d="M436 716Q534 716 616 667T747 536T795 356Q795 258 747 175T616 44T436 -4Q338 -4 255 44T123 175T75 356Q75 454 123 536T255 667T436 716ZM435 655Q353 655 285 615T179 507T140 356Q140 273 179 204T285 96T435 57Q517 57 584 96T691 204T730 356Q730 439 691 507T584 615T435 655ZM302 548H470Q525 548 557 517T589 435Q589 394 568 368T511 334L595 163H523L447 325H365V163H302ZM364 496V373H459Q491 373 508 389T526 435Q526 464 508 480T459 496Z" horiz-adv-x="830" unicode="®"/>
			<glyph d="M184 684H478L464 616H170Z" unicode="¯"/>
			<glyph d="M209 483Q243 483 272 465T319 418T337 355Q337 320 319 290T272 243T209 226Q174 226 144 243T97 290T80 355Q80 389 97 418T144 465T209 483Z" horiz-adv-x="377" unicode="°"/>
			<glyph d="M262 572H352L318 401H477L459 311H300L266 140H176L210 311H51L69 401H228ZM8 90H417L399 0H-10Z" horiz-adv-x="486" unicode="±"/>
			<glyph d="M191 719Q225 719 247 698T269 648Q269 627 259 610T228 573L131 481H241L231 434H51L60 481L190 603Q213 623 213 644Q213 672 184 672Q153 672 143 635H87Q97 677 124 698T191 719Z" horiz-adv-x="204" unicode="²"/>
			<glyph d="M190 719Q226 719 247 698T268 649Q268 624 254 606T219 581Q233 576 241 562T249 528Q249 488 219 459T143 431Q105 431 81 450T58 500Q58 511 60 519H115L114 511Q114 482 148 482Q170 482 182 496T195 530Q195 561 160 561H149L157 599H168Q188 599 200 611T212 641Q212 669 183 669Q169 669 157 659T141 634H85Q96 674 123 696T190 719Z" horiz-adv-x="206" unicode="³"/>
			<glyph d="M381 754H481L351 595H267Z" unicode="´"/>
			<glyph d="M114 507H211L149 196Q144 174 144 156Q144 119 165 99T220 80Q258 80 295 105T346 198L408 507H505L404 0H310L320 53Q274 0 191 0Q148 0 114 22L68 -205H-28Z" horiz-adv-x="522" unicode="µ"/>
			<glyph d="M324 712H599L416 -205H319L484 622H382L216 -205H119L227 335Q188 338 154 360T99 420T78 506Q78 559 104 606T186 682T324 712Z" horiz-adv-x="585" unicode="¶"/>
			<glyph d="M130 347Q159 347 179 327T199 278Q199 249 179 229T130 209Q101 209 81 229T61 278Q61 307 81 327T130 347Z" horiz-adv-x="250" unicode="·"/>
			<glyph d="M202 11H270L239 -42Q266 -50 281 -69T296 -113Q296 -155 262 -180T176 -205Q131 -205 87 -187L117 -125Q154 -141 174 -141Q191 -141 201 -133T211 -113Q211 -97 195 -89T148 -79Z" unicode="¸"/>
			<glyph d="M184 716H241L185 434H128L172 653L103 602L116 665Z" horiz-adv-x="207" unicode="¹"/>
			<glyph d="M289 716Q340 716 381 685T423 583Q423 548 415 510Q403 452 386 413T341 348Q292 303 221 303Q170 303 129 334T88 437Q88 477 95 510Q106 568 123 606T169 671Q219 716 289 716ZM282 646Q246 646 220 620Q188 588 173 510Q165 465 165 444Q165 408 183 390T228 373Q248 373 264 380T291 399Q322 430 337 510Q346 560 346 575Q346 611 327 628T282 646Z" horiz-adv-x="415" unicode="º"/>
			<glyph d="M107 500L282 270L17 42L43 169L168 278L85 387ZM348 500L522 270L258 42L284 169L408 278L326 387Z" horiz-adv-x="542" unicode="»"/>
			<glyph d="M227 712H300L216 285H142L209 624L114 554L132 644ZM618 712H698L237 0H158ZM696 427H773L572 127H663L681 214H748L730 127H772L760 63H718L705 0H638L651 63H484L495 125Z" horiz-adv-x="805" unicode="¼"/>
			<glyph d="M227 712H300L216 285H142L209 624L114 554L132 644ZM618 712H698L237 0H158ZM682 431Q732 431 763 401T794 324Q794 291 777 263T730 204L589 65H749L736 0H485L499 64L686 250Q706 270 714 285T722 320Q722 342 710 354T676 366Q652 366 637 353T616 308H543Q555 369 591 400T682 431Z" horiz-adv-x="806" unicode="½"/>
			<glyph d="M229 716Q277 716 307 687T338 609Q338 576 321 547T270 503Q291 490 300 471T309 423Q309 384 290 351T238 300T163 281Q106 281 74 309T43 380Q43 391 45 405H116Q115 399 115 392Q115 346 165 346Q197 346 216 368T236 423Q236 474 188 474H175L188 536H199Q230 536 247 557T265 606Q265 651 223 651Q201 651 184 637T159 596H86Q99 655 137 685T229 716ZM614 712H694L233 0H154ZM692 427H769L568 127H659L677 214H744L726 127H768L756 63H714L701 0H634L647 63H480L491 125Z" horiz-adv-x="801" unicode="¾"/>
			<glyph d="M248 510Q274 510 292 492T310 449Q310 423 292 405T248 387Q222 387 204 405T187 449Q187 475 204 492T248 510ZM174 298H271L263 260Q257 230 246 208T212 160L118 55Q94 28 82 4T70 -50Q70 -82 89 -103T144 -124Q189 -124 218 -97T258 -25H355Q338 -116 278 -163T129 -211Q87 -211 51 -192T-6 -139T-28 -58Q-28 -12 -10 26T44 104L139 212Q162 239 168 267Z" horiz-adv-x="466" unicode="¿"/>
			<glyph d="M318 712H401L507 0H402L384 146H116L39 0H-72ZM332 558L159 231H375ZM261 936H358L409 777H332Z" horiz-adv-x="574" unicode="À"/>
			<glyph d="M318 712H401L507 0H402L384 146H116L39 0H-72ZM332 558L159 231H375ZM434 936H534L404 777H320Z" horiz-adv-x="574" unicode="Á"/>
			<glyph d="M318 712H401L507 0H402L384 146H116L39 0H-72ZM332 558L159 231H375ZM360 938H442L533 776H456L394 877L290 776H205Z" horiz-adv-x="574" unicode="Â"/>
			<glyph d="M318 712H401L507 0H402L384 146H116L39 0H-72ZM332 558L159 231H375ZM322 897Q345 897 362 890T402 872Q405 871 414 866T432 858T447 856Q464 856 478 864T509 888L547 839Q520 812 496 800T443 789Q420 789 402 795T363 814Q360 815 350 820T333 827T318 830Q302 830 288 822T256 798L218 847Q245 874 269 885T322 897Z" horiz-adv-x="574" unicode="Ã"/>
			<glyph d="M318 712H401L507 0H402L384 146H116L39 0H-72ZM332 558L159 231H375ZM272 888Q295 888 311 872T327 833Q327 810 311 794T272 778Q249 778 233 794T217 833Q217 856 233 872T272 888ZM480 888Q503 888 519 872T535 833Q535 810 519 794T480 778Q457 778 441 794T425 833Q425 856 441 872T480 888Z" horiz-adv-x="574" unicode="Ä"/>
			<glyph d="M318 712H401L507 0H402L384 146H116L39 0H-72ZM332 558L159 231H375ZM373 992Q424 992 460 956T496 870Q496 819 460 783T373 747Q322 747 286 782T251 870Q251 921 286 956T373 992ZM373 934Q347 934 328 915T309 870Q309 844 328 825T373 806Q399 806 418 825T438 870Q438 896 418 915T373 934Z" horiz-adv-x="574" unicode="Å"/>
			<glyph d="M445 712H942L924 622H595L552 404H834L816 314H534L489 90H824L806 0H367L400 167H179L63 0H-52ZM492 622L237 254H418Z" horiz-adv-x="894" unicode="Æ"/>
			<glyph d="M354 718Q456 718 510 658T565 503H462Q461 560 432 594T349 628Q282 628 234 577Q209 551 193 505T157 356Q134 239 134 197Q134 145 167 114T250 84Q309 84 350 120T409 209H512Q479 105 408 49T243 -6Q181 -6 133 18T58 88T31 191Q31 247 53 356Q71 444 83 490T113 571T160 638Q196 677 247 697T354 718ZM202 11H270L239 -42Q266 -50 281 -69T296 -113Q296 -155 262 -180T176 -205Q131 -205 87 -187L117 -125Q154 -141 174 -141Q191 -141 201 -133T211 -113Q211 -97 195 -89T148 -79Z" horiz-adv-x="579" unicode="Ç"/>
			<glyph d="M151 712H583L565 622H236L193 404H475L457 314H175L130 90H465L447 0H8ZM263 936H360L411 777H334Z" horiz-adv-x="555" unicode="È"/>
			<glyph d="M151 712H583L565 622H236L193 404H475L457 314H175L130 90H465L447 0H8ZM436 936H536L406 777H322Z" horiz-adv-x="555" unicode="É"/>
			<glyph d="M151 712H583L565 622H236L193 404H475L457 314H175L130 90H465L447 0H8ZM362 938H444L535 776H458L396 877L292 776H207Z" horiz-adv-x="555" unicode="Ê"/>
			<glyph d="M151 712H583L565 622H236L193 404H475L457 314H175L130 90H465L447 0H8ZM274 888Q297 888 313 872T329 833Q329 810 313 794T274 778Q251 778 235 794T219 833Q219 856 235 872T274 888ZM482 888Q505 888 521 872T537 833Q537 810 521 794T482 778Q459 778 443 794T427 833Q427 856 443 872T482 888Z" horiz-adv-x="555" unicode="Ë"/>
			<glyph d="M151 712H254L111 0H8ZM109 936H206L257 777H180Z" horiz-adv-x="261" unicode="Ì"/>
			<glyph d="M151 712H254L111 0H8ZM282 936H382L252 777H168Z" horiz-adv-x="261" unicode="Í"/>
			<glyph d="M151 712H254L111 0H8ZM208 938H290L381 776H304L242 877L138 776H53Z" horiz-adv-x="261" unicode="Î"/>
			<glyph d="M151 712H254L111 0H8ZM120 888Q143 888 159 872T175 833Q175 810 159 794T120 778Q97 778 81 794T65 833Q65 856 81 872T120 888ZM328 888Q351 888 367 872T383 833Q383 810 367 794T328 778Q305 778 289 794T273 833Q273 856 289 872T328 888Z" horiz-adv-x="261" unicode="Ï"/>
			<glyph d="M189 712H416Q505 712 563 664T621 516Q621 494 615 456T599 362Q582 273 567 220T533 131T481 67Q410 0 291 0H46L110 320H40L56 399H126ZM274 622L229 399H360L345 320H213L167 90H290Q365 90 414 135Q440 160 458 209T496 362Q507 416 512 452T518 508Q518 563 487 592T398 622Z" horiz-adv-x="630" unicode="Ð"/>
			<glyph d="M151 712H242L456 202L558 712H661L518 0H428L214 510L111 0H8ZM371 897Q394 897 411 890T451 872Q454 871 463 866T481 858T496 856Q513 856 527 864T558 888L596 839Q569 812 545 800T492 789Q469 789 451 795T412 814Q409 815 399 820T382 827T367 830Q351 830 337 822T305 798L267 847Q294 874 318 885T371 897Z" horiz-adv-x="668" unicode="Ñ"/>
			<glyph d="M355 718Q417 718 464 692T536 622T562 521Q562 465 540 356Q515 231 495 174T434 74Q396 34 345 14T237 -6Q175 -6 128 19T56 89T31 191Q31 247 53 356Q78 481 98 538T159 638Q197 678 247 698T355 718ZM349 628Q281 628 233 577Q209 552 193 505T156 356Q134 245 134 199Q134 145 166 114T244 84Q312 84 360 135Q384 160 400 206T437 356Q459 467 459 513Q459 567 427 597T349 628ZM273 936H370L421 777H344Z" horiz-adv-x="594" unicode="Ò"/>
			<glyph d="M355 718Q417 718 464 692T536 622T562 521Q562 465 540 356Q515 231 495 174T434 74Q396 34 345 14T237 -6Q175 -6 128 19T56 89T31 191Q31 247 53 356Q78 481 98 538T159 638Q197 678 247 698T355 718ZM349 628Q281 628 233 577Q209 552 193 505T156 356Q134 245 134 199Q134 145 166 114T244 84Q312 84 360 135Q384 160 400 206T437 356Q459 467 459 513Q459 567 427 597T349 628ZM446 936H546L416 777H332Z" horiz-adv-x="594" unicode="Ó"/>
			<glyph d="M355 718Q417 718 464 692T536 622T562 521Q562 465 540 356Q515 231 495 174T434 74Q396 34 345 14T237 -6Q175 -6 128 19T56 89T31 191Q31 247 53 356Q78 481 98 538T159 638Q197 678 247 698T355 718ZM349 628Q281 628 233 577Q209 552 193 505T156 356Q134 245 134 199Q134 145 166 114T244 84Q312 84 360 135Q384 160 400 206T437 356Q459 467 459 513Q459 567 427 597T349 628ZM372 938H454L545 776H468L406 877L302 776H217Z" horiz-adv-x="594" unicode="Ô"/>
			<glyph d="M355 718Q417 718 464 692T536 622T562 521Q562 465 540 356Q515 231 495 174T434 74Q396 34 345 14T237 -6Q175 -6 128 19T56 89T31 191Q31 247 53 356Q78 481 98 538T159 638Q197 678 247 698T355 718ZM349 628Q281 628 233 577Q209 552 193 505T156 356Q134 245 134 199Q134 145 166 114T244 84Q312 84 360 135Q384 160 400 206T437 356Q459 467 459 513Q459 567 427 597T349 628ZM334 897Q357 897 374 890T414 872Q417 871 426 866T444 858T459 856Q476 856 490 864T521 888L559 839Q532 812 508 800T455 789Q432 789 414 795T375 814Q372 815 362 820T345 827T330 830Q314 830 300 822T268 798L230 847Q257 874 281 885T334 897Z" horiz-adv-x="594" unicode="Õ"/>
			<glyph d="M355 718Q417 718 464 692T536 622T562 521Q562 465 540 356Q515 231 495 174T434 74Q396 34 345 14T237 -6Q175 -6 128 19T56 89T31 191Q31 247 53 356Q78 481 98 538T159 638Q197 678 247 698T355 718ZM349 628Q281 628 233 577Q209 552 193 505T156 356Q134 245 134 199Q134 145 166 114T244 84Q312 84 360 135Q384 160 400 206T437 356Q459 467 459 513Q459 567 427 597T349 628ZM284 888Q307 888 323 872T339 833Q339 810 323 794T284 778Q261 778 245 794T229 833Q229 856 245 872T284 888ZM492 888Q515 888 531 872T547 833Q547 810 531 794T492 778Q469 778 453 794T437 833Q437 856 453 872T492 888Z" horiz-adv-x="594" unicode="Ö"/>
			<glyph d="M148 488L258 341L425 486L476 419L309 274L420 128L350 67L240 215L73 69L22 136L188 281L78 428Z" horiz-adv-x="486" unicode="×"/>
			<glyph d="M535 756H615L542 643Q582 590 582 521Q582 465 560 356Q535 231 515 174T454 74Q416 34 365 14T257 -6Q191 -6 143 22L99 -44H20L91 66Q51 118 51 191Q51 247 73 356Q98 481 118 538T179 638Q217 678 267 698T375 718Q441 718 492 688ZM369 628Q301 628 253 577Q229 552 213 505T176 356Q154 245 154 199Q154 178 158 163L440 603Q410 628 369 628ZM475 547L194 107Q223 84 264 84Q332 84 380 135Q404 160 420 206T457 356Q479 467 479 513Q479 527 475 547Z" horiz-adv-x="594" unicode="Ø"/>
			<glyph d="M140 712H243L150 246Q145 226 145 198Q145 151 172 118T257 85Q322 85 368 127T431 251L523 712H626L531 239Q507 119 431 56T250 -6Q194 -6 146 17T70 84T42 192Q42 219 49 254ZM288 936H385L436 777H359Z" horiz-adv-x="623" unicode="Ù"/>
			<glyph d="M140 712H243L150 246Q145 226 145 198Q145 151 172 118T257 85Q322 85 368 127T431 251L523 712H626L531 239Q507 119 431 56T250 -6Q194 -6 146 17T70 84T42 192Q42 219 49 254ZM461 936H561L431 777H347Z" horiz-adv-x="623" unicode="Ú"/>
			<glyph d="M140 712H243L150 246Q145 226 145 198Q145 151 172 118T257 85Q322 85 368 127T431 251L523 712H626L531 239Q507 119 431 56T250 -6Q194 -6 146 17T70 84T42 192Q42 219 49 254ZM387 938H469L560 776H483L421 877L317 776H232Z" horiz-adv-x="623" unicode="Û"/>
			<glyph d="M140 712H243L150 246Q145 226 145 198Q145 151 172 118T257 85Q322 85 368 127T431 251L523 712H626L531 239Q507 119 431 56T250 -6Q194 -6 146 17T70 84T42 192Q42 219 49 254ZM299 888Q322 888 338 872T354 833Q354 810 338 794T299 778Q276 778 260 794T244 833Q244 856 260 872T299 888ZM507 888Q530 888 546 872T562 833Q562 810 546 794T507 778Q484 778 468 794T452 833Q452 856 468 872T507 888Z" horiz-adv-x="623" unicode="Ü"/>
			<glyph d="M64 712H173L258 393L462 712H575L291 289L233 0H130L189 294ZM391 936H491L361 777H277Z" horiz-adv-x="495" unicode="Ý"/>
			<glyph d="M171 712H274L246 573H390Q480 573 528 522T577 393Q577 326 546 270T457 181T319 148H161L131 0H28ZM228 482L179 238H323Q369 238 403 258T455 312T473 385Q473 428 449 455T375 482Z" horiz-adv-x="586" unicode="Þ"/>
			<glyph d="M357 718Q434 718 480 679T527 569Q527 525 505 486T442 426Q484 403 484 349Q484 338 480 316L448 151Q420 0 276 0H218L234 82H268Q285 82 296 86T321 100Q344 117 352 159L384 318Q386 328 386 340Q386 365 371 377T332 390H295L310 467H342Q382 467 406 496T430 562Q430 592 414 609Q389 634 347 634Q242 634 218 517L114 0H16L121 524Q141 625 200 671T357 718Z" horiz-adv-x="518" unicode="ß"/>
			<glyph d="M251 513Q321 513 373 481T426 376Q426 359 421 334L354 0H260L270 47Q244 21 212 7T137 -6Q72 -6 30 28T-12 123Q-12 196 34 242Q87 295 182 295H316L325 336Q328 350 328 366Q328 397 305 414T241 431Q200 431 171 417T118 377L65 442Q99 478 142 495T251 513ZM191 227Q142 227 113 201T84 131Q84 74 165 74Q224 74 259 109Q273 123 280 140T294 182L303 227ZM177 754H274L325 595H248Z" horiz-adv-x="485" unicode="à"/>
			<glyph d="M251 513Q321 513 373 481T426 376Q426 359 421 334L354 0H260L270 47Q244 21 212 7T137 -6Q72 -6 30 28T-12 123Q-12 196 34 242Q87 295 182 295H316L325 336Q328 350 328 366Q328 397 305 414T241 431Q200 431 171 417T118 377L65 442Q99 478 142 495T251 513ZM191 227Q142 227 113 201T84 131Q84 74 165 74Q224 74 259 109Q273 123 280 140T294 182L303 227ZM348 754H448L318 595H234Z" horiz-adv-x="485" unicode="á"/>
			<glyph d="M251 513Q321 513 373 481T426 376Q426 359 421 334L354 0H260L270 47Q244 21 212 7T137 -6Q72 -6 30 28T-12 123Q-12 196 34 242Q87 295 182 295H316L325 336Q328 350 328 366Q328 397 305 414T241 431Q200 431 171 417T118 377L65 442Q99 478 142 495T251 513ZM191 227Q142 227 113 201T84 131Q84 74 165 74Q224 74 259 109Q273 123 280 140T294 182L303 227ZM270 756H352L443 594H366L304 695L200 594H115Z" horiz-adv-x="485" unicode="â"/>
			<glyph d="M251 513Q321 513 373 481T426 376Q426 359 421 334L354 0H260L270 47Q244 21 212 7T137 -6Q72 -6 30 28T-12 123Q-12 196 34 242Q87 295 182 295H316L325 336Q328 350 328 366Q328 397 305 414T241 431Q200 431 171 417T118 377L65 442Q99 478 142 495T251 513ZM191 227Q142 227 113 201T84 131Q84 74 165 74Q224 74 259 109Q273 123 280 140T294 182L303 227ZM232 712Q255 712 272 705T312 687Q315 686 324 681T342 673T357 671Q374 671 388 679T419 703L457 654Q430 627 406 615T353 604Q330 604 312 610T273 629Q270 630 260 635T243 642T228 645Q212 645 198 637T166 613L128 662Q155 689 179 700T232 712Z" horiz-adv-x="485" unicode="ã"/>
			<glyph d="M251 513Q321 513 373 481T426 376Q426 359 421 334L354 0H260L270 47Q244 21 212 7T137 -6Q72 -6 30 28T-12 123Q-12 196 34 242Q87 295 182 295H316L325 336Q328 350 328 366Q328 397 305 414T241 431Q200 431 171 417T118 377L65 442Q99 478 142 495T251 513ZM191 227Q142 227 113 201T84 131Q84 74 165 74Q224 74 259 109Q273 123 280 140T294 182L303 227ZM187 706Q210 706 226 690T242 651Q242 628 226 612T187 596Q164 596 148 612T132 651Q132 674 148 690T187 706ZM395 706Q418 706 434 690T450 651Q450 628 434 612T395 596Q372 596 356 612T340 651Q340 674 356 690T395 706Z" horiz-adv-x="485" unicode="ä"/>
			<glyph d="M251 513Q321 513 373 481T426 376Q426 359 421 334L354 0H260L270 47Q244 21 212 7T137 -6Q72 -6 30 28T-12 123Q-12 196 34 242Q87 295 182 295H316L325 336Q328 350 328 366Q328 397 305 414T241 431Q200 431 171 417T118 377L65 442Q99 478 142 495T251 513ZM191 227Q142 227 113 201T84 131Q84 74 165 74Q224 74 259 109Q273 123 280 140T294 182L303 227ZM299 820Q350 820 386 784T422 698Q422 647 386 611T299 575Q248 575 212 610T177 698Q177 749 212 784T299 820ZM299 762Q273 762 254 743T235 698Q235 672 254 653T299 634Q325 634 344 653T364 698Q364 724 344 743T299 762Z" horiz-adv-x="485" unicode="å"/>
			<glyph d="M271 513Q317 513 356 497T418 446Q482 513 572 513Q652 513 699 464T746 336Q746 294 732 226H417Q412 198 412 177Q412 130 436 103T509 76Q548 76 578 89T640 132L694 68Q615 -6 499 -6Q449 -6 408 14T345 73Q312 32 270 13T170 -6Q95 -6 51 26T8 123Q8 197 52 241Q106 295 201 295H336L344 335Q348 353 348 366Q348 431 260 431Q219 431 190 417T137 377L85 442Q118 479 161 496T271 513ZM568 433Q468 433 429 293H649Q653 308 653 336Q653 383 629 408T568 433ZM211 227Q161 227 132 201T104 131Q104 103 123 88T185 74Q243 74 278 109Q305 136 314 182L322 227Z" horiz-adv-x="780" unicode="æ"/>
			<glyph d="M281 513Q376 513 429 440L356 377Q338 403 318 415T271 427Q220 427 180 386Q136 341 120 254Q113 222 113 183Q113 133 137 106T203 80Q234 80 259 92T309 131L364 61Q292 -6 195 -6Q114 -6 65 43T16 176Q16 216 23 254Q48 388 117 450T281 513ZM155 11H223L192 -42Q219 -50 234 -69T249 -113Q249 -155 215 -180T129 -205Q84 -205 40 -187L70 -125Q107 -141 127 -141Q144 -141 154 -133T164 -113Q164 -97 148 -89T101 -79Z" horiz-adv-x="444" unicode="ç"/>
			<glyph d="M270 513Q350 513 396 464T443 336Q443 291 428 226H114Q109 199 109 177Q109 130 133 103T206 76Q245 76 275 89T337 132L391 68Q312 -6 197 -6Q120 -6 68 38T16 171Q16 256 44 334T129 463T270 513ZM265 433Q165 433 126 293H346Q350 313 350 336Q350 383 326 408T265 433ZM190 754H287L338 595H261Z" horiz-adv-x="497" unicode="è"/>
			<glyph d="M270 513Q350 513 396 464T443 336Q443 291 428 226H114Q109 199 109 177Q109 130 133 103T206 76Q245 76 275 89T337 132L391 68Q312 -6 197 -6Q120 -6 68 38T16 171Q16 256 44 334T129 463T270 513ZM265 433Q165 433 126 293H346Q350 313 350 336Q350 383 326 408T265 433ZM361 754H461L331 595H247Z" horiz-adv-x="497" unicode="é"/>
			<glyph d="M270 513Q350 513 396 464T443 336Q443 291 428 226H114Q109 199 109 177Q109 130 133 103T206 76Q245 76 275 89T337 132L391 68Q312 -6 197 -6Q120 -6 68 38T16 171Q16 256 44 334T129 463T270 513ZM265 433Q165 433 126 293H346Q350 313 350 336Q350 383 326 408T265 433ZM283 756H365L456 594H379L317 695L213 594H128Z" horiz-adv-x="497" unicode="ê"/>
			<glyph d="M270 513Q350 513 396 464T443 336Q443 291 428 226H114Q109 199 109 177Q109 130 133 103T206 76Q245 76 275 89T337 132L391 68Q312 -6 197 -6Q120 -6 68 38T16 171Q16 256 44 334T129 463T270 513ZM265 433Q165 433 126 293H346Q350 313 350 336Q350 383 326 408T265 433ZM200 706Q223 706 239 690T255 651Q255 628 239 612T200 596Q177 596 161 612T145 651Q145 674 161 690T200 706ZM408 706Q431 706 447 690T463 651Q463 628 447 612T408 596Q385 596 369 612T353 651Q353 674 369 690T408 706Z" horiz-adv-x="497" unicode="ë"/>
			<glyph d="M98 507H195L94 0H-3ZM56 754H153L204 595H127Z" horiz-adv-x="230" unicode="ì"/>
			<glyph d="M98 507H195L94 0H-3ZM227 754H327L197 595H113Z" horiz-adv-x="230" unicode="í"/>
			<glyph d="M98 507H195L94 0H-3ZM149 756H231L322 594H245L183 695L79 594H-6Z" horiz-adv-x="230" unicode="î"/>
			<glyph d="M98 507H195L94 0H-3ZM66 706Q89 706 105 690T121 651Q121 628 105 612T66 596Q43 596 27 612T11 651Q11 674 27 690T66 706ZM274 706Q297 706 313 690T329 651Q329 628 313 612T274 596Q251 596 235 612T219 651Q219 674 235 690T274 706Z" horiz-adv-x="230" unicode="ï"/>
			<glyph d="M249 717H348L372 645H454L441 576H391L423 482Q439 435 444 402T450 338Q450 299 441 249Q427 180 405 130T348 48Q288 -6 201 -6Q136 -6 86 33T36 161Q36 201 46 249Q61 326 82 371T137 449Q162 472 196 486T266 500Q297 500 325 490L294 576H182L195 645H274ZM277 419Q256 419 236 410T202 388Q181 368 167 335T143 249Q133 197 133 165Q133 119 155 99T209 80Q254 80 285 111Q306 130 319 163T344 249Q354 301 354 334Q354 379 331 399T277 419Z" unicode="ð"/>
			<glyph d="M323 513Q378 513 417 476T457 371Q457 345 452 318L388 0H291L353 311Q358 336 358 351Q358 388 336 407T282 427Q245 427 207 401T156 309L94 0H-3L98 507H192L182 455Q235 513 323 513ZM262 712Q285 712 302 705T342 687Q345 686 354 681T372 673T387 671Q404 671 418 679T449 703L487 654Q460 627 436 615T383 604Q360 604 342 610T303 629Q300 630 290 635T273 642T258 645Q242 645 228 637T196 613L158 662Q185 689 209 700T262 712Z" horiz-adv-x="520" unicode="ñ"/>
			<glyph d="M267 513Q336 513 385 471T434 346Q434 306 425 254Q409 174 387 128T332 51Q271 -6 181 -6Q112 -6 63 36T14 161Q14 202 23 254Q38 333 60 378T116 456Q178 513 267 513ZM258 427Q212 427 180 395Q160 375 145 341T120 254Q110 203 110 171Q110 125 132 102T190 80Q236 80 268 112Q289 133 303 165T328 254Q338 305 338 337Q338 383 316 405T258 427ZM190 754H287L338 595H261Z" unicode="ò"/>
			<glyph d="M267 513Q336 513 385 471T434 346Q434 306 425 254Q409 174 387 128T332 51Q271 -6 181 -6Q112 -6 63 36T14 161Q14 202 23 254Q38 333 60 378T116 456Q178 513 267 513ZM258 427Q212 427 180 395Q160 375 145 341T120 254Q110 203 110 171Q110 125 132 102T190 80Q236 80 268 112Q289 133 303 165T328 254Q338 305 338 337Q338 383 316 405T258 427ZM361 754H461L331 595H247Z" unicode="ó"/>
			<glyph d="M267 513Q336 513 385 471T434 346Q434 306 425 254Q409 174 387 128T332 51Q271 -6 181 -6Q112 -6 63 36T14 161Q14 202 23 254Q38 333 60 378T116 456Q178 513 267 513ZM258 427Q212 427 180 395Q160 375 145 341T120 254Q110 203 110 171Q110 125 132 102T190 80Q236 80 268 112Q289 133 303 165T328 254Q338 305 338 337Q338 383 316 405T258 427ZM283 756H365L456 594H379L317 695L213 594H128Z" unicode="ô"/>
			<glyph d="M267 513Q336 513 385 471T434 346Q434 306 425 254Q409 174 387 128T332 51Q271 -6 181 -6Q112 -6 63 36T14 161Q14 202 23 254Q38 333 60 378T116 456Q178 513 267 513ZM258 427Q212 427 180 395Q160 375 145 341T120 254Q110 203 110 171Q110 125 132 102T190 80Q236 80 268 112Q289 133 303 165T328 254Q338 305 338 337Q338 383 316 405T258 427ZM245 712Q268 712 285 705T325 687Q328 686 337 681T355 673T370 671Q387 671 401 679T432 703L470 654Q443 627 419 615T366 604Q343 604 325 610T286 629Q283 630 273 635T256 642T241 645Q225 645 211 637T179 613L141 662Q168 689 192 700T245 712Z" unicode="õ"/>
			<glyph d="M267 513Q336 513 385 471T434 346Q434 306 425 254Q409 174 387 128T332 51Q271 -6 181 -6Q112 -6 63 36T14 161Q14 202 23 254Q38 333 60 378T116 456Q178 513 267 513ZM258 427Q212 427 180 395Q160 375 145 341T120 254Q110 203 110 171Q110 125 132 102T190 80Q236 80 268 112Q289 133 303 165T328 254Q338 305 338 337Q338 383 316 405T258 427ZM200 706Q223 706 239 690T255 651Q255 628 239 612T200 596Q177 596 161 612T145 651Q145 674 161 690T200 706ZM408 706Q431 706 447 690T463 651Q463 628 447 612T408 596Q385 596 369 612T353 651Q353 674 369 690T408 706Z" unicode="ö"/>
			<glyph d="M282 521Q307 521 324 503T342 461Q342 436 324 418T282 400Q257 400 239 418T221 461Q221 486 239 503T282 521ZM51 323H465L447 233H33ZM214 155Q239 155 256 137T274 95Q274 70 256 52T214 34Q189 34 171 52T153 95Q153 120 171 137T214 155Z" horiz-adv-x="486" unicode="÷"/>
			<glyph d="M436 551H501L425 448Q454 406 454 346Q454 306 445 254Q429 174 407 128T352 51Q291 -6 201 -6Q143 -6 102 21L54 -44H-12L64 58Q34 97 34 161Q34 202 43 254Q58 333 80 378T136 456Q198 513 287 513Q344 513 387 485ZM278 427Q232 427 200 395Q180 375 165 341T140 254Q130 203 130 171Q130 155 133 141L332 408Q312 427 278 427ZM356 364L157 98Q178 80 210 80Q256 80 288 112Q309 133 323 165T348 254Q358 305 358 337Q358 348 356 364Z" unicode="ø"/>
			<glyph d="M92 507H189L127 196Q122 171 122 156Q122 119 143 99T198 80Q235 80 273 106T324 198L386 507H483L382 0H288L298 52Q245 -6 157 -6Q102 -6 62 30T23 136Q23 162 28 189ZM201 754H298L349 595H272Z" horiz-adv-x="520" unicode="ù"/>
			<glyph d="M92 507H189L127 196Q122 171 122 156Q122 119 143 99T198 80Q235 80 273 106T324 198L386 507H483L382 0H288L298 52Q245 -6 157 -6Q102 -6 62 30T23 136Q23 162 28 189ZM372 754H472L342 595H258Z" horiz-adv-x="520" unicode="ú"/>
			<glyph d="M92 507H189L127 196Q122 171 122 156Q122 119 143 99T198 80Q235 80 273 106T324 198L386 507H483L382 0H288L298 52Q245 -6 157 -6Q102 -6 62 30T23 136Q23 162 28 189ZM294 756H376L467 594H390L328 695L224 594H139Z" horiz-adv-x="520" unicode="û"/>
			<glyph d="M92 507H189L127 196Q122 171 122 156Q122 119 143 99T198 80Q235 80 273 106T324 198L386 507H483L382 0H288L298 52Q245 -6 157 -6Q102 -6 62 30T23 136Q23 162 28 189ZM211 706Q234 706 250 690T266 651Q266 628 250 612T211 596Q188 596 172 612T156 651Q156 674 172 690T211 706ZM419 706Q442 706 458 690T474 651Q474 628 458 612T419 596Q396 596 380 612T364 651Q364 674 380 690T419 706Z" horiz-adv-x="520" unicode="ü"/>
			<glyph d="M28 507H125L167 136L355 507H459L130 -105Q109 -143 87 -165Q65 -186 38 -195T-25 -205H-65L-47 -118H-22Q7 -118 23 -105T57 -58L99 20ZM321 754H421L291 595H207Z" horiz-adv-x="424" unicode="ý"/>
			<glyph d="M159 712H256L206 458Q227 482 257 497T335 513Q407 513 441 470T475 364Q475 319 462 254Q446 173 427 124T378 45Q327 -6 247 -6Q206 -6 174 9T126 55L73 -205H-24ZM300 427Q240 427 210 383T165 254Q154 192 154 168Q154 80 229 80Q289 80 319 125T365 254Q376 316 376 339Q376 427 300 427Z" horiz-adv-x="505" unicode="þ"/>
			<glyph d="M28 507H125L167 136L355 507H459L130 -105Q109 -143 87 -165Q65 -186 38 -195T-25 -205H-65L-47 -118H-22Q7 -118 23 -105T57 -58L99 20ZM160 706Q183 706 199 690T215 651Q215 628 199 612T160 596Q137 596 121 612T105 651Q105 674 121 690T160 706ZM368 706Q391 706 407 690T423 651Q423 628 407 612T368 596Q345 596 329 612T313 651Q313 674 329 690T368 706Z" horiz-adv-x="424" unicode="ÿ"/>
			<glyph d="M318 712H401L507 0H402L384 146H116L39 0H-72ZM332 558L159 231H375ZM411 0H500Q411 -57 411 -103Q411 -118 419 -126T442 -134Q455 -134 465 -128T490 -111L531 -158Q507 -183 483 -194T427 -205Q385 -205 357 -180T330 -119Q330 -87 348 -58T411 0Z" horiz-adv-x="574" unicode="Ą"/>
			<glyph d="M251 513Q321 513 373 481T426 376Q426 359 421 334L354 0H260L270 47Q244 21 212 7T137 -6Q72 -6 30 28T-12 123Q-12 196 34 242Q87 295 182 295H316L325 336Q328 350 328 366Q328 397 305 414T241 431Q200 431 171 417T118 377L65 442Q99 478 142 495T251 513ZM191 227Q142 227 113 201T84 131Q84 74 165 74Q224 74 259 109Q273 123 280 140T294 182L303 227ZM260 0H349Q260 -57 260 -103Q260 -118 268 -126T291 -134Q304 -134 314 -128T339 -111L380 -158Q356 -183 332 -194T276 -205Q234 -205 206 -180T179 -119Q179 -87 197 -58T260 0Z" horiz-adv-x="485" unicode="ą"/>
			<glyph d="M354 718Q456 718 510 658T565 503H462Q461 560 432 594T349 628Q282 628 234 577Q209 551 193 505T157 356Q134 239 134 197Q134 145 167 114T250 84Q309 84 350 120T409 209H512Q479 105 408 49T243 -6Q181 -6 133 18T58 88T31 191Q31 247 53 356Q71 444 83 490T113 571T160 638Q196 677 247 697T354 718ZM446 936H546L416 777H332Z" horiz-adv-x="579" unicode="Ć"/>
			<glyph d="M281 513Q376 513 429 440L356 377Q338 403 318 415T271 427Q220 427 180 386Q136 341 120 254Q113 222 113 183Q113 133 137 106T203 80Q234 80 259 92T309 131L364 61Q292 -6 195 -6Q114 -6 65 43T16 176Q16 216 23 254Q48 388 117 450T281 513ZM361 754H461L331 595H247Z" horiz-adv-x="444" unicode="ć"/>
			<glyph d="M151 712H583L565 622H236L193 404H475L457 314H175L130 90H465L447 0H8ZM333 0H422Q333 -57 333 -103Q333 -118 341 -126T364 -134Q377 -134 387 -128T412 -111L453 -158Q429 -183 405 -194T349 -205Q307 -205 279 -180T252 -119Q252 -87 270 -58T333 0Z" horiz-adv-x="555" unicode="Ę"/>
			<glyph d="M290 513Q370 513 416 464T463 336Q463 291 448 226H134Q129 199 129 177Q129 130 153 103T226 76Q265 76 295 89T357 132L411 68Q395 52 330 9Q228 -58 228 -106Q228 -119 236 -126T259 -134Q272 -134 283 -128T311 -108L348 -158Q320 -183 296 -194T244 -205Q201 -205 174 -182T147 -122Q147 -58 218 -6H217Q140 -6 88 38T36 171Q36 256 64 334T149 463T290 513ZM285 433Q185 433 146 293H366Q370 313 370 336Q370 383 346 408T285 433Z" horiz-adv-x="497" unicode="ę"/>
			<glyph d="M118 507H215L114 0H17Z" horiz-adv-x="230" unicode="ı"/>
			<glyph d="M184 712H287L230 425L382 514L363 422L211 333L163 90H491L474 0H42L95 267L22 224L40 316L114 359Z" horiz-adv-x="542" unicode="Ł"/>
			<glyph d="M168 712H265L216 468L293 511L275 423L198 380L153 154Q149 132 149 121Q149 103 161 92T199 82H238L222 0H174Q110 0 78 32Q50 60 50 103Q50 121 57 156L90 320L29 286L46 374L107 408Z" horiz-adv-x="290" unicode="ł"/>
			<glyph d="M151 712H242L456 202L558 712H661L518 0H428L214 510L111 0H8ZM483 936H583L453 777H369Z" horiz-adv-x="668" unicode="Ń"/>
			<glyph d="M323 513Q378 513 417 476T457 371Q457 345 452 318L388 0H291L353 311Q358 336 358 351Q358 388 336 407T282 427Q245 427 207 401T156 309L94 0H-3L98 507H192L182 455Q235 513 323 513ZM378 754H478L348 595H264Z" horiz-adv-x="520" unicode="ń"/>
			<glyph d="M375 718Q425 718 462 698T519 645L532 712H962L944 622H614L572 404H854L836 314H554L509 90H844L826 0H394L406 57Q381 27 342 10T253 -6Q193 -6 147 19T76 89T51 191Q51 247 73 356Q98 480 118 537T179 638Q216 678 266 698T375 718ZM369 628Q301 628 253 577Q229 553 212 505T176 356Q154 245 154 199Q154 144 185 114T264 84Q331 84 380 135Q404 161 420 206T458 356Q479 462 479 513Q479 568 447 598T369 628Z" horiz-adv-x="914" unicode="Œ"/>
			<glyph d="M286 513Q333 513 370 492T427 430Q488 513 593 513Q673 513 719 464T766 336Q766 294 752 226H437Q432 194 432 177Q432 131 456 103T530 76Q569 76 599 89T661 132L714 68Q635 -6 521 -6Q472 -6 432 13T370 78Q340 37 296 15T201 -6Q132 -6 82 36T33 161Q33 197 43 254Q58 332 80 378T136 456Q196 513 286 513ZM588 433Q488 433 449 293H669Q673 313 673 336Q673 383 649 408T588 433ZM278 427Q232 427 200 395Q180 375 165 341T140 254Q130 203 130 171Q130 125 152 102T210 80Q256 80 288 112Q309 133 323 165T348 254Q358 305 358 337Q358 383 336 405T278 427Z" horiz-adv-x="801" unicode="œ"/>
			<glyph d="M339 718Q467 718 534 634L462 571Q437 601 405 615T327 629Q281 629 246 610T192 560T174 496Q174 461 197 441T263 412L325 397Q410 377 446 335T483 218Q483 146 446 95T346 19T207 -6Q128 -6 74 17T-24 92L52 158Q82 120 121 102T216 85Q262 85 299 101T358 146T380 211Q380 254 358 274T292 305L229 320Q155 338 113 379T71 485Q71 546 102 599T193 685T339 718ZM426 936H526L396 777H312Z" horiz-adv-x="541" unicode="Ś"/>
			<glyph d="M252 513Q305 513 344 499T416 454L349 394Q308 433 242 433Q191 433 163 409T135 352Q135 313 195 304L262 294Q328 284 356 253T385 166Q385 101 333 50Q304 22 257 8T157 -6Q92 -6 46 12T-34 68L36 130Q58 103 88 90T165 77Q205 77 232 89T274 120T288 159Q288 184 273 196T229 212L162 222Q94 233 66 263T38 334Q38 367 50 399T87 456Q144 513 252 513ZM339 754H439L309 595H225Z" horiz-adv-x="453" unicode="ś"/>
			<glyph d="M339 718Q467 718 534 634L462 571Q437 601 405 615T327 629Q281 629 246 610T192 560T174 496Q174 461 197 441T263 412L325 397Q410 377 446 335T483 218Q483 146 446 95T346 19T207 -6Q128 -6 74 17T-24 92L52 158Q82 120 121 102T216 85Q262 85 299 101T358 146T380 211Q380 254 358 274T292 305L229 320Q155 338 113 379T71 485Q71 546 102 599T193 685T339 718ZM229 938H306L368 838L472 938H557L402 776H320Z" horiz-adv-x="541" unicode="Š"/>
			<glyph d="M252 513Q305 513 344 499T416 454L349 394Q308 433 242 433Q191 433 163 409T135 352Q135 313 195 304L262 294Q328 284 356 253T385 166Q385 101 333 50Q304 22 257 8T157 -6Q92 -6 46 12T-34 68L36 130Q58 103 88 90T165 77Q205 77 232 89T274 120T288 159Q288 184 273 196T229 212L162 222Q94 233 66 263T38 334Q38 367 50 399T87 456Q144 513 252 513ZM139 756H216L278 656L382 756H467L312 594H230Z" horiz-adv-x="453" unicode="š"/>
			<glyph d="M64 712H173L258 393L462 712H575L291 289L233 0H130L189 294ZM229 888Q252 888 268 872T284 833Q284 810 268 794T229 778Q206 778 190 794T174 833Q174 856 190 872T229 888ZM437 888Q460 888 476 872T492 833Q492 810 476 794T437 778Q414 778 398 794T382 833Q382 856 398 872T437 888Z" horiz-adv-x="495" unicode="Ÿ"/>
			<glyph d="M116 712H540L523 630L107 91H422L404 0H-33L-17 82L397 621H98ZM411 936H511L381 777H297Z" horiz-adv-x="512" unicode="Ź"/>
			<glyph d="M72 507H424L409 430L104 86H347L330 0H-37L-21 77L282 421H54ZM330 754H430L300 595H216Z" horiz-adv-x="430" unicode="ź"/>
			<glyph d="M116 712H540L523 630L107 91H422L404 0H-33L-17 82L397 621H98ZM358 889Q381 889 397 873T413 835Q413 812 397 796T359 780Q336 780 320 795T304 834Q304 857 319 873T358 889Z" horiz-adv-x="512" unicode="Ż"/>
			<glyph d="M72 507H424L409 430L104 86H347L330 0H-37L-21 77L282 421H54ZM273 713Q296 713 312 697T328 659Q328 636 312 620T274 604Q251 604 235 619T219 658Q219 681 234 697T273 713Z" horiz-adv-x="430" unicode="ż"/>
			<glyph d="M116 712H540L523 630L107 91H422L404 0H-33L-17 82L397 621H98ZM214 938H291L353 838L457 938H542L387 776H305Z" horiz-adv-x="512" unicode="Ž"/>
			<glyph d="M72 507H424L409 430L104 86H347L330 0H-37L-21 77L282 421H54ZM129 756H206L268 656L372 756H457L302 594H220Z" horiz-adv-x="430" unicode="ž"/>
			<glyph d="M391 716H449L432 635H379Q324 635 301 575L234 391H325L311 317H207L16 -205H-81L111 317H53L68 391H138L206 576Q232 649 274 682T391 716Z" horiz-adv-x="374" unicode="ƒ"/>
			<glyph d="M303 756H385L476 594H399L337 695L233 594H148Z" unicode="ˆ"/>
			<glyph d="M181 756H258L320 656L424 756H509L354 594H272Z" unicode="ˇ"/>
			<glyph d="M193 720H262Q261 715 261 703Q261 680 279 667T327 655Q362 655 382 670T411 720H481Q466 649 426 617T320 586Q258 586 224 614T191 693Q191 702 193 720Z" unicode="˘"/>
			<glyph d="M325 713Q348 713 364 697T380 659Q380 636 364 620T326 604Q303 604 287 619T271 658Q271 681 286 697T325 713Z" unicode="˙"/>
			<glyph d="M332 820Q383 820 419 784T455 698Q455 647 419 611T332 575Q281 575 245 610T210 698Q210 749 245 784T332 820ZM332 762Q306 762 287 743T268 698Q268 672 287 653T332 634Q358 634 377 653T397 698Q397 724 377 743T332 762Z" unicode="˚"/>
			<glyph d="M180 0H269Q180 -57 180 -103Q180 -118 188 -126T211 -134Q224 -134 234 -128T259 -111L300 -158Q276 -183 252 -194T196 -205Q154 -205 126 -180T99 -119Q99 -87 117 -58T180 0Z" unicode="˛"/>
			<glyph d="M265 712Q288 712 305 705T345 687Q348 686 357 681T375 673T390 671Q407 671 421 679T452 703L490 654Q463 627 439 615T386 604Q363 604 345 610T306 629Q303 630 293 635T276 642T261 645Q245 645 231 637T199 613L161 662Q188 689 212 700T265 712Z" unicode="˜"/>
			<glyph d="M282 754H382L252 595H168ZM478 754H578L448 595H364Z" unicode="˝"/>
			<glyph d="M-83 754H14L65 595H-12Z" horiz-adv-x="0" unicode="̀"/>
			<glyph d="M-2 754H98L-32 595H-116Z" horiz-adv-x="0" unicode="́"/>
			<glyph d="M-70 712Q-47 712 -29 705T10 687Q13 686 22 681T40 673T55 671Q72 671 86 679T117 703L155 654Q128 627 104 615T51 604Q28 604 10 610T-29 629Q-32 630 -41 635T-59 642T-74 645Q-90 645 -103 637T-136 613L-174 662Q-147 689 -123 700T-70 712Z" horiz-adv-x="0" unicode="̃"/>
			<glyph d="M68 323H477L459 233H50Z" horiz-adv-x="517" unicode="–"/>
			<glyph d="M68 323H865L847 233H50Z" horiz-adv-x="905" unicode="—"/>
			<glyph d="M194 712H258L193 580Q218 575 234 556T250 514Q250 486 230 466T182 447Q154 447 134 466T114 514Q114 530 119 546T143 605T194 712Z" horiz-adv-x="248" unicode="‘"/>
			<glyph d="M198 718Q226 718 246 698T266 651Q266 635 261 618T236 559T186 453H122L187 585Q162 590 146 608T130 651Q130 679 150 698T198 718Z" horiz-adv-x="248" unicode="’"/>
			<glyph d="M72 131Q100 131 120 111T140 64Q140 48 135 31T110 -27T60 -134H-4L61 -2Q36 3 20 21T4 64Q4 92 24 111T72 131Z" horiz-adv-x="262" unicode="‚"/>
			<glyph d="M174 712H238L173 580Q198 575 214 556T230 514Q230 486 210 466T162 447Q134 447 114 466T94 514Q94 530 99 546T123 605T174 712ZM364 712H428L363 580Q388 575 404 556T420 514Q420 486 400 466T352 447Q324 447 304 466T284 514Q284 530 289 546T313 605T364 712Z" horiz-adv-x="438" unicode="“"/>
			<glyph d="M178 718Q206 718 226 698T246 651Q246 635 241 618T216 559T166 453H102L167 585Q142 590 126 608T110 651Q110 679 130 698T178 718ZM368 718Q396 718 416 698T436 651Q436 635 431 618T406 559T356 453H292L357 585Q332 590 316 608T300 651Q300 679 320 698T368 718Z" horiz-adv-x="438" unicode="”"/>
			<glyph d="M72 131Q100 131 120 111T140 64Q140 48 135 31T110 -27T60 -134H-4L61 -2Q36 3 20 21T4 64Q4 92 24 111T72 131ZM262 131Q290 131 310 111T330 64Q330 48 325 31T300 -27T250 -134H186L251 -2Q226 3 210 21T194 64Q194 92 214 111T262 131Z" horiz-adv-x="452" unicode="„"/>
			<glyph d="M314 712H410L371 516H542L525 431H354L268 0H172L258 431H87L105 516H275Z" horiz-adv-x="540" unicode="†"/>
			<glyph d="M314 712H411L372 516H543L526 431H355L284 80H457L440 -6H267L227 -205H131L171 -6H2L19 80H188L258 431H87L105 516H275Z" horiz-adv-x="543" unicode="‡"/>
			<glyph d="M238 430Q306 430 349 387T392 276Q392 209 349 165T238 122Q171 122 127 165T84 276Q84 344 127 387T238 430Z" horiz-adv-x="467" unicode="•"/>
			<glyph d="M88 135Q117 135 137 115T157 66Q157 37 137 17T88 -3Q59 -3 39 17T19 66Q19 95 39 115T88 135ZM335 135Q364 135 384 115T404 66Q404 37 384 17T335 -3Q306 -3 286 17T266 66Q266 95 286 115T335 135ZM582 135Q611 135 631 115T651 66Q651 37 631 17T582 -3Q553 -3 533 17T513 66Q513 95 533 115T582 135Z" horiz-adv-x="742" unicode="…"/>
			<glyph d="M265 718Q313 718 347 691T381 611Q381 592 377 575L358 480Q331 345 205 345Q157 345 123 371T89 452Q89 471 93 488L112 583Q139 718 265 718ZM605 712H685L224 0H145ZM257 654Q198 654 184 583L165 488Q162 473 162 460Q162 409 213 409Q272 409 286 480L305 575Q308 590 308 603Q308 654 257 654ZM624 367Q672 367 706 340T740 260Q740 241 736 224L717 129Q690 -6 564 -6Q516 -6 482 20T448 101Q448 120 452 137L471 232Q498 367 624 367ZM961 367Q1009 367 1043 340T1077 260Q1077 241 1073 224L1054 129Q1027 -6 901 -6Q853 -6 819 20T785 101Q785 120 789 137L808 232Q835 367 961 367ZM616 303Q557 303 543 232L524 137Q521 122 521 109Q521 58 572 58Q631 58 645 129L664 224Q667 239 667 252Q667 303 616 303ZM953 303Q894 303 880 232L861 137Q858 122 858 109Q858 58 909 58Q968 58 982 129L1001 224Q1004 239 1004 252Q1004 303 953 303Z" horiz-adv-x="1125" unicode="‰"/>
			<glyph d="M294 500L268 372L143 264L226 155L204 42L29 272Z" horiz-adv-x="302" unicode="‹"/>
			<glyph d="M105 500L280 270L15 42L41 169L166 278L83 387Z" horiz-adv-x="302" unicode="›"/>
			<glyph d="M296 712H376L-85 0H-164Z" horiz-adv-x="169" unicode="⁄"/>
			<glyph d="M412 718Q514 718 568 658T623 503H520Q519 560 491 594T408 628Q372 628 345 615T293 577Q275 559 263 534T239 464H415L402 401H224L207 315H386L373 252H198Q193 227 193 197Q193 145 226 114T309 84Q368 84 408 119T468 209H573Q541 105 468 49T301 -6Q239 -6 191 18T116 88T89 191Q89 210 95 252H29L41 315H104L121 401H58L71 464H135Q150 528 168 567T219 638Q257 677 307 697T412 718Z" horiz-adv-x="617" unicode="€"/>
			<glyph d="M120 712H409L396 646H289L217 285H144L217 646H106ZM477 712H549L620 468L789 712H863L779 285H705L761 567L640 389H575L523 570L466 285H393Z" horiz-adv-x="819" unicode="™"/>
			<glyph d="M278 719Q325 719 364 696T425 635T447 549Q447 502 425 463T364 402T278 380Q231 380 192 402T130 463T108 549Q108 596 130 635T192 696T278 719ZM277 642Q239 642 213 615T187 549Q187 510 213 483T278 457Q317 457 343 483T369 549Q369 588 342 615T277 642Z" horiz-adv-x="438" unicode="∂"/>
			<glyph d="M256 718Q341 718 390 663L338 618Q309 654 254 654Q214 654 189 635T165 586Q165 568 175 558T210 543L258 531Q308 518 333 492T358 417Q358 355 310 318T185 282Q85 282 33 346L86 393Q121 348 184 348Q230 348 257 364T285 414Q285 436 274 448T238 465L189 476Q141 487 117 512T93 581Q93 619 113 650T171 700T256 718ZM495 712H567L638 468L807 712H881L797 285H723L779 567L658 389H593L541 570L484 285H411Z" horiz-adv-x="837" unicode="∑"/>
			<glyph d="M53 324H462L444 234H35Z" horiz-adv-x="486" unicode="−"/>
			<glyph d="M40 712H752V0H40ZM235 548V455L471 354L235 251V157L575 315V391Z" horiz-adv-x="792" unicode="∞"/>
			<glyph d="M80 962H1055Q1078 962 1086 953T1095 922V-92Q1095 -115 1086 -123T1055 -132H80Q58 -132 49 -123T40 -92V922Q40 945 49 953T80 962ZM73 929V-99H1062V929ZM566 894Q778 894 904 835Q964 807 988 771T1013 675Q1013 623 997 591T951 560Q940 560 924 568L721 655Q712 660 712 670Q712 679 723 699Q735 723 735 732Q735 757 692 766T566 775Q487 775 444 766T401 732Q401 722 414 694Q423 674 423 670Q423 661 412 655L209 568Q191 560 181 560Q151 560 137 591T123 675Q123 734 151 772T238 835Q375 894 566 894ZM153 511H230Q251 511 251 490V414Q251 394 230 394H153Q133 394 133 414V490Q133 511 153 511ZM341 511H418Q439 511 439 490V414Q439 394 418 394H341Q321 394 321 414V490Q321 511 341 511ZM529 511H606Q627 511 627 490V414Q627 394 606 394H529Q509 394 509 414V490Q509 511 529 511ZM717 511H794Q815 511 815 490V414Q815 394 794 394H717Q697 394 697 414V490Q697 511 717 511ZM905 511H982Q1003 511 1003 490V414Q1003 394 982 394H905Q885 394 885 414V490Q885 511 905 511ZM247 361H324Q345 361 345 340V264Q345 244 324 244H247Q227 244 227 264V340Q227 361 247 361ZM435 361H512Q533 361 533 340V264Q533 244 512 244H435Q415 244 415 264V340Q415 361 435 361ZM623 361H700Q721 361 721 340V264Q721 244 700 244H623Q603 244 603 264V340Q603 361 623 361ZM811 361H888Q909 361 909 340V264Q909 244 888 244H811Q791 244 791 264V340Q791 361 811 361ZM153 201H230Q251 201 251 180V104Q251 84 230 84H153Q133 84 133 104V180Q133 201 153 201ZM341 201H418Q439 201 439 180V104Q439 84 418 84H341Q321 84 321 104V180Q321 201 341 201ZM529 201H606Q627 201 627 180V104Q627 84 606 84H529Q509 84 509 104V180Q509 201 529 201ZM717 201H794Q815 201 815 180V104Q815 84 794 84H717Q697 84 697 104V180Q697 201 717 201ZM905 201H982Q1003 201 1003 180V104Q1003 84 982 84H905Q885 84 885 104V180Q885 201 905 201ZM229 27H906Q927 27 927 6V-29Q927 -49 906 -49H229Q209 -49 209 -29V6Q209 27 229 27Z" horiz-adv-x="1135" unicode="≈"/>
			<glyph d="M481 582L460 475L198 358L416 237L396 140L79 325L96 406ZM65 250L382 65L363 -29L46 156Z" horiz-adv-x="486" unicode="≤"/>
			<glyph d="M135 586L452 401L435 319L50 144L71 250L333 367L116 488ZM423 244L403 141L18 -35L38 68Z" horiz-adv-x="486" unicode="≥"/>
			<glyph d="M577 971L1046 692V602H971V254H183V602H108V692ZM577 858L277 682V342H877V682ZM401 644H753V557H401ZM401 519H753V432H401ZM212 206Q231 206 237 194T244 160Q244 149 243 141T238 128L247 119L240 112L231 120Q223 115 212 115Q194 115 187 126T180 160Q180 182 186 194T212 206ZM645 206Q664 206 670 194T677 160Q677 139 670 127T645 115Q626 115 619 126T613 160Q613 181 619 193T645 206ZM807 206Q824 206 835 196L826 187Q818 194 806 194Q799 194 794 190T790 180Q790 170 803 168L815 166Q838 162 838 141Q838 129 829 122T806 115Q786 115 774 127L783 136Q791 127 806 127Q824 127 824 141Q824 147 821 149T811 154L800 156Q777 160 777 180Q777 192 785 199T807 206ZM1013 206Q1027 206 1035 198T1045 178H1031Q1028 194 1013 194Q1001 194 997 185T994 160Q994 144 997 135T1013 127Q1031 127 1031 147V152H1012V164H1045V150Q1045 133 1037 124T1013 115Q995 115 987 127T980 160Q980 182 986 194T1013 206ZM108 205H165V193H121V167H158V155H121V128H165V116H108ZM263 205H276V146Q276 137 281 132T295 127Q303 127 308 132T313 146V205H327V146Q327 132 318 123T295 115Q281 115 272 123T263 146ZM371 205H382L415 116H400L394 134H359L353 116H338ZM427 205H441V128H484V116H427ZM529 205H543V167H579V205H593V116H579V155H543V116H529ZM696 205H709V146Q709 137 714 132T728 127Q736 127 741 132T746 146V205H760V146Q760 132 751 123T728 115Q714 115 705 123T696 145ZM856 205H869V116H856ZM893 205H905L946 142V205H960V116H948L906 178V116H893ZM212 194Q201 194 197 185T193 160Q193 145 196 136T212 127Q218 127 222 130L212 139L219 147L229 138Q231 146 231 160Q231 176 227 185T212 194ZM645 194Q634 194 630 185T626 160Q626 145 629 136T645 127Q656 127 660 135T664 160Q664 176 660 185T645 194ZM376 185L363 145H390ZM108 63H143V-86H225V-117H108ZM255 63H374V32H290V-11H362V-42H290V-86H374V-117H255ZM408 63H440L511 -47V63H547V-117H515L444 -7V-117H408ZM589 63H654Q693 63 706 41T720 -27Q720 -74 707 -95T654 -117H589ZM756 63H875V32H791V-11H863V-42H791V-86H875V-117H756ZM910 63H981Q1008 63 1023 47T1039 8Q1039 -10 1029 -22T1006 -39L1047 -117H1006L970 -45H945V-117H910ZM624 32V-86H651Q673 -86 679 -73T685 -27Q685 4 679 18T651 32ZM945 32V-16H979Q990 -16 997 -9T1004 8Q1004 19 997 25T979 32Z" horiz-adv-x="1155" unicode="◊"/>
			<glyph d="M501 735Q527 735 546 716T565 672Q565 646 546 627T501 608Q475 608 456 626T438 671Q438 697 456 716T501 735ZM304 712H367L350 630H310Q255 630 243 569L230 507H325L311 433H216L129 0H32L119 433H64L78 507H133L148 578Q162 647 202 679T304 712ZM423 507H520L418 0H321Z" horiz-adv-x="542" unicode="ﬁ"/>
			<glyph d="M304 712H367L350 630H310Q255 630 243 569L230 507H325L311 433H216L129 0H32L119 433H64L78 507H133L148 578Q162 647 202 679T304 712ZM462 712H559L447 154Q443 132 443 121Q443 103 455 92T493 82H532L516 0H468Q404 0 372 32Q344 60 344 103Q344 121 351 156Z" horiz-adv-x="582" unicode="ﬂ"/>
		</font>
</defs>
</svg>
