<?xml version="1.0" encoding="UTF-8"?>
<svg width="24px" height="24px" viewBox="0 0 24 24" version="1.1" xmlns="http://www.w3.org/2000/svg" xmlns:xlink="http://www.w3.org/1999/xlink">
    <!-- Generator: Sketch 52.4 (67378) - http://www.bohemiancoding.com/sketch -->
    <title>icon / solution / activity-on</title>
    <desc>Created with Sketch.</desc>
    <g id="icon-/-solution-/-activity-on" stroke="none" stroke-width="1" fill="none" fill-rule="evenodd">
        <path d="M8.68861963,10.4807976 L6.87528604,16.4119445 C7.55290388,16.8591552 8,17.6273651 8,18.5 C8,19.8807119 6.88071187,21 5.5,21 C4.11928813,21 3,19.8807119 3,18.5 C3,17.1192881 4.11928813,16 5.5,16 C5.65136725,16 5.79959253,16.0134524 5.9435455,16.0392269 L7.74092344,10.1602685 C6.99868002,9.72672971 6.5,8.92160133 6.5,8 C6.5,6.61928813 7.61928813,5.5 9,5.5 C10.3807119,5.5 11.5,6.61928813 11.5,8 C11.5,8.54723371 11.3241747,9.05340122 11.0259346,9.46509185 L14.9291724,12.7402972 C15.2537536,12.5862118 15.6168089,12.5 16,12.5 C16.2346793,12.5 16.4618061,12.5323359 16.677168,12.5927953 L18.4566043,6.77252137 C17.5968955,6.37714806 17,5.50828023 17,4.5 C17,3.11928813 18.1192881,2 19.5,2 C20.8807119,2 22,3.11928813 22,4.5 C22,5.88071187 20.8807119,7 19.5,7 C19.4776026,7 19.455274,6.99970547 19.4330179,6.99912007 L17.5794101,13.0619979 C18.1412475,13.5204291 18.5,14.218319 18.5,15 C18.5,16.3807119 17.3807119,17.5 16,17.5 C14.6192881,17.5 13.5,16.3807119 13.5,15 C13.5,14.3727377 13.7310118,13.7994311 14.1125982,13.3605174 L10.2823136,10.146527 C9.90738941,10.3709853 9.4687612,10.5 9,10.5 C8.89455443,10.5 8.79063361,10.4934718 8.68861963,10.4807976 Z" id="activity-icon" fill="#FFFFFF" fill-rule="nonzero"></path>
    </g>
</svg>