<?xml version="1.0" encoding="UTF-8"?>
<svg width="20px" height="20px" viewBox="0 0 20 20" version="1.1" xmlns="http://www.w3.org/2000/svg" xmlns:xlink="http://www.w3.org/1999/xlink">
    <!-- Generator: Sketch 52.4 (67378) - http://www.bohemiancoding.com/sketch -->
    <title>icon / form / warning</title>
    <desc>Created with Sketch.</desc>
    <g id="icon-/-form-/-warning" stroke="none" stroke-width="1" fill="none" fill-rule="evenodd">
        <path d="M10,0 C4.48,0 0,4.48 0,10 C0,15.52 4.48,20 10,20 C15.52,20 20,15.52 20,10 C20,4.48 15.52,0 10,0 Z" id="bg" fill="#CE0000" fill-rule="nonzero"></path>
        <path d="M9.81482789,16.034771 C9.40748934,15.9587467 9.08475966,15.6147026 9.01645012,15.1811097 C8.99451663,15.0432355 8.99451663,15.0136036 9.01645012,14.8750762 C9.08788958,14.4240828 9.41251069,14.090357 9.85116445,14.0169123 C9.98527126,13.9943626 10.0140935,13.9943626 10.1488355,14.0169123 C10.5875054,14.0903587 10.912112,14.4240993 10.9835499,14.8750762 C11.0054834,15.0129504 11.0054834,15.0425823 10.9835499,15.1811097 C10.9139906,15.6185621 10.5925107,15.9593965 10.1776642,16.0354142 C10.0285174,16.0624732 9.96397626,16.0624732 9.81482789,16.03477 L9.81482789,16.034771 Z M9,8 L9,4 L11,4 L11,12 L9,12 L9,8 Z" id="icon" fill="#FFFFFF" fill-rule="nonzero"></path>
    </g>
</svg>