<?xml version="1.0" encoding="UTF-8"?>
<svg width="24px" height="24px" viewBox="0 0 24 24" version="1.1" xmlns="http://www.w3.org/2000/svg" xmlns:xlink="http://www.w3.org/1999/xlink">
    <!-- Generator: Sketch 52.4 (67378) - http://www.bohemiancoding.com/sketch -->
    <title>icon / solution / crew-on</title>
    <desc>Created with Sketch.</desc>
    <g id="icon-/-solution-/-crew-on" stroke="none" stroke-width="1" fill="none" fill-rule="evenodd">
        <path d="M5.5,14 C4.11928813,14 3,12.8807119 3,11.5 C3,10.1192881 4.11928813,9 5.5,9 C6.88071187,9 8,10.1192881 8,11.5 C8,12.8807119 6.88071187,14 5.5,14 Z M19.5,14 C18.1192881,14 17,12.8807119 17,11.5 C17,10.1192881 18.1192881,9 19.5,9 C20.8807119,9 22,10.1192881 22,11.5 C22,12.8807119 20.8807119,14 19.5,14 Z M12.5,8 C11.1192881,8 10,6.88071187 10,5.5 C10,4.11928813 11.1192881,3 12.5,3 C13.8807119,3 15,4.11928813 15,5.5 C15,6.88071187 13.8807119,8 12.5,8 Z M17.5,22 C16.1192881,22 15,20.8807119 15,19.5 C15,18.1192881 16.1192881,17 17.5,17 C18.8807119,17 20,18.1192881 20,19.5 C20,20.8807119 18.8807119,22 17.5,22 Z M7.5,22 C6.11928813,22 5,20.8807119 5,19.5 C5,18.1192881 6.11928813,17 7.5,17 C8.88071187,17 10,18.1192881 10,19.5 C10,20.8807119 8.88071187,22 7.5,22 Z" id="crew-icon" fill="#FFFFFF" fill-rule="nonzero"></path>
    </g>
</svg>