<?xml version="1.0" encoding="UTF-8"?>
<svg width="24px" height="24px" viewBox="0 0 24 24" version="1.1" xmlns="http://www.w3.org/2000/svg" xmlns:xlink="http://www.w3.org/1999/xlink">
    <!-- Generator: Sketch 52.4 (67378) - http://www.bohemiancoding.com/sketch -->
    <title>icon / solution / crew-off</title>
    <desc>Created with Sketch.</desc>
    <g id="icon-/-solution-/-crew-off" stroke="none" stroke-width="1" fill="none" fill-rule="evenodd">
        <path d="M5.5,13 C6.32842712,13 7,12.3284271 7,11.5 C7,10.6715729 6.32842712,10 5.5,10 C4.67157288,10 4,10.6715729 4,11.5 C4,12.3284271 4.67157288,13 5.5,13 Z M5.5,14 C4.11928813,14 3,12.8807119 3,11.5 C3,10.1192881 4.11928813,9 5.5,9 C6.88071187,9 8,10.1192881 8,11.5 C8,12.8807119 6.88071187,14 5.5,14 Z M19.5,13 C20.3284271,13 21,12.3284271 21,11.5 C21,10.6715729 20.3284271,10 19.5,10 C18.6715729,10 18,10.6715729 18,11.5 C18,12.3284271 18.6715729,13 19.5,13 Z M19.5,14 C18.1192881,14 17,12.8807119 17,11.5 C17,10.1192881 18.1192881,9 19.5,9 C20.8807119,9 22,10.1192881 22,11.5 C22,12.8807119 20.8807119,14 19.5,14 Z M12.5,7 C13.3284271,7 14,6.32842712 14,5.5 C14,4.67157288 13.3284271,4 12.5,4 C11.6715729,4 11,4.67157288 11,5.5 C11,6.32842712 11.6715729,7 12.5,7 Z M12.5,8 C11.1192881,8 10,6.88071187 10,5.5 C10,4.11928813 11.1192881,3 12.5,3 C13.8807119,3 15,4.11928813 15,5.5 C15,6.88071187 13.8807119,8 12.5,8 Z M17.5,21 C18.3284271,21 19,20.3284271 19,19.5 C19,18.6715729 18.3284271,18 17.5,18 C16.6715729,18 16,18.6715729 16,19.5 C16,20.3284271 16.6715729,21 17.5,21 Z M17.5,22 C16.1192881,22 15,20.8807119 15,19.5 C15,18.1192881 16.1192881,17 17.5,17 C18.8807119,17 20,18.1192881 20,19.5 C20,20.8807119 18.8807119,22 17.5,22 Z M7.5,21 C8.32842712,21 9,20.3284271 9,19.5 C9,18.6715729 8.32842712,18 7.5,18 C6.67157288,18 6,18.6715729 6,19.5 C6,20.3284271 6.67157288,21 7.5,21 Z M7.5,22 C6.11928813,22 5,20.8807119 5,19.5 C5,18.1192881 6.11928813,17 7.5,17 C8.88071187,17 10,18.1192881 10,19.5 C10,20.8807119 8.88071187,22 7.5,22 Z" id="crew-icon" fill="#FFFFFF" fill-rule="nonzero"></path>
    </g>
</svg>