<?xml version="1.0" encoding="UTF-8"?>
<svg width="24px" height="24px" viewBox="0 0 24 24" version="1.1" xmlns="http://www.w3.org/2000/svg" xmlns:xlink="http://www.w3.org/1999/xlink">
    <!-- Generator: Sketch 52.4 (67378) - http://www.bohemiancoding.com/sketch -->
    <title>icon / solution / mytasks-off</title>
    <desc>Created with Sketch.</desc>
    <g id="icon-/-solution-/-mytasks-off" stroke="none" stroke-width="1" fill="none" fill-rule="evenodd">
        <path d="M3,4 L3,21 L6,21 L6,4 L3,4 Z M2,3 L7,3 L7,22 L2,22 L2,3 Z M10,4 L10,10.5 L13,10.5 L13,4 L10,4 Z M9,3 L14,3 L14,11.5 L9,11.5 L9,3 Z M17,4 L17,15.5 L20,15.5 L20,4 L17,4 Z M16,3 L21,3 L21,16.5 L16,16.5 L16,3 Z" id="mytasks-icon" fill="#FFFFFF" fill-rule="nonzero"></path>
    </g>
</svg>