<?xml version="1.0" encoding="UTF-8"?>
<svg width="331px" height="30px" viewBox="0 0 331 30" version="1.1" xmlns="http://www.w3.org/2000/svg" xmlns:xlink="http://www.w3.org/1999/xlink">
    <!-- Generator: sketchtool 52.6 (67491) - http://www.bohemiancoding.com/sketch -->
    <title>098DD52E-ED4C-4C9B-B4C3-C4691B09DC06</title>
    <desc>Created with sketchtool.</desc>
    <g id="Login-Ultra" stroke="none" stroke-width="1" fill="none" fill-rule="evenodd">
        <g id="1.1-Login-Ultra" transform="translate(-320.000000, -20.000000)">
            <g id="icon-/-header-/-pnc-/-solution-setup-/-outline" transform="translate(318.000000, 20.000000)">
                <g id="Group" transform="translate(2.000000, 0.000000)">
                    <g id="Group-6" transform="translate(228.000000, 0.000000)">
                        <polygon id="Fill-18" fill="#FFFFFF" points="16.7751372 2.28700075 11.0422491 2.28700075 6.98715957 5.02500751 5.86931759 18.7074399 6.98715957 24.4558352 9.08460184 27.3281325 11.7417417 28.0130143 19.1500984 26.0967136 29.4967381 17.3394501 30.3344724 13.6462068 28.6571917 10.6360717"></polygon>
                        <path d="M28.0899865,27.0496697 L28.3312623,27.0496697 C28.5016051,27.0496697 28.6108522,27.1350582 28.6108522,27.3557508 C28.6108522,27.5057508 28.5450968,27.6990785 28.3312623,27.6990785 L28.0899865,27.6990785 L28.0899865,27.0496697 Z M28.0899865,28.0274568 L28.2258983,28.0274568 C28.6442477,28.0274568 28.6002382,28.2648724 28.6002382,28.5392812 C28.6002382,28.6940953 28.6002382,28.8501764 28.6714301,28.9902947 L29.1992855,28.9902947 C29.1498395,28.8935041 29.1381899,28.4584535 29.1381899,28.3074399 C29.1381899,27.8891122 28.7871492,27.8607339 28.6714301,27.8554129 L28.6714301,27.8452778 C29.0232474,27.7920683 29.1498395,27.570869 29.1498395,27.2754298 C29.1498395,26.8763589 28.9132236,26.6617474 28.5450968,26.6617474 L27.5509993,26.6617474 L27.5509993,28.9902947 L28.0899865,28.9902947 L28.0899865,28.0274568 Z M28.3473128,25.8337068 C27.209796,25.8337068 26.2980222,26.7210379 26.2980222,27.8343825 C26.2980222,28.9474737 27.209796,29.8449399 28.3473128,29.8449399 C29.4793932,29.8449399 30.3865072,28.9474737 30.3865072,27.8343825 C30.3865072,26.7210379 29.4793932,25.8337068 28.3473128,25.8337068 Z M28.3473128,29.4691798 C27.4241483,29.4691798 26.6824583,28.7326089 26.6824583,27.8343825 C26.6824583,26.9361562 27.4241483,26.2102271 28.3473128,26.2102271 C29.2533913,26.2102271 30.0012944,26.9361562 30.0012944,27.8343825 C30.0012944,28.7326089 29.2533913,29.4691798 28.3473128,29.4691798 Z" id="Fill-19" fill="#F48024"></path>
                        <path d="M45.452625,15.0642896 L43.9296365,15.0642896 L43.9296365,8.0107423 C43.9296365,6.35542136 43.9296365,6.10102947 47.1591592,6.10102947 C50.7878741,6.10102947 52.787201,7.69858014 52.787201,10.5984957 C52.787201,14.5334619 49.0800456,15.0642896 45.452625,15.0642896 M45.940613,4.42670514 L36.1293362,4.42670514 L35.9048876,4.42670514 L35.9048876,5.38143487 L36.1026716,5.40474568 C39.5970281,5.81952609 39.951952,6.26901933 39.951952,8.01327609 L39.951952,26.1891207 L43.9296365,26.1891207 L43.9296365,16.7386139 L45.5333955,16.7386139 C49.3135549,16.7386139 57.1780574,16.7386139 57.1780574,10.5984957 C57.1780574,4.42670514 49.8672983,4.42670514 45.940613,4.42670514" id="Fill-20" fill="#0068AC"></path>
                        <path d="M79.678834,4.42883352 L77.3414104,4.42883352 L77.3414104,21.3912491 C76.7250181,20.5500328 64.9014704,4.42883352 64.9014704,4.42883352 L56.4614787,4.42883352 L56.4614787,5.37925582 L56.6571917,5.40484703 C60.0718132,5.84015109 60.508543,5.98812406 60.508543,8.38989771 L60.508543,26.1889687 L63.0701564,26.1889687 L63.0701564,7.94572541 C63.6899141,8.78896866 76.4798592,26.1889687 76.4798592,26.1889687 L79.9027648,26.1889687 L79.9027648,4.42883352 L79.678834,4.42883352 Z" id="Fill-21" fill="#0068AC"></path>
                        <path d="M82.9522367,14.5953876 C82.9522367,20.5366038 86.6565445,26.5307761 94.9318888,26.5307761 C98.8611629,26.5307761 100.799135,26.1068741 102.59576,25.6358437 L102.761701,25.5922626 L102.761701,23.8077187 L102.457259,23.888293 C100.547504,24.3897288 98.669592,24.6661646 97.1704204,24.6661646 C90.5573418,24.6661646 87.3441286,21.1036646 87.3441286,13.7719078 C87.3441286,8.8728369 89.7234907,5.94885041 93.7120483,5.94885041 C96.3852387,5.94885041 97.9540489,6.97629974 98.3757637,9.00282001 L98.4112302,9.17815785 L102.792508,9.17815785 L102.760148,8.9313673 C102.611033,7.7947119 101.536424,4.0844923 93.9556539,4.0844923 C86.6549912,4.0844923 82.9522367,7.62038758 82.9522367,14.5953876" id="Fill-22" fill="#0068AC"></path>
                        <path d="M16.0217459,0.173977102 C7.63042353,0.173977102 0.828362846,6.83098724 0.828362846,15.0407001 C0.828362846,23.2514264 7.63042353,29.907423 16.0217459,29.907423 C24.4084084,29.907423 31.210728,23.2514264 31.210728,15.0407001 C31.210728,6.83098724 24.4084084,0.173977102 16.0217459,0.173977102 M7.85047116,7.38487237 L7.85590763,6.88445008 C7.86160298,5.24838589 8.55669463,3.8771021 9.51092472,3.63005818 C10.7576887,3.30573386 12.4393704,4.75809872 14.1241586,7.61493994 L15.6911567,10.2683183 C15.2344931,10.3468656 14.8513514,10.6435717 14.5518277,11.1498217 L9.43947396,19.819923 C8.69234752,21.0822541 8.17484726,22.2184028 7.8841255,23.2139264 C7.88283111,23.1984703 7.88231335,23.183521 7.88231335,23.1660379 C7.83157295,20.8775244 7.78419799,16.2827609 7.85047116,7.38487237 M13.3293984,25.7902778 L12.8833489,26.0380818 C11.4331055,26.8537068 9.87542715,26.9497372 9.17722895,26.2635886 C8.26649063,25.3681494 8.71046909,23.2162068 10.3962928,20.3611393 L11.965103,17.7009197 C12.2648856,18.0526089 12.7174071,18.2284535 13.3125712,18.2284535 L23.5383142,18.2284535 C25.0294605,18.2284535 26.2925339,18.100244 27.3189914,17.8509197 C27.304753,17.8590278 27.2920679,17.863842 27.2775707,17.8749906 C25.279797,19.0608014 21.2353215,21.4030312 13.3293984,25.7902778 M23.5383142,17.1467812 L20.4009527,17.1467812 C20.5617169,16.7170514 20.4933727,16.2450075 20.1951434,15.7412913 L15.0822719,7.07423048 C14.3364399,5.8083521 13.5906078,4.80269332 12.855131,4.05801426 C12.8711815,4.06561562 12.8833489,4.07321697 12.8986228,4.08183183 C14.9458424,5.17870683 19.0332919,7.4360548 26.8693176,11.940869 L27.3189914,12.1977947 C28.7661282,13.0227947 29.6281972,14.2945008 29.3698354,15.2279467 C29.0351041,16.4472035 26.9094439,17.1467812 23.5383142,17.1467812" id="Fill-23" fill="#F48024"></path>
                    </g>
                    <path d="M213,2 L213,28.1141" id="Shape" stroke="#000000"></path>
                    <path d="M7.332,7.332 C9.802,7.332 11.492,7.956 13.078,9.438 L11.31,11.206 C10.166,10.114 8.814,9.776 7.228,9.776 C5.044,9.776 3.874,10.972 3.874,12.662 C3.874,13.338 4.056,13.962 4.55,14.378 C5.018,14.794 5.564,15.054 6.578,15.21 L8.788,15.548 C10.478,15.808 11.414,16.198 12.22,16.926 C13.208,17.836 13.728,19.11 13.728,20.722 C13.728,24.128 10.972,26.156 7.072,26.156 C4.29,26.156 2.314,25.506 0.52,23.712 L2.366,21.866 C3.718,23.218 5.252,23.66 7.124,23.66 C9.568,23.66 10.946,22.62 10.946,20.8 C10.946,19.968 10.738,19.318 10.218,18.876 C9.75,18.46 9.126,18.226 8.19,18.096 L6.006,17.784 C4.498,17.55 3.328,17.082 2.522,16.302 C1.612,15.47 1.144,14.274 1.144,12.74 C1.144,9.516 3.484,7.332 7.332,7.332 Z M22.958,7.332 C24.986,7.332 26.546,8.008 27.742,9.204 C29.562,11.024 29.614,12.87 29.614,16.744 C29.614,20.618 29.562,22.464 27.742,24.284 C26.546,25.48 24.986,26.156 22.958,26.156 C20.93,26.156 19.37,25.48 18.174,24.284 C16.354,22.464 16.302,20.618 16.302,16.744 C16.302,12.87 16.354,11.024 18.174,9.204 C19.37,8.008 20.93,7.332 22.958,7.332 Z M22.958,9.854 C21.84,9.854 20.904,10.244 20.202,10.972 C19.292,11.96 19.11,13.078 19.11,16.744 C19.11,20.41 19.292,21.502 20.202,22.49 C20.904,23.218 21.84,23.634 22.958,23.634 C24.076,23.634 25.012,23.218 25.714,22.49 C26.65,21.528 26.806,20.41 26.806,16.744 C26.806,13.078 26.65,11.934 25.714,10.972 C25.012,10.244 24.076,9.854 22.958,9.854 Z M36.062,23.478 L44.98,23.478 L44.98,26 L33.254,26 L33.254,7.488 L36.062,7.488 L36.062,23.478 Z M60.658,19.76 C60.658,23.582 57.772,26.156 54.002,26.156 C50.232,26.156 47.372,23.582 47.372,19.76 L47.372,7.488 L50.18,7.488 L50.18,19.63 C50.18,22.1 51.688,23.634 54.002,23.634 C56.316,23.634 57.85,22.1 57.85,19.63 L57.85,7.488 L60.658,7.488 L60.658,19.76 Z M76.05,10.01 L70.954,10.01 L70.954,26 L68.146,26 L68.146,10.01 L63.05,10.01 L63.05,7.488 L76.05,7.488 L76.05,10.01 Z M81.536,26 L78.728,26 L78.728,7.488 L81.536,7.488 L81.536,26 Z M91.832,7.332 C93.86,7.332 95.42,8.008 96.616,9.204 C98.436,11.024 98.488,12.87 98.488,16.744 C98.488,20.618 98.436,22.464 96.616,24.284 C95.42,25.48 93.86,26.156 91.832,26.156 C89.804,26.156 88.244,25.48 87.048,24.284 C85.228,22.464 85.176,20.618 85.176,16.744 C85.176,12.87 85.228,11.024 87.048,9.204 C88.244,8.008 89.804,7.332 91.832,7.332 Z M91.832,9.854 C90.714,9.854 89.778,10.244 89.076,10.972 C88.166,11.96 87.984,13.078 87.984,16.744 C87.984,20.41 88.166,21.502 89.076,22.49 C89.778,23.218 90.714,23.634 91.832,23.634 C92.95,23.634 93.886,23.218 94.588,22.49 C95.524,21.528 95.68,20.41 95.68,16.744 C95.68,13.078 95.524,11.934 94.588,10.972 C93.886,10.244 92.95,9.854 91.832,9.854 Z M116.064,26 L113.49,26 L104.936,12.974 L104.936,26 L102.128,26 L102.128,7.488 L104.702,7.488 L113.256,20.514 L113.256,7.488 L116.064,7.488 L116.064,26 Z M131.274,7.332 C133.744,7.332 135.434,7.956 137.02,9.438 L135.252,11.206 C134.108,10.114 132.756,9.776 131.17,9.776 C128.986,9.776 127.816,10.972 127.816,12.662 C127.816,13.338 127.998,13.962 128.492,14.378 C128.96,14.794 129.506,15.054 130.52,15.21 L132.73,15.548 C134.42,15.808 135.356,16.198 136.162,16.926 C137.15,17.836 137.67,19.11 137.67,20.722 C137.67,24.128 134.914,26.156 131.014,26.156 C128.232,26.156 126.256,25.506 124.462,23.712 L126.308,21.866 C127.66,23.218 129.194,23.66 131.066,23.66 C133.51,23.66 134.888,22.62 134.888,20.8 C134.888,19.968 134.68,19.318 134.16,18.876 C133.692,18.46 133.068,18.226 132.132,18.096 L129.948,17.784 C128.44,17.55 127.27,17.082 126.464,16.302 C125.554,15.47 125.086,14.274 125.086,12.74 C125.086,9.516 127.426,7.332 131.274,7.332 Z M152.75,10.01 L143.728,10.01 L143.728,15.418 L151.424,15.418 L151.424,17.94 L143.728,17.94 L143.728,23.478 L152.75,23.478 L152.75,26 L140.92,26 L140.92,7.488 L152.75,7.488 L152.75,10.01 Z M167.44,10.01 L162.344,10.01 L162.344,26 L159.536,26 L159.536,10.01 L154.44,10.01 L154.44,7.488 L167.44,7.488 L167.44,10.01 Z M183.118,19.76 C183.118,23.582 180.232,26.156 176.462,26.156 C172.692,26.156 169.832,23.582 169.832,19.76 L169.832,7.488 L172.64,7.488 L172.64,19.63 C172.64,22.1 174.148,23.634 176.462,23.634 C178.776,23.634 180.31,22.1 180.31,19.63 L180.31,7.488 L183.118,7.488 L183.118,19.76 Z M194.168,7.488 C197.782,7.488 200.096,9.88 200.096,13.104 C200.096,16.328 197.782,18.694 194.168,18.694 L189.956,18.694 L189.956,26 L187.148,26 L187.148,7.488 L194.168,7.488 Z M189.956,10.01 L189.956,16.172 L194.012,16.172 C195.988,16.172 197.288,15.054 197.288,13.104 C197.288,11.128 195.988,10.01 194.012,10.01 L189.956,10.01 Z" id="Solution-Setup" fill="#0068AC"></path>
                </g>
            </g>
        </g>
    </g>
</svg>