<?xml version="1.0" encoding="UTF-8"?>
<svg width="103px" height="30px" viewBox="0 0 103 30" version="1.1" xmlns="http://www.w3.org/2000/svg" xmlns:xlink="http://www.w3.org/1999/xlink">
    <!-- Generator: sketchtool 52.6 (67491) - http://www.bohemiancoding.com/sketch -->
    <title>AD9AE342-1BF2-4476-9110-2593EAD781E8</title>
    <desc>Created with sketchtool.</desc>
    <g id="Login-Small" stroke="none" stroke-width="1" fill="none" fill-rule="evenodd">
        <g id="1.1-Login-small" transform="translate(-106.000000, -20.000000)">
            <g id="small-/-header+help">
                <g id="logo/pnc/pinacle-blue-mobile" transform="translate(106.000000, 20.000000)">
                    <path d="M45.3060037,15.0642896 C48.9217228,15.0642896 52.6169197,14.5334619 52.6169197,10.5984957 C52.6169197,7.69858014 50.6240422,6.10102947 47.0070328,6.10102947 C43.787928,6.10102947 43.787928,6.35542136 43.787928,8.0107423 L43.787928,15.0642896 L45.3060037,15.0642896 Z M45.7924175,4.42670514 C49.7064361,4.42670514 56.993612,4.42670514 56.993612,10.5984957 C56.993612,16.7386139 49.154479,16.7386139 45.3865135,16.7386139 L43.787928,16.7386139 L43.787928,26.1891207 L39.8230747,26.1891207 L39.8230747,8.01327609 C39.8230747,6.26901933 39.4692957,5.81952609 35.9862114,5.40474568 L35.7890654,5.38143487 L35.7890654,4.42670514 L36.01279,4.42670514 L45.7924175,4.42670514 Z M79.4218055,4.42883352 L79.645014,4.42883352 L79.645014,26.1889687 L76.2331499,26.1889687 C76.2331499,26.1889687 63.4844627,8.78896866 62.8667042,7.94572541 L62.8667042,26.1889687 L60.3133542,26.1889687 L60.3133542,8.38989771 C60.3133542,5.98812406 59.8780331,5.84015109 56.4744265,5.40484703 L56.2793449,5.37925582 L56.2793449,4.42883352 L64.6921109,4.42883352 C64.6921109,4.42883352 76.4775181,20.5500328 77.091922,21.3912491 L77.091922,4.42883352 L79.4218055,4.42883352 Z M82.6846489,14.5953876 C82.6846489,7.62038758 86.375459,4.0844923 93.6525712,4.0844923 C101.208888,4.0844923 102.28003,7.7947119 102.428664,8.9313673 L102.460919,9.17815785 L98.0937746,9.17815785 L98.0584225,9.00282001 C97.6380681,6.97629974 96.0743186,5.94885041 93.4097513,5.94885041 C89.4340601,5.94885041 87.0623734,8.8728369 87.0623734,13.7719078 C87.0623734,21.1036646 90.2652214,24.6661646 96.8569675,24.6661646 C98.351303,24.6661646 100.223158,24.3897288 102.126752,23.888293 L102.430212,23.8077187 L102.430212,25.5922626 L102.264805,25.6358437 C100.473977,26.1068741 98.5422559,26.5307761 94.6256569,26.5307761 C86.3770072,26.5307761 82.6846489,20.5366038 82.6846489,14.5953876 Z" id="pnc-logo" fill="#0068AC"></path>
                    <polygon id="mark-bg" fill="#FFFFFF" points="16.7210239 2.28700075 11.006629 2.28700075 6.96462035 5.02500751 5.85038431 18.7074399 6.96462035 24.4558352 9.05529668 27.3281325 11.7038652 28.0130143 19.0883239 26.0967136 29.4015873 17.3394501 30.2366193 13.6462068 28.5647491 10.6360717"></polygon>
                    <path d="M15.9700628,0.173977102 C7.60580926,0.173977102 0.825690707,6.83098724 0.825690707,15.0407001 C0.825690707,23.2514264 7.60580926,29.907423 15.9700628,29.907423 C24.3296716,29.907423 31.1100482,23.2514264 31.1100482,15.0407001 C31.1100482,6.83098724 24.3296716,0.173977102 15.9700628,0.173977102 M7.82514706,7.38487237 L7.83056599,6.88445008 C7.83624297,5.24838589 8.52909238,3.8771021 9.48024432,3.63005818 C10.7229865,3.30573386 12.3992434,4.75809872 14.0785968,7.61493994 L15.64054,10.2683183 C15.1853496,10.3468656 14.8034438,10.6435717 14.5048863,11.1498217 L9.40902404,19.819923 C8.66430769,21.0822541 8.14847679,22.2184028 7.85869284,23.2139264 C7.85740262,23.1984703 7.85688653,23.183521 7.85688653,23.1660379 C7.80630981,20.8775244 7.75908767,16.2827609 7.82514706,7.38487237 M13.2864003,25.7902778 L12.8417897,26.0380818 C11.3962245,26.8537068 9.84357093,26.9497372 9.14762499,26.2635886 C8.23982453,25.3681494 8.6823708,23.2162068 10.3627564,20.3611393 L11.9265059,17.7009197 C12.2253214,18.0526089 12.6763832,18.2284535 13.2696274,18.2284535 L23.4623841,18.2284535 C24.9487203,18.2284535 26.2077193,18.100244 27.2308656,17.8509197 C27.2166732,17.8590278 27.204029,17.863842 27.1895785,17.8749906 C25.1982493,19.0608014 21.1668205,21.4030312 13.2864003,25.7902778 M23.4623841,17.1467812 L20.3351432,17.1467812 C20.4953888,16.7170514 20.427265,16.2450075 20.1299978,15.7412913 L15.0336194,7.07423048 C14.2901933,5.8083521 13.5467672,4.80269332 12.8136628,4.05801426 C12.8296616,4.06561562 12.8417897,4.07321697 12.8570143,4.08183183 C14.89763,5.17870683 18.9718942,7.4360548 26.7826424,11.940869 L27.2308656,12.1977947 C28.6733342,13.0227947 29.5326223,14.2945008 29.2750939,15.2279467 C28.9414424,16.4472035 26.8226393,17.1467812 23.4623841,17.1467812 Z M27.9993737,27.0496697 L27.9993737,27.6990785 L28.2398711,27.6990785 C28.4530159,27.6990785 28.5185592,27.5057508 28.5185592,27.3557508 C28.5185592,27.1350582 28.4096644,27.0496697 28.2398711,27.0496697 L27.9993737,27.0496697 Z M27.9993737,28.0274568 L27.9993737,28.9902947 L27.4621251,28.9902947 L27.4621251,26.6617474 L28.4530159,26.6617474 C28.8199551,26.6617474 29.0558078,26.8763589 29.0558078,27.2754298 C29.0558078,27.570869 28.929624,27.7920683 28.5789416,27.8452778 L28.5789416,27.8554129 C28.6942874,27.8607339 29.0441958,27.8891122 29.0441958,28.3074399 C29.0441958,28.4584535 29.0558078,28.8935041 29.1050942,28.9902947 L28.5789416,28.9902947 C28.5079793,28.8501764 28.5079793,28.6940953 28.5079793,28.5392812 C28.5079793,28.2648724 28.5518469,28.0274568 28.134847,28.0274568 L27.9993737,28.0274568 Z M28.2558699,25.8337068 C29.3842984,25.8337068 30.2884862,26.7210379 30.2884862,27.8343825 C30.2884862,28.9474737 29.3842984,29.8449399 28.2558699,29.8449399 C27.1220225,29.8449399 26.2131898,28.9474737 26.2131898,27.8343825 C26.2131898,26.7210379 27.1220225,25.8337068 28.2558699,25.8337068 Z M28.2558699,29.4691798 C29.1590255,29.4691798 29.904516,28.7326089 29.904516,27.8343825 C29.904516,26.9361562 29.1590255,26.2102271 28.2558699,26.2102271 C27.3356833,26.2102271 26.5963859,26.9361562 26.5963859,27.8343825 C26.5963859,28.7326089 27.3356833,29.4691798 28.2558699,29.4691798 Z" id="mark" fill="#F48024"></path>
                </g>
            </g>
        </g>
    </g>
</svg>