<?xml version="1.0" encoding="UTF-8"?>
<svg width="330px" height="30px" viewBox="0 0 330 30" version="1.1" xmlns="http://www.w3.org/2000/svg" xmlns:xlink="http://www.w3.org/1999/xlink">
    <!-- Generator: sketchtool 52.6 (67491) - http://www.bohemiancoding.com/sketch -->
    <title>03424F7A-2539-4D74-8E0F-B63724191D14</title>
    <desc>Created with sketchtool.</desc>
    <g id="Login-Ultra" stroke="none" stroke-width="1" fill="none" fill-rule="evenodd">
        <g id="1.1-Login-Ultra" transform="translate(-320.000000, -20.000000)">
            <g id="ultra-/-header-/-solutionsetup-/-login">
                <g id="logo/pnc/pinacleblue" transform="translate(318.000000, 20.000000)">
                    <g id="Group" transform="translate(1.994286, -1.000000)">
                        <g id="Group-6" transform="translate(227.348571, 1.000000)">
                            <polygon id="Fill-18" fill="#FFFFFF" points="16.7272081 2.28700075 11.0106998 2.28700075 6.96719619 5.02500751 5.85254805 18.7074399 6.96719619 24.4558352 9.05864576 27.3281325 11.7081938 28.0130143 19.0953837 26.0967136 29.4124615 17.3394501 30.2478023 13.6462068 28.5753138 10.6360717"></polygon>
                            <path d="M28.0097286,27.0496697 L28.250315,27.0496697 C28.4201711,27.0496697 28.5291061,27.1350582 28.5291061,27.3557508 C28.5291061,27.5057508 28.4635386,27.6990785 28.250315,27.6990785 L28.0097286,27.6990785 L28.0097286,27.0496697 Z M28.0097286,28.0274568 L28.1452521,28.0274568 C28.5624062,28.0274568 28.5185224,28.2648724 28.5185224,28.5392812 C28.5185224,28.6940953 28.5185224,28.8501764 28.5895109,28.9902947 L29.1158581,28.9902947 C29.0665534,28.8935041 29.0549371,28.4584535 29.0549371,28.3074399 C29.0549371,27.8891122 28.7048994,27.8607339 28.5895109,27.8554129 L28.5895109,27.8452778 C28.940323,27.7920683 29.0665534,27.570869 29.0665534,27.2754298 C29.0665534,26.8763589 28.8306135,26.6617474 28.4635386,26.6617474 L27.4722813,26.6617474 L27.4722813,28.9902947 L28.0097286,28.9902947 L28.0097286,28.0274568 Z M28.2663198,25.8337068 C27.1320529,25.8337068 26.2228841,26.7210379 26.2228841,27.8343825 C26.2228841,28.9474737 27.1320529,29.8449399 28.2663198,29.8449399 C29.3951657,29.8449399 30.299688,28.9474737 30.299688,27.8343825 C30.299688,26.7210379 29.3951657,25.8337068 28.2663198,25.8337068 Z M28.2663196,29.4691798 C27.3457927,29.4691798 26.6062219,28.7326089 26.6062219,27.8343825 C26.6062219,26.9361562 27.3457927,26.2102271 28.2663196,26.2102271 C29.1698093,26.2102271 29.9155755,26.9361562 29.9155755,27.8343825 C29.9155755,28.7326089 29.1698093,29.4691798 28.2663196,29.4691798 Z" id="Fill-19" fill="#F48024"></path>
                            <path d="M45.3227609,15.0642896 L43.8041237,15.0642896 L43.8041237,8.0107423 C43.8041237,6.35542136 43.8041237,6.10102947 47.0244193,6.10102947 C50.6427666,6.10102947 52.6363813,7.69858014 52.6363813,10.5984957 C52.6363813,14.5334619 48.9398176,15.0642896 45.3227609,15.0642896 M45.809355,4.42670514 L36.0261101,4.42670514 L35.8023028,4.42670514 L35.8023028,5.38143487 L35.9995217,5.40474568 C39.4838943,5.81952609 39.8378042,6.26901933 39.8378042,8.01327609 L39.8378042,26.1891207 L43.8041241,26.1891207 L43.8041241,16.7386139 L45.4033009,16.7386139 C49.17266,16.7386139 57.0146927,16.7386139 57.0146927,10.5984957 C57.0146927,4.42670514 49.7248213,4.42670514 45.809355,4.42670514" id="Fill-20" fill="#0068AC"></path>
                            <path d="M79.4511806,4.42883352 L77.1204354,4.42883352 L77.1204354,21.3912491 C76.5058042,20.5500328 64.7160381,4.42883352 64.7160381,4.42883352 L56.3001607,4.42883352 L56.3001607,5.37925582 L56.4953144,5.40484703 C59.9001799,5.84015109 60.3356619,5.98812406 60.3356619,8.38989771 L60.3356619,26.1889687 L62.8899564,26.1889687 L62.8899564,7.94572541 C63.5079433,8.78896866 76.2613457,26.1889687 76.2613457,26.1889687 L79.6744717,26.1889687 L79.6744717,4.42883352 L79.4511806,4.42883352 Z" id="Fill-21" fill="#0068AC"></path>
                            <path d="M82.7152336,14.5953876 C82.7152336,20.5366038 86.4089576,26.5307761 94.6606579,26.5307761 C98.5787054,26.5307761 100.511141,26.1068741 102.302632,25.6358437 L102.468099,25.5922626 L102.468099,23.8077187 L102.164527,23.888293 C100.260229,24.3897288 98.3876819,24.6661646 96.8927937,24.6661646 C90.2986097,24.6661646 87.0945772,21.1036646 87.0945772,13.7719078 C87.0945772,8.8728369 89.4671411,5.94885041 93.4443026,5.94885041 C96.1098553,5.94885041 97.6741832,6.97629974 98.0946931,9.00282001 L98.1300583,9.17815785 L102.498818,9.17815785 L102.466551,8.9313673 C102.317862,7.7947119 101.246323,4.0844923 93.6872123,4.0844923 C86.4074087,4.0844923 82.7152336,7.62038758 82.7152336,14.5953876" id="Fill-22" fill="#0068AC"></path>
                            <path d="M15.975969,0.173977102 C7.6086221,0.173977102 0.825996072,6.83098724 0.825996072,15.0407001 C0.825996072,23.2514264 7.6086221,29.907423 15.975969,29.907423 C24.3386694,29.907423 31.1215536,23.2514264 31.1215536,15.0407001 C31.1215536,6.83098724 24.3386694,0.173977102 15.975969,0.173977102 M7.82804116,7.38487237 L7.8334621,6.88445008 C7.83914118,5.24838589 8.53224686,3.8771021 9.4837506,3.63005818 C10.7269524,3.30573386 12.4038294,4.75809872 14.0838039,7.61493994 L15.6463249,10.2683183 C15.1909661,10.3468656 14.808919,10.6435717 14.5102511,11.1498217 L9.41250398,19.819923 C8.66751218,21.0822541 8.15149048,22.2184028 7.86159935,23.2139264 C7.86030865,23.1984703 7.85979237,23.183521 7.85979237,23.1660379 C7.80919695,20.8775244 7.76195734,16.2827609 7.82804116,7.38487237 M13.2913142,25.7902778 L12.8465391,26.0380818 C11.4004394,26.8537068 9.84721158,26.9497372 9.15100826,26.2635886 C8.24287209,25.3681494 8.68558202,23.2162068 10.3665891,20.3611393 L11.9309169,17.7009197 C12.2298429,18.0526089 12.6810714,18.2284535 13.2745351,18.2284535 L23.4710612,18.2284535 C24.957947,18.2284535 26.2174116,18.100244 27.2409363,17.8509197 C27.2267386,17.8590278 27.2140898,17.863842 27.1996339,17.8749906 C25.2075683,19.0608014 21.1746486,21.4030312 13.2913142,25.7902778 M23.4710619,17.1467812 L20.3426642,17.1467812 C20.5029691,16.7170514 20.4348201,16.2450075 20.1374429,15.7412913 L15.0391794,7.07423048 C14.2954783,5.8083521 13.5517771,4.80269332 12.8184016,4.05801426 C12.8344063,4.06561562 12.8465389,4.07321697 12.8617691,4.08183183 C14.9031396,5.17870683 18.9789109,7.4360548 26.7925484,11.940869 L27.2409374,12.1977947 C28.6839396,13.0227947 29.5435455,14.2945008 29.2859219,15.2279467 C28.952147,16.4472035 26.83256,17.1467812 23.4710619,17.1467812" id="Fill-23" fill="#F48024"></path>
                        </g>
                        <path d="M212.391429,3 L212.391429,29.1141" id="Shape" stroke="#000000"></path>
                        <text id="Solution-Setup" font-family="PNCBrandMedium, PNC Brand" font-size="26" font-weight="400" fill="#0068AC">
                            <tspan x="0" y="27">SOLUTION SETUP</tspan>
                        </text>
                    </g>
                </g>
            </g>
        </g>
    </g>
</svg>