<?xml version="1.0" encoding="UTF-8"?>
<svg width="24px" height="24px" viewBox="0 0 24 24" version="1.1" xmlns="http://www.w3.org/2000/svg" xmlns:xlink="http://www.w3.org/1999/xlink">
    <!-- Generator: Sketch 52.4 (67378) - http://www.bohemiancoding.com/sketch -->
    <title>icon / solution / timeline-hover</title>
    <desc>Created with Sketch.</desc>
    <g id="icon-/-solution-/-timeline-hover" stroke="none" stroke-width="1" fill="none" fill-rule="evenodd">
        <path d="M3,7 L11,7 L11,4 L3,4 L3,7 Z M2,8 L2,3 L12,3 L12,8 L2,8 Z M7.5,14 L15.5,14 L15.5,11 L7.5,11 L7.5,14 Z M6.5,15 L6.5,10 L16.5,10 L16.5,15 L6.5,15 Z M12,21 L20,21 L20,18 L12,18 L12,21 Z M11,22 L11,17 L21,17 L21,22 L11,22 Z" id="tmeline-icon" fill="#EC6C00" fill-rule="nonzero"></path>
    </g>
</svg>