<?xml version="1.0" encoding="UTF-8"?>
<svg width="30px" height="30px" viewBox="0 0 30 30" version="1.1" xmlns="http://www.w3.org/2000/svg" xmlns:xlink="http://www.w3.org/1999/xlink">
    <!-- Generator: Sketch 52.2 (67145) - http://www.bohemiancoding.com/sketch -->
    <title>icon/avatar-off</title>
    <desc>Created with Sketch.</desc>
    <g id="icon-avatar-off" stroke="none" stroke-width="1" fill="none" fill-rule="evenodd">
        <path d="M15.0254619,19.499953 C18.9637557,19.508669 22.4301879,21.5510163 24.43215,24.628425 C27.0159,22.103175 28.50015,18.622425 28.50015,14.999925 C28.50015,7.556175 22.4439,1.499925 15.00015,1.499925 C7.5564,1.499925 1.50015,7.556175 1.50015,14.999925 C1.50015,18.623925 2.9844,22.106175 5.5674,24.628425 C7.56858256,21.5510642 11.035683,19.5087326 14.9746491,19.4999534 C11.2580617,19.4862925 8.25,16.4697961 8.25,12.75 C8.25,9.02175 11.27175,6 15,6 C18.72825,6 21.75,9.02175 21.75,12.75 C21.75,16.469759 18.7419982,19.4862324 15.0254619,19.499953 Z M13.7934,28.443675 C14.19315,28.479675 14.59515,28.499925 15.00015,28.499925 C15.4044,28.499925 15.8064,28.479675 16.2054,28.443675 C16.33665,28.431675 16.46565,28.409925 16.5969,28.394175 C16.86315,28.362675 17.13015,28.329675 17.3934,28.281675 C17.54565,28.254675 17.69565,28.218675 17.8464,28.186425 C18.0849,28.135425 18.32265,28.081425 18.5574,28.017675 C18.7134,27.974175 18.8679,27.925425 19.02315,27.877425 C19.24815,27.806925 19.4724,27.732675 19.69365,27.649425 C19.8474,27.592425 19.99965,27.533175 20.1504,27.470925 C20.3694,27.380175 20.58465,27.282675 20.7984,27.179925 C20.9439,27.110925 21.0894,27.041925 21.2319,26.966925 C21.4494,26.853675 21.6624,26.729925 21.8739,26.604675 C22.0044,26.526675 22.1364,26.452425 22.2639,26.369925 C22.4949,26.222175 22.71765,26.061675 22.93965,25.899675 C23.0409,25.826175 23.14515,25.757925 23.24415,25.680675 C23.26215,25.667175 23.27865,25.650675 23.2959,25.637175 C21.53415,22.788675 18.3879,20.999925 15.00015,20.999925 C11.61165,20.999925 8.4669,22.787925 6.70365,25.637175 C6.7224,25.650675 6.7389,25.667925 6.75765,25.681425 C6.8484,25.752675 6.94515,25.814925 7.03815,25.883175 C7.26765,26.051925 7.50015,26.218425 7.73865,26.372175 C7.8609,26.450925 7.98765,26.521425 8.11215,26.595675 C8.32965,26.725425 8.54865,26.852925 8.7729,26.969175 C8.91165,27.041925 9.0519,27.108675 9.1929,27.175425 C9.41115,27.280425 9.63165,27.380175 9.8544,27.472425 C10.0029,27.533925 10.1514,27.591675 10.3014,27.647175 C10.52565,27.731175 10.7529,27.806925 10.9809,27.878925 C11.1339,27.926175 11.2869,27.974175 11.44065,28.016925 C11.6769,28.081425 11.91615,28.135425 12.15615,28.187175 C12.3054,28.219425 12.45465,28.254675 12.6054,28.281675 C12.8709,28.329675 13.1379,28.362675 13.4064,28.394925 C13.53615,28.410675 13.6644,28.431675 13.7934,28.443675 Z M15.00015,-7.5e-05 C23.28765,-7.5e-05 30.00015,6.712425 30.00015,14.999925 C30.00015,19.349925 28.14765,23.264925 25.19265,25.994925 C22.5144,28.485675 18.93015,29.999925 15.00015,29.999925 C11.07015,29.999925 7.48515,28.485675 4.80765,25.994925 C1.85265,23.264925 0.00015,19.349925 0.00015,14.999925 C0.00015,6.712425 6.71265,-7.5e-05 15.00015,-7.5e-05 Z M15,18 C17.89425,18 20.25,15.645 20.25,12.75 C20.25,9.855 17.89425,7.5 15,7.5 C12.10575,7.5 9.75,9.855 9.75,12.75 C9.75,15.645 12.10575,18 15,18 Z" id="avatar-off" fill="#0068AC"></path>
    </g>
</svg>