<svg xmlns="http://www.w3.org/2000/svg" xmlns:xlink="http://www.w3.org/1999/xlink" width="300px" height="300px" viewBox="0 0 300 300" version="1.1">
  <!-- Generator: Sketch 52.4 (67378) - http://www.bohemiancoding.com/sketch -->
  <title>images / case</title>
  <desc>Created with Sketch.</desc>
  <defs>
    <circle id="path-1" cx="150" cy="150" r="150"/>
    <linearGradient x1="93.9310959%" y1="7.84986413%" x2="6.30282738%" y2="7.84986413%" id="linearGradient-3">
      <stop stop-color="#E7E9EB" offset="0%"/>
      <stop stop-color="#CBCFD2" offset="100%"/>
    </linearGradient>
    <linearGradient x1="100%" y1="50%" x2="0%" y2="50%" id="linearGradient-4">
      <stop stop-color="#00A1D6" offset="0%"/>
      <stop stop-color="#0068AC" offset="100%"/>
    </linearGradient>
  </defs>
  <g id="images-/-case" stroke="none" stroke-width="1" fill="none" fill-rule="evenodd">
    <g id="Group-10-Copy-7">
      <mask id="mask-2" fill="white">
        <use xlink:href="#path-1"/>
      </mask>
      <use id="Oval-3" fill="#D8D8D8" opacity="0.200000003" xlink:href="#path-1"/>
      <polygon id="Rectangle" fill="#CBCFD2" mask="url(#mask-2)" points="-25 193 316.860465 193 316.860465 308 -25 308"/>
      <polygon id="Rectangle-Copy" fill="url(#linearGradient-3)" opacity="0.5" mask="url(#mask-2)" points="0 114 78.4411664 163 208.601783 70 299.803 151.634 299.803 191.5 0 193"/>
      <polygon id="Rectangle-4-Copy-4" fill="#9B9B9B" opacity="0.400000006" mask="url(#mask-2)" points="35 231 262.052301 231 285 250.428834 55.0870752 250.428834"/>
    </g>
    <g id="Group-12" transform="translate(35.000000, 45.000000)">
      <polygon id="Rectangle-4" fill="#00518A" points="0 28 228 28 228 188 0 188"/>
      <polyline id="Path-2" stroke="#3EC7FF" stroke-width="18.48" points="81 31 81 0 146 0 146 31"/>
      <polygon id="Rectangle-4-Copy" fill="url(#linearGradient-4)" points="0 24 228 24 228 84 0 84"/>
      <polygon id="Rectangle-4-Copy-2" fill="#3EC7FF" points="37 73 56 73 56 97 37 97"/>
      <polygon id="Rectangle-4-Copy-3" fill="#3EC7FF" points="166 73 185 73 185 97 166 97"/>
    </g>
    <path d="M147.003639,147 C132.641853,147 121,158.642262 121,172.999899 C121,187.359346 132.641853,199 147.003639,199 C161.357557,199 173,187.359346 173,172.999899 C173,158.642262 161.357557,147 147.003639,147 Z M133.053808,160.58141 L133.062728,159.714531 C133.072217,156.880748 134.219865,154.505292 135.795484,154.077427 C137.854113,153.515568 140.63071,156.03139 143.412621,160.980008 L146,165.57602 C145.245973,165.712005 144.61322,166.22608 144.118822,167.102915 L135.677436,182.12099 C134.443814,184.307501 133.589389,186.275599 133.109416,188 C133.107138,187.973122 133.106379,187.947239 133.106379,187.916976 C133.022493,183.952904 132.9443,175.994101 133.053808,160.58141 Z M141.938882,192.34987 L141.171632,192.789479 C138.677329,194.236353 135.998182,194.406813 134.79739,193.18953 C133.230864,191.601149 133.994555,187.783734 136.893933,182.719062 L139.592256,178 C140.107841,178.623934 140.886162,178.935901 141.909821,178.935901 L159.497455,178.935901 C162.062137,178.935901 164.234594,178.708349 166,178.266089 C165.975486,178.280566 165.95374,178.288926 165.92883,178.308705 C162.492714,180.412341 155.536461,184.567211 141.938882,192.34987 Z M160.708241,177 L155.214164,177 C155.495561,176.244792 155.375998,175.415256 154.853663,174.530174 L145.9001,159.300188 C144.593961,157.075769 143.288023,155.308434 142,154 C142.02818,154.013331 142.049315,154.026662 142.076086,154.04181 C145.661174,155.969316 152.819073,159.936025 166.541281,167.851869 L167.328709,168.303499 C169.863089,169.753118 171.372727,171.987837 170.920238,173.628126 C170.334096,175.770743 166.61153,177 160.708241,177 Z" id="Shape-Copy" fill="#EC6C00"/>
  </g>
</svg>
