<?xml version="1.0" encoding="UTF-8"?>
<svg width="368px" height="368px" viewBox="0 0 368 368" version="1.1" xmlns="http://www.w3.org/2000/svg" xmlns:xlink="http://www.w3.org/1999/xlink">
    <!-- Generator: sketchtool 52.6 (67491) - http://www.bohemiancoding.com/sketch -->
    <title>D1385283-1AA2-4167-9066-BEA888618B85</title>
    <desc>Created with sketchtool.</desc>
    <defs>
        <circle id="path-1" cx="184" cy="184" r="184"></circle>
        <linearGradient x1="93.9310959%" y1="7.84986413%" x2="6.30282738%" y2="7.84986413%" id="linearGradient-3">
            <stop stop-color="#E7E9EB" offset="0%"></stop>
            <stop stop-color="#CBCFD2" offset="100%"></stop>
        </linearGradient>
        <linearGradient x1="100%" y1="50%" x2="0%" y2="50%" id="linearGradient-4">
            <stop stop-color="#00A1D6" offset="0%"></stop>
            <stop stop-color="#0068AC" offset="100%"></stop>
        </linearGradient>
    </defs>
    <g id="Login-Ultra" stroke="none" stroke-width="1" fill="none" fill-rule="evenodd">
        <g id="1.1-Login-Ultra" transform="translate(-915.000000, -211.000000)">
            <g id="images-/-case" transform="translate(915.000000, 211.000000)">
                <g id="Group-10-Copy-7" stroke-width="1">
                    <mask id="mask-2" fill="white">
                        <use xlink:href="#path-1"></use>
                    </mask>
                    <use id="Oval-3" fill="#D8D8D8" opacity="0.200000003" xlink:href="#path-1"></use>
                    <polygon id="Rectangle-Copy" fill="url(#linearGradient-3)" opacity="0.5" mask="url(#mask-2)" points="0 142.293333 96.2211641 202.4 255.884854 88.32 367.758347 188.457707 367.758347 237.36 0 239.2"></polygon>
                    <polygon id="Rectangle" fill="#CBCFD2" mask="url(#mask-2)" points="-30.6666667 236.746667 388.682171 236.746667 388.682171 377.813333 -30.6666667 377.813333"></polygon>
                    <polygon id="Rectangle-4-Copy-4" fill="#9B9B9B" opacity="0.400000006" mask="url(#mask-2)" points="42.9333333 285.813333 321.450822 285.813333 349.6 309.646036 67.5734789 309.646036"></polygon>
                </g>
                <g id="Group-12" stroke-width="1" transform="translate(42.933333, 55.200000)">
                    <polygon id="Rectangle-4" fill="#00518A" points="0 34.3466667 279.68 34.3466667 279.68 230.613333 0 230.613333"></polygon>
                    <polyline id="Path-2" stroke="#3EC7FF" stroke-width="18.48" points="99.36 38.0266667 99.36 0 179.093333 0 179.093333 38.0266667"></polyline>
                    <polygon id="Rectangle-4-Copy" fill="url(#linearGradient-4)" points="0 29.44 279.68 29.44 279.68 103.04 0 103.04"></polygon>
                    <polygon id="Rectangle-4-Copy-2" fill="#3EC7FF" points="45.3866667 89.5466667 68.6933333 89.5466667 68.6933333 118.986667 45.3866667 118.986667"></polygon>
                    <polygon id="Rectangle-4-Copy-3" fill="#3EC7FF" points="203.626667 89.5466667 226.933333 89.5466667 226.933333 118.986667 203.626667 118.986667"></polygon>
                </g>
                <path d="M180.324464,180.32 C162.707339,180.32 148.426667,194.601175 148.426667,212.21321 C148.426667,229.827465 162.707339,244.106667 180.324464,244.106667 C197.931937,244.106667 212.213333,229.827465 212.213333,212.21321 C212.213333,194.601175 197.931937,180.32 180.324464,180.32 Z M163.212671,196.979863 L163.223613,195.916492 C163.235253,192.440384 164.643034,189.526491 166.575794,189.001644 C169.101046,188.31243 172.507005,191.398504 175.919482,197.468809 L179.093333,203.106585 C178.168393,203.273393 177.392216,203.903992 176.785755,204.979575 L166.430988,223.401748 C164.917746,226.083867 163.869651,228.498068 163.280883,230.613333 C163.278089,230.580362 163.277158,230.548613 163.277158,230.51149 C163.174258,225.648896 163.078341,215.886097 163.212671,196.979863 Z M174.111695,235.949174 L173.170535,236.488427 C170.110857,238.26326 166.824436,238.472358 165.351465,236.979157 C163.429859,235.030743 164.366654,230.348047 167.923224,224.135382 L171.233167,218.346667 C171.865619,219.112026 172.820359,219.494705 174.076047,219.494705 L195.650211,219.494705 C198.796221,219.494705 201.461102,219.215574 203.626667,218.67307 C203.596596,218.690828 203.569921,218.701083 203.539365,218.725344 C199.324396,221.305805 190.791392,226.402446 174.111695,235.949174 Z M197.135442,217.12 L190.396042,217.12 C190.741222,216.193612 190.594557,215.176047 189.953826,214.090347 L178.970789,195.408231 C177.368592,192.67961 175.766642,190.511679 174.186667,188.906667 C174.221234,188.923019 174.24716,188.939371 174.279999,188.957954 C178.677707,191.322361 187.458063,196.18819 204.290638,205.898292 L205.256549,206.452292 C208.365389,208.230491 210.217212,210.971747 209.662159,212.983835 C208.943158,215.612111 204.37681,217.12 197.135442,217.12 Z" id="Shape-Copy" fill="#EC6C00"></path>
            </g>
        </g>
    </g>
</svg>