<?xml version="1.0" encoding="UTF-8"?>
<svg width="16px" height="16px" viewBox="0 0 16 16" version="1.1" xmlns="http://www.w3.org/2000/svg" xmlns:xlink="http://www.w3.org/1999/xlink">
    <!-- Generator: sketchtool 52.6 (67491) - http://www.bohemiancoding.com/sketch -->
    <title>E71DFCE2-D5E5-4940-9D88-46BA7C8BB537</title>
    <desc>Created with sketchtool.</desc>
    <g id="My-Task-Pages" stroke="none" stroke-width="1" fill="none" fill-rule="evenodd">
        <g id="6.0-My-Tasks-ultra" transform="translate(-433.000000, -545.000000)" fill="#0068AC" fill-rule="nonzero">
            <g id="xlarge-/-taskcard-master" transform="translate(416.000000, 416.000000)">
                <g id="icon/tasks/date" transform="translate(17.000000, 129.000000)">
                    <path d="M8,14 C11.3137085,14 14,11.3137085 14,8 C14,4.6862915 11.3137085,2 8,2 C4.6862915,2 2,4.6862915 2,8 C2,11.3137085 4.6862915,14 8,14 Z M8,16 C3.581722,16 0,12.418278 0,8 C0,3.581722 3.581722,0 8,0 C12.418278,0 16,3.581722 16,8 C16,12.418278 12.418278,16 8,16 Z M9,7 L12,7 L12,9 L9,9 L7,9 L7,4 L9,4 L9,7 Z" id="date"></path>
                </g>
            </g>
        </g>
    </g>
</svg>