<?xml version="1.0" encoding="UTF-8"?>
<svg width="32px" height="32px" viewBox="0 0 32 32" version="1.1" xmlns="http://www.w3.org/2000/svg" xmlns:xlink="http://www.w3.org/1999/xlink">
    <!-- Generator: sketchtool 52.6 (67491) - http://www.bohemiancoding.com/sketch -->
    <title>6CBC39C9-7036-4052-B05D-2D0CD2FC7E64</title>
    <desc>Created with sketchtool.</desc>
    <g id="All-Small-Screens" stroke="none" stroke-width="1" fill="none" fill-rule="evenodd">
        <g id="Email-Entry" transform="translate(-269.000000, -43.000000)">
            <g id="home-off" transform="translate(270.000000, 44.000000)">
                <g>
                    <g id="icons8-home-no-circle-copy" transform="translate(4.000000, 4.000000)">
                        <polygon id="Path" points="0 22 0 0 22 0 22 22"></polygon>
                        <g id="Group" transform="translate(2.000000, 1.000000)" fill="#0068AC" fill-rule="nonzero">
                            <g id="surface1">
                                <path d="M9.5,0.0657467532 L9.0064006,0.54788961 L0.078689759,9.66477273 L1.06588855,10.6728896 L1.94578313,9.77435065 L1.94578313,17.8831169 L8.12650602,17.8831169 L8.12650602,10.8701299 L10.873494,10.8701299 L10.873494,17.8831169 L17.0542169,17.8831169 L17.0542169,9.77435065 L17.9341114,10.6728896 L18.9213102,9.66477273 L9.9935994,0.54788961 L9.5,0.0657467532 Z M9.5,2.06006494 L15.6807229,8.37175325 L15.6807229,16.4805195 L12.246988,16.4805195 L12.246988,9.46753247 L6.75301205,9.46753247 L6.75301205,16.4805195 L3.31927711,16.4805195 L3.31927711,8.37175325 L9.5,2.06006494 Z" id="Shape"></path>
                            </g>
                        </g>
                    </g>
                    <circle id="Oval" stroke="#0068AC" stroke-width="2" cx="15" cy="15" r="15"></circle>
                </g>
            </g>
        </g>
    </g>
</svg>