<?xml version="1.0" encoding="UTF-8"?>
<svg width="350px" height="30px" viewBox="0 0 350 30" version="1.1" xmlns="http://www.w3.org/2000/svg" xmlns:xlink="http://www.w3.org/1999/xlink">
    <!-- Generator: Sketch 52.3 (67297) - http://www.bohemiancoding.com/sketch -->
    <title>logo/pnc-solutionsetup</title>
    <desc>Created with Sketch.</desc>
    <g id="logo/pnc-solutionsetup" stroke="none" stroke-width="1" fill="none" fill-rule="evenodd">
        <polygon id="bg" fill="#FFFFFF" points="16.7751372 2.28700075 11.0422491 2.28700075 6.98715957 5.02500751 5.86931759 18.7074399 6.98715957 24.4558352 9.08460184 27.3281325 11.7417417 28.0130143 19.1500984 26.0967136 29.4967381 17.3394501 30.3344724 13.6462068 28.6571917 10.6360717"></polygon>
        <path d="M28.0899865,27.0496697 L28.3312623,27.0496697 C28.5016051,27.0496697 28.6108522,27.1350582 28.6108522,27.3557508 C28.6108522,27.5057508 28.5450968,27.6990785 28.3312623,27.6990785 L28.0899865,27.6990785 L28.0899865,27.0496697 Z M28.0899865,28.0274568 L28.2258983,28.0274568 C28.6442477,28.0274568 28.6002382,28.2648724 28.6002382,28.5392812 C28.6002382,28.6940953 28.6002382,28.8501764 28.6714301,28.9902947 L29.1992855,28.9902947 C29.1498395,28.8935041 29.1381899,28.4584535 29.1381899,28.3074399 C29.1381899,27.8891122 28.7871492,27.8607339 28.6714301,27.8554129 L28.6714301,27.8452778 C29.0232474,27.7920683 29.1498395,27.570869 29.1498395,27.2754298 C29.1498395,26.8763589 28.9132236,26.6617474 28.5450968,26.6617474 L27.5509993,26.6617474 L27.5509993,28.9902947 L28.0899865,28.9902947 L28.0899865,28.0274568 Z M28.3473128,25.8337068 C27.209796,25.8337068 26.2980222,26.7210379 26.2980222,27.8343825 C26.2980222,28.9474737 27.209796,29.8449399 28.3473128,29.8449399 C29.4793932,29.8449399 30.3865072,28.9474737 30.3865072,27.8343825 C30.3865072,26.7210379 29.4793932,25.8337068 28.3473128,25.8337068 Z M28.3473128,29.4691798 C27.4241483,29.4691798 26.6824583,28.7326089 26.6824583,27.8343825 C26.6824583,26.9361562 27.4241483,26.2102271 28.3473128,26.2102271 C29.2533913,26.2102271 30.0012944,26.9361562 30.0012944,27.8343825 C30.0012944,28.7326089 29.2533913,29.4691798 28.3473128,29.4691798 Z" id="r-logo" fill="#F48024"></path>
        <path d="M45.452625,15.0642896 C49.0800456,15.0642896 52.787201,14.5334619 52.787201,10.5984957 C52.787201,7.69858014 50.7878741,6.10102947 47.1591592,6.10102947 C43.9296365,6.10102947 43.9296365,6.35542136 43.9296365,8.0107423 L43.9296365,15.0642896 L45.452625,15.0642896 Z M45.940613,4.42670514 C49.8672983,4.42670514 57.1780574,4.42670514 57.1780574,10.5984957 C57.1780574,16.7386139 49.3135549,16.7386139 45.5333955,16.7386139 L43.9296365,16.7386139 L43.9296365,26.1891207 L39.951952,26.1891207 L39.951952,8.01327609 C39.951952,6.26901933 39.5970281,5.81952609 36.1026716,5.40474568 L35.9048876,5.38143487 L35.9048876,4.42670514 L36.1293362,4.42670514 L45.940613,4.42670514 Z M79.678834,4.42883352 L79.9027648,4.42883352 L79.9027648,26.1889687 L76.4798592,26.1889687 C76.4798592,26.1889687 63.6899141,8.78896866 63.0701564,7.94572541 L63.0701564,26.1889687 L60.508543,26.1889687 L60.508543,8.38989771 C60.508543,5.98812406 60.0718132,5.84015109 56.6571917,5.40484703 L56.4614787,5.37925582 L56.4614787,4.42883352 L64.9014704,4.42883352 C64.9014704,4.42883352 76.7250181,20.5500328 77.3414104,21.3912491 L77.3414104,4.42883352 L79.678834,4.42883352 Z M82.9522367,14.5953876 C82.9522367,7.62038758 86.6549912,4.0844923 93.9556539,4.0844923 C101.536424,4.0844923 102.611033,7.7947119 102.760148,8.9313673 L102.792508,9.17815785 L98.4112302,9.17815785 L98.3757637,9.00282001 C97.9540489,6.97629974 96.3852387,5.94885041 93.7120483,5.94885041 C89.7234907,5.94885041 87.3441286,8.8728369 87.3441286,13.7719078 C87.3441286,21.1036646 90.5573418,24.6661646 97.1704204,24.6661646 C98.669592,24.6661646 100.547504,24.3897288 102.457259,23.888293 L102.761701,23.8077187 L102.761701,25.5922626 L102.59576,25.6358437 C100.799135,26.1068741 98.8611629,26.5307761 94.9318888,26.5307761 C86.6565445,26.5307761 82.9522367,20.5366038 82.9522367,14.5953876 Z" id="pnc" fill="#0068AC"></path>
        <path d="M16.0217459,0.173977102 C7.63042353,0.173977102 0.828362846,6.83098724 0.828362846,15.0407001 C0.828362846,23.2514264 7.63042353,29.907423 16.0217459,29.907423 C24.4084084,29.907423 31.210728,23.2514264 31.210728,15.0407001 C31.210728,6.83098724 24.4084084,0.173977102 16.0217459,0.173977102 M7.85047116,7.38487237 L7.85590763,6.88445008 C7.86160298,5.24838589 8.55669463,3.8771021 9.51092472,3.63005818 C10.7576887,3.30573386 12.4393704,4.75809872 14.1241586,7.61493994 L15.6911567,10.2683183 C15.2344931,10.3468656 14.8513514,10.6435717 14.5518277,11.1498217 L9.43947396,19.819923 C8.69234752,21.0822541 8.17484726,22.2184028 7.8841255,23.2139264 C7.88283111,23.1984703 7.88231335,23.183521 7.88231335,23.1660379 C7.83157295,20.8775244 7.78419799,16.2827609 7.85047116,7.38487237 M13.3293984,25.7902778 L12.8833489,26.0380818 C11.4331055,26.8537068 9.87542715,26.9497372 9.17722895,26.2635886 C8.26649063,25.3681494 8.71046909,23.2162068 10.3962928,20.3611393 L11.965103,17.7009197 C12.2648856,18.0526089 12.7174071,18.2284535 13.3125712,18.2284535 L23.5383142,18.2284535 C25.0294605,18.2284535 26.2925339,18.100244 27.3189914,17.8509197 C27.304753,17.8590278 27.2920679,17.863842 27.2775707,17.8749906 C25.279797,19.0608014 21.2353215,21.4030312 13.3293984,25.7902778 M23.5383142,17.1467812 L20.4009527,17.1467812 C20.5617169,16.7170514 20.4933727,16.2450075 20.1951434,15.7412913 L15.0822719,7.07423048 C14.3364399,5.8083521 13.5906078,4.80269332 12.855131,4.05801426 C12.8711815,4.06561562 12.8833489,4.07321697 12.8986228,4.08183183 C14.9458424,5.17870683 19.0332919,7.4360548 26.8693176,11.940869 L27.3189914,12.1977947 C28.7661282,13.0227947 29.6281972,14.2945008 29.3698354,15.2279467 C29.0351041,16.4472035 26.9094439,17.1467812 23.5383142,17.1467812" id="mark" fill="#F48024"></path>
        <path d="M116,2 L116,28.1141" id="Shape" stroke="#000000"></path>
        <path d="M136.332,5.332 C138.802,5.332 140.492,5.956 142.078,7.438 L140.31,9.206 C139.166,8.114 137.814,7.776 136.228,7.776 C134.044,7.776 132.874,8.972 132.874,10.662 C132.874,11.338 133.056,11.962 133.55,12.378 C134.018,12.794 134.564,13.054 135.578,13.21 L137.788,13.548 C139.478,13.808 140.414,14.198 141.22,14.926 C142.208,15.836 142.728,17.11 142.728,18.722 C142.728,22.128 139.972,24.156 136.072,24.156 C133.29,24.156 131.314,23.506 129.52,21.712 L131.366,19.866 C132.718,21.218 134.252,21.66 136.124,21.66 C138.568,21.66 139.946,20.62 139.946,18.8 C139.946,17.968 139.738,17.318 139.218,16.876 C138.75,16.46 138.126,16.226 137.19,16.096 L135.006,15.784 C133.498,15.55 132.328,15.082 131.522,14.302 C130.612,13.47 130.144,12.274 130.144,10.74 C130.144,7.516 132.484,5.332 136.332,5.332 Z M151.958,5.332 C153.986,5.332 155.546,6.008 156.742,7.204 C158.562,9.024 158.614,10.87 158.614,14.744 C158.614,18.618 158.562,20.464 156.742,22.284 C155.546,23.48 153.986,24.156 151.958,24.156 C149.93,24.156 148.37,23.48 147.174,22.284 C145.354,20.464 145.302,18.618 145.302,14.744 C145.302,10.87 145.354,9.024 147.174,7.204 C148.37,6.008 149.93,5.332 151.958,5.332 Z M151.958,7.854 C150.84,7.854 149.904,8.244 149.202,8.972 C148.292,9.96 148.11,11.078 148.11,14.744 C148.11,18.41 148.292,19.502 149.202,20.49 C149.904,21.218 150.84,21.634 151.958,21.634 C153.076,21.634 154.012,21.218 154.714,20.49 C155.65,19.528 155.806,18.41 155.806,14.744 C155.806,11.078 155.65,9.934 154.714,8.972 C154.012,8.244 153.076,7.854 151.958,7.854 Z M165.062,21.478 L173.98,21.478 L173.98,24 L162.254,24 L162.254,5.488 L165.062,5.488 L165.062,21.478 Z M189.658,17.76 C189.658,21.582 186.772,24.156 183.002,24.156 C179.232,24.156 176.372,21.582 176.372,17.76 L176.372,5.488 L179.18,5.488 L179.18,17.63 C179.18,20.1 180.688,21.634 183.002,21.634 C185.316,21.634 186.85,20.1 186.85,17.63 L186.85,5.488 L189.658,5.488 L189.658,17.76 Z M205.05,8.01 L199.954,8.01 L199.954,24 L197.146,24 L197.146,8.01 L192.05,8.01 L192.05,5.488 L205.05,5.488 L205.05,8.01 Z M210.536,24 L207.728,24 L207.728,5.488 L210.536,5.488 L210.536,24 Z M220.832,5.332 C222.86,5.332 224.42,6.008 225.616,7.204 C227.436,9.024 227.488,10.87 227.488,14.744 C227.488,18.618 227.436,20.464 225.616,22.284 C224.42,23.48 222.86,24.156 220.832,24.156 C218.804,24.156 217.244,23.48 216.048,22.284 C214.228,20.464 214.176,18.618 214.176,14.744 C214.176,10.87 214.228,9.024 216.048,7.204 C217.244,6.008 218.804,5.332 220.832,5.332 Z M220.832,7.854 C219.714,7.854 218.778,8.244 218.076,8.972 C217.166,9.96 216.984,11.078 216.984,14.744 C216.984,18.41 217.166,19.502 218.076,20.49 C218.778,21.218 219.714,21.634 220.832,21.634 C221.95,21.634 222.886,21.218 223.588,20.49 C224.524,19.528 224.68,18.41 224.68,14.744 C224.68,11.078 224.524,9.934 223.588,8.972 C222.886,8.244 221.95,7.854 220.832,7.854 Z M245.064,24 L242.49,24 L233.936,10.974 L233.936,24 L231.128,24 L231.128,5.488 L233.702,5.488 L242.256,18.514 L242.256,5.488 L245.064,5.488 L245.064,24 Z M260.274,5.332 C262.744,5.332 264.434,5.956 266.02,7.438 L264.252,9.206 C263.108,8.114 261.756,7.776 260.17,7.776 C257.986,7.776 256.816,8.972 256.816,10.662 C256.816,11.338 256.998,11.962 257.492,12.378 C257.96,12.794 258.506,13.054 259.52,13.21 L261.73,13.548 C263.42,13.808 264.356,14.198 265.162,14.926 C266.15,15.836 266.67,17.11 266.67,18.722 C266.67,22.128 263.914,24.156 260.014,24.156 C257.232,24.156 255.256,23.506 253.462,21.712 L255.308,19.866 C256.66,21.218 258.194,21.66 260.066,21.66 C262.51,21.66 263.888,20.62 263.888,18.8 C263.888,17.968 263.68,17.318 263.16,16.876 C262.692,16.46 262.068,16.226 261.132,16.096 L258.948,15.784 C257.44,15.55 256.27,15.082 255.464,14.302 C254.554,13.47 254.086,12.274 254.086,10.74 C254.086,7.516 256.426,5.332 260.274,5.332 Z M281.75,8.01 L272.728,8.01 L272.728,13.418 L280.424,13.418 L280.424,15.94 L272.728,15.94 L272.728,21.478 L281.75,21.478 L281.75,24 L269.92,24 L269.92,5.488 L281.75,5.488 L281.75,8.01 Z M296.44,8.01 L291.344,8.01 L291.344,24 L288.536,24 L288.536,8.01 L283.44,8.01 L283.44,5.488 L296.44,5.488 L296.44,8.01 Z M312.118,17.76 C312.118,21.582 309.232,24.156 305.462,24.156 C301.692,24.156 298.832,21.582 298.832,17.76 L298.832,5.488 L301.64,5.488 L301.64,17.63 C301.64,20.1 303.148,21.634 305.462,21.634 C307.776,21.634 309.31,20.1 309.31,17.63 L309.31,5.488 L312.118,5.488 L312.118,17.76 Z M323.168,5.488 C326.782,5.488 329.096,7.88 329.096,11.104 C329.096,14.328 326.782,16.694 323.168,16.694 L318.956,16.694 L318.956,24 L316.148,24 L316.148,5.488 L323.168,5.488 Z M318.956,8.01 L318.956,14.172 L323.012,14.172 C324.988,14.172 326.288,13.054 326.288,11.104 C326.288,9.128 324.988,8.01 323.012,8.01 L318.956,8.01 Z" id="Solution-Setup" fill="#0068AC"></path>
    </g>
</svg>